<svg xmlns="http://www.w3.org/2000/svg" xmlns:xlink="http://www.w3.org/1999/xlink" width="1080" zoomAndPan="magnify" viewBox="0 0 810 809.999993" height="1080" preserveAspectRatio="xMidYMid meet" version="1.0"><defs><g/><clipPath id="297b2740a1"><path d="M 249.542969 81.011719 L 563.363281 81.011719 L 563.363281 552.554688 L 249.542969 552.554688 Z M 249.542969 81.011719 " clip-rule="nonzero"/></clipPath><clipPath id="ab89677b9c"><path d="M 406.859375 81.011719 C 319.976562 81.011719 249.542969 186.570312 249.542969 316.785156 C 249.542969 446.996094 319.976562 552.554688 406.859375 552.554688 C 493.742188 552.554688 564.175781 446.996094 564.175781 316.785156 C 564.175781 186.570312 493.742188 81.011719 406.859375 81.011719 Z M 406.859375 81.011719 " clip-rule="nonzero"/></clipPath><clipPath id="3a003d95c6"><path d="M 258.664062 94.683594 L 555.703125 94.683594 L 555.703125 538.875 L 258.664062 538.875 Z M 258.664062 94.683594 " clip-rule="nonzero"/></clipPath><clipPath id="6ecddba997"><path d="M 406.855469 94.683594 C 325.011719 94.683594 258.664062 194.117188 258.664062 316.777344 C 258.664062 439.4375 325.011719 538.875 406.855469 538.875 C 488.699219 538.875 555.046875 439.4375 555.046875 316.777344 C 555.046875 194.117188 488.699219 94.683594 406.855469 94.683594 Z M 406.855469 94.683594 " clip-rule="nonzero"/></clipPath><clipPath id="a78c1a2142"><path d="M 246 420.136719 L 560.808594 420.136719 L 560.808594 728 L 246 728 Z M 246 420.136719 " clip-rule="nonzero"/></clipPath></defs><g clip-path="url(#297b2740a1)"><g clip-path="url(#ab89677b9c)"><path stroke-linecap="butt" transform="matrix(1.678173, 0, 0, 1.678173, 249.543771, 81.0115)" fill="none" stroke-linejoin="miter" d="M 93.742193 0.000130395 C 41.969926 0.000130395 -0.000478017 62.901036 -0.000478017 140.494261 C -0.000478017 218.085157 41.969926 280.986063 93.742193 280.986063 C 145.514459 280.986063 187.484863 218.085157 187.484863 140.494261 C 187.484863 62.901036 145.514459 0.000130395 93.742193 0.000130395 Z M 93.742193 0.000130395 " stroke="#a78e55" stroke-width="1.787659" stroke-opacity="1" stroke-miterlimit="4"/></g></g><g clip-path="url(#3a003d95c6)"><g clip-path="url(#6ecddba997)"><path stroke-linecap="butt" transform="matrix(1.678173, 0, 0, 1.678173, 258.664942, 94.683078)" fill="none" stroke-linejoin="miter" d="M 88.304698 0.000307545 C 39.535132 0.000307545 -0.000523895 59.251419 -0.000523895 132.34292 C -0.000523895 205.434421 39.535132 264.687861 88.304698 264.687861 C 137.074264 264.687861 176.60992 205.434421 176.60992 132.34292 C 176.60992 59.251419 137.074264 0.000307545 88.304698 0.000307545 Z M 88.304698 0.000307545 " stroke="#a78e55" stroke-width="1.787659" stroke-opacity="1" stroke-miterlimit="4"/></g></g><g clip-path="url(#a78c1a2142)"><path fill="#a78e55" d="M 560.960938 475.070312 C 560.914062 492.171875 558.175781 508.785156 551.753906 524.6875 C 547.6875 534.761719 542.683594 544.324219 535.398438 552.515625 C 531.226562 557.207031 526.519531 561.207031 520.3125 562.980469 C 519.222656 563.292969 519.28125 563.800781 519.664062 564.613281 C 521.902344 569.285156 523.691406 574.125 525.027344 579.132812 C 527.671875 589.164062 528.300781 599.320312 527.140625 609.628906 C 526.171875 618.203125 524.09375 626.449219 520.335938 634.230469 C 515.960938 643.285156 509.84375 650.921875 501.683594 656.859375 C 496.976562 660.28125 491.820312 662.769531 486.019531 663.558594 C 478.0625 664.640625 471.179688 662.085938 465.214844 656.871094 C 459.796875 652.132812 456.09375 646.160156 453.164062 639.675781 C 450.332031 633.402344 448.324219 626.835938 446.710938 620.160156 C 443.382812 606.367188 440.1875 592.539062 436.804688 578.761719 C 434.0625 567.589844 430.507812 556.6875 424.808594 546.628906 C 422.867188 543.203125 420.535156 539.996094 418.300781 536.742188 C 417.328125 535.324219 417.238281 535.386719 415.871094 536.238281 C 413.460938 537.742188 413.507812 537.714844 414.992188 540.3125 C 421.042969 550.886719 426.144531 561.890625 428.835938 573.8125 C 430.40625 580.769531 431.378906 587.867188 432.417969 594.933594 C 433.46875 602.097656 434.332031 609.289062 435.164062 616.484375 C 435.703125 621.152344 436.023438 625.847656 436.453125 630.53125 C 437.222656 638.957031 437.996094 647.382812 438.773438 655.808594 C 440.089844 670.410156 444.433594 684.136719 450.675781 697.328125 C 453.59375 703.492188 457.824219 708.550781 463.25 712.660156 C 467.441406 715.835938 472.152344 716.984375 477.3125 716.441406 C 479.003906 716.261719 479.023438 716.167969 478.574219 714.5 C 476.546875 706.996094 472.121094 701.660156 464.601562 699.15625 C 463.980469 698.949219 463.332031 698.8125 462.71875 698.585938 C 461.558594 698.15625 461.1875 697.542969 461.714844 696.40625 C 463.105469 693.425781 464.527344 690.457031 466.109375 687.578125 C 466.976562 686.003906 468.046875 685.773438 469.695312 686.65625 C 473.269531 688.574219 476.808594 690.625 479.3125 693.910156 C 483.667969 699.621094 485.582031 706.101562 484.425781 713.246094 C 483.8125 717.027344 481.480469 719.917969 478.40625 722.148438 C 469.042969 728.945312 456.9375 728.757812 447.445312 720.71875 C 442.304688 716.359375 438.800781 710.835938 436.105469 704.757812 C 432.394531 696.382812 430.019531 687.59375 428.136719 678.648438 C 426.625 671.457031 425.765625 664.179688 425.054688 656.878906 C 424.691406 653.136719 424.511719 649.371094 424.375 645.613281 C 424.113281 638.46875 423.902344 631.320312 423.746094 624.167969 C 423.34375 606.738281 421.910156 589.402344 418.320312 572.316406 C 415.878906 560.6875 412.285156 549.417969 406.441406 538.980469 C 405.644531 537.558594 405.121094 535.878906 403.523438 535.027344 C 402.632812 536.339844 401.648438 537.597656 400.871094 538.972656 C 396.589844 546.546875 393.652344 554.664062 391.285156 563.007812 C 388.6875 572.167969 387.019531 581.519531 385.890625 590.949219 C 384.515625 602.441406 383.753906 613.984375 383.480469 625.5625 C 383.242188 635.8125 383.015625 646.082031 382.253906 656.300781 C 381.117188 671.640625 378.3125 686.691406 372.734375 701.113281 C 370.515625 706.84375 367.75 712.28125 363.683594 716.949219 C 359.832031 721.367188 355.261719 724.792969 349.496094 726.207031 C 341.027344 728.289062 333.460938 726.335938 326.996094 720.488281 C 324.160156 717.921875 322.597656 714.601562 322.582031 710.734375 C 322.546875 701.21875 325.996094 693.519531 334.449219 688.515625 C 335.5 687.890625 336.515625 687.195312 337.605469 686.65625 C 339.3125 685.816406 340.3125 685.980469 341.1875 687.570312 C 342.769531 690.449219 344.207031 693.414062 345.578125 696.398438 C 346.136719 697.613281 345.703125 698.179688 344.304688 698.65625 C 343.058594 699.082031 341.757812 699.378906 340.574219 699.929688 C 334.070312 702.96875 330.261719 708.167969 328.574219 715.054688 C 328.359375 715.929688 328.664062 716.273438 329.464844 716.371094 C 333.671875 716.882812 337.753906 716.511719 341.460938 714.300781 C 348.023438 710.390625 352.933594 704.894531 356.273438 698.0625 C 361.207031 687.96875 365.042969 677.453125 367.03125 666.382812 C 368.191406 659.914062 368.851562 653.351562 369.515625 646.804688 C 370.328125 638.855469 370.785156 630.867188 371.613281 622.917969 C 372.570312 613.757812 373.679688 604.613281 374.886719 595.480469 C 375.726562 589.148438 376.699219 582.824219 377.875 576.546875 C 379.65625 567.054688 383.171875 558.136719 387.457031 549.523438 C 389.257812 545.90625 391.285156 542.40625 393.242188 538.871094 C 393.671875 538.097656 393.789062 537.648438 392.863281 537.078125 C 390.019531 535.324219 390.074219 535.285156 388.117188 537.894531 C 381.535156 546.652344 377.230469 556.535156 373.882812 566.875 C 370.613281 576.988281 368.4375 587.390625 366.007812 597.726562 C 363.148438 609.890625 360.675781 622.164062 356.441406 633.964844 C 354.273438 640.015625 351.535156 645.785156 347.582031 650.882812 C 346.039062 652.90625 344.328125 654.773438 342.453125 656.492188 C 333.726562 664.363281 323.878906 665.851562 313.15625 661.175781 C 305.566406 657.871094 299.5625 652.507812 294.433594 646.109375 C 287.710938 637.71875 283.488281 628.160156 281.484375 617.644531 C 280.617188 613.210938 280.03125 608.742188 279.730469 604.234375 C 278.910156 590.734375 281.570312 577.851562 287.15625 565.558594 C 287.386719 565.042969 287.714844 564.558594 287.855469 564.023438 C 287.917969 563.78125 287.65625 563.417969 287.472656 563.164062 C 287.382812 563.042969 287.128906 563.039062 286.949219 562.988281 C 280.847656 561.207031 276.214844 557.273438 272.0625 552.699219 C 266.515625 546.582031 262.421875 539.511719 258.824219 532.132812 C 253.589844 521.402344 250.136719 510.09375 248.222656 498.34375 C 246.382812 487.078125 245.804688 475.734375 246.773438 464.316406 C 247.285156 458.296875 248.136719 452.371094 249.941406 446.597656 C 253.765625 434.367188 262.144531 426.859375 274.199219 423.121094 C 279.636719 421.433594 285.210938 420.730469 290.878906 420.695312 C 298.625 420.617188 306.265625 421.460938 313.804688 423.230469 C 321.347656 425.003906 328.566406 427.648438 335.46875 431.164062 C 349.238281 438.136719 359.890625 448.582031 368.234375 461.453125 C 376.097656 473.578125 381.242188 486.839844 384.398438 500.902344 C 384.539062 501.542969 384.53125 502.21875 384.695312 502.851562 C 384.871094 503.363281 385.089844 503.863281 385.347656 504.34375 C 385.574219 503.890625 385.796875 503.433594 386.03125 502.984375 C 387.054688 500.984375 387.851562 498.820312 389.152344 497.023438 C 392.113281 492.933594 396.859375 492.664062 400.195312 494.582031 C 402.546875 495.9375 404.734375 495.945312 407.089844 494.601562 C 410.648438 492.570312 415.394531 493.046875 418.3125 497.222656 C 419.585938 499.042969 420.34375 501.21875 421.347656 503.230469 C 421.503906 503.546875 421.707031 503.835938 421.890625 504.140625 C 422.113281 503.792969 422.46875 503.472656 422.535156 503.101562 C 424.164062 494.378906 426.769531 485.957031 430.34375 477.839844 C 436.226562 464.300781 444.226562 452.238281 455.367188 442.402344 C 464.390625 434.4375 474.734375 428.878906 486.210938 425.3125 C 492.515625 423.351562 498.925781 421.851562 505.472656 421.199219 C 515.640625 420.183594 525.75 420.332031 535.542969 423.933594 C 547.972656 428.507812 555.363281 437.414062 558.410156 450.144531 C 560.371094 458.339844 560.941406 466.675781 560.960938 475.070312 Z M 385.871094 531.0625 L 384.542969 531.410156 C 383.019531 532.328125 381.429688 533.148438 379.984375 534.175781 C 369.726562 541.476562 361.464844 550.621094 354.980469 561.394531 C 348.351562 572.402344 344.542969 584.238281 344.414062 597.179688 C 344.367188 601.785156 344.191406 606.394531 343.960938 610.996094 C 343.699219 616.269531 342.980469 621.46875 341.175781 626.472656 C 338.546875 633.78125 334.246094 639.785156 327.519531 643.847656 C 320.464844 648.105469 313.21875 648.601562 305.792969 644.785156 C 301.324219 642.488281 297.394531 639.453125 293.625 636.179688 C 292.882812 635.53125 292.109375 634.925781 291.171875 634.152344 C 291.171875 634.683594 291.113281 634.882812 291.179688 635.015625 C 296.535156 644.910156 303.707031 653.046875 313.898438 658.195312 C 316.859375 659.714844 320 660.605469 323.320312 660.871094 C 329.800781 661.355469 335.300781 659.058594 340.132812 654.933594 C 344.191406 651.464844 347.230469 647.1875 349.738281 642.511719 C 354 634.578125 356.5 626 358.609375 617.328125 C 362.011719 603.367188 365.074219 589.320312 368.480469 575.355469 C 370.664062 566.402344 373.578125 557.660156 377.746094 549.402344 C 380.496094 543.945312 383.3125 538.5 388.125 534.460938 C 388.269531 534.34375 388.496094 534.164062 388.476562 534.042969 C 388.398438 533.535156 388.332031 532.980469 388.066406 532.574219 C 387.96875 532.433594 387.167969 532.515625 386.933594 532.746094 C 385.960938 533.636719 385.082031 534.613281 384.296875 535.667969 C 381.878906 539.136719 379.5625 542.671875 377.175781 546.160156 C 376.507812 547.128906 375.722656 548.019531 374.992188 548.945312 L 375.066406 549.011719 C 375.507812 547.992188 375.855469 546.914062 376.40625 545.957031 C 377.902344 543.347656 379.488281 540.792969 381.019531 538.207031 C 381.113281 537.960938 381.167969 537.710938 381.183594 537.449219 C 380.878906 537.519531 380.492188 537.492188 380.289062 537.675781 C 379.664062 538.25 379.074219 538.855469 378.515625 539.492188 C 374.910156 543.472656 371.683594 547.742188 368.835938 552.300781 C 363.796875 560.324219 359.859375 568.84375 358.230469 578.222656 C 357.316406 583.488281 356.992188 588.851562 356.414062 594.171875 C 356.25 595.683594 356.507812 597.269531 355.585938 598.652344 C 355.707031 593.191406 356.050781 587.753906 356.402344 582.320312 C 356.71875 577.980469 357.601562 573.765625 359.058594 569.667969 C 364.066406 555.167969 372 542.601562 383.855469 532.664062 C 384.195312 532.378906 384.273438 531.785156 384.488281 531.351562 C 385.050781 531.703125 385.5 531.632812 385.792969 530.996094 L 386.289062 530.8125 L 385.980469 530.597656 C 385.945312 530.75 385.910156 530.90625 385.871094 531.0625 Z M 415.886719 546.574219 C 416.015625 547.042969 416.144531 547.515625 416.277344 547.984375 C 416.8125 549.511719 417.34375 551.035156 417.878906 552.558594 L 417.882812 552.554688 C 416.726562 552.71875 416.59375 551.8125 416.242188 551.054688 C 414.46875 547.226562 412.648438 543.417969 410.867188 539.589844 C 410.40625 538.597656 409.828125 537.800781 408.65625 537.652344 C 408.390625 537.617188 408.125 537.585938 407.859375 537.554688 C 407.890625 537.886719 407.808594 538.277344 407.960938 538.535156 C 410.820312 543.410156 413.234375 548.492188 415.214844 553.785156 C 419.402344 564.722656 422.007812 576.039062 423.730469 587.609375 C 425.226562 597.660156 426.15625 607.761719 426.523438 617.917969 C 426.789062 625.25 426.804688 632.589844 427.023438 639.921875 C 427.433594 653.65625 428.363281 667.34375 431.34375 680.8125 C 433.132812 688.902344 435.371094 696.855469 438.902344 704.386719 C 441.277344 709.453125 444.285156 714.097656 448.636719 717.71875 C 455.152344 723.140625 462.4375 725.210938 470.710938 722.46875 C 473.375 721.585938 475.902344 720.402344 477.921875 718.207031 C 477.582031 718.089844 477.410156 717.960938 477.257812 717.984375 C 471.871094 718.757812 467.003906 717.339844 462.566406 714.367188 C 457.148438 710.738281 453 705.9375 449.972656 700.171875 C 446.292969 693.160156 443.515625 685.78125 441.148438 678.238281 C 438.3125 669.21875 437.082031 659.902344 436.101562 650.554688 C 435.308594 642.980469 434.789062 635.378906 434.054688 627.796875 C 433.242188 619.375 432.46875 610.949219 431.410156 602.554688 C 430.4375 594.820312 429.339844 587.089844 427.886719 579.433594 C 425.902344 568.941406 422.050781 559.042969 417.363281 549.472656 C 417.097656 548.9375 416.605469 548.515625 416.222656 548.039062 L 415.859375 546.613281 L 415.558594 546.164062 L 415.402344 546.464844 C 415.566406 546.496094 415.730469 546.527344 415.886719 546.574219 Z M 371.019531 472.90625 L 370.722656 471.546875 C 368.851562 468.402344 367.136719 465.152344 365.082031 462.128906 C 356.050781 448.84375 344.40625 438.578125 329.613281 432.09375 C 318.835938 427.332031 307.5625 424.648438 295.792969 424.046875 C 288.691406 423.6875 281.691406 424.125 274.859375 426.1875 C 266.746094 428.636719 260.007812 433.007812 255.683594 440.511719 C 252.4375 446.144531 251.128906 452.371094 250.328125 459.082031 C 250.503906 458.898438 250.660156 458.695312 250.796875 458.476562 C 250.988281 457.949219 251.183594 457.421875 251.335938 456.878906 C 254.15625 446.613281 260.261719 438.753906 269.097656 433 C 271.109375 431.691406 273.453125 430.902344 275.644531 429.875 L 275.601562 429.816406 C 274.730469 430.421875 273.898438 431.109375 272.976562 431.628906 C 264.070312 436.652344 257.359375 443.609375 253.789062 453.328125 C 252.683594 456.332031 251.804688 459.410156 251.742188 462.671875 C 252.328125 462.019531 252.71875 461.289062 253.183594 460.605469 C 255.398438 457.34375 257.433594 453.933594 259.902344 450.882812 C 263.777344 446.097656 268.40625 442.097656 273.929688 439.269531 C 277.359375 437.515625 281.082031 436.945312 284.898438 436.890625 C 283.527344 437.507812 282.070312 437.820312 280.675781 438.3125 C 278.382812 439.128906 275.96875 439.777344 273.894531 440.988281 C 265.144531 446.101562 258.621094 453.375 253.933594 462.324219 C 253.753906 462.65625 253.601562 462.996094 253.476562 463.351562 C 253.445312 463.445312 253.59375 463.613281 253.6875 463.722656 C 253.714844 463.75 253.886719 463.703125 253.9375 463.644531 C 254.238281 463.285156 254.527344 462.914062 254.816406 462.546875 C 262.183594 453.097656 272.0625 448.160156 283.792969 447.023438 C 288.960938 446.515625 294.125 446.558594 299.28125 447.148438 C 304.441406 447.742188 309.480469 448.871094 314.398438 450.539062 C 335.617188 457.679688 353.394531 469.78125 367.144531 487.582031 C 370.59375 492.046875 373.980469 496.558594 377.410156 501.039062 C 377.972656 501.773438 378.597656 502.460938 379.191406 503.167969 C 379.359375 502.394531 379.269531 501.652344 378.914062 500.945312 C 377.089844 497.664062 375.410156 494.273438 373.285156 491.195312 C 368.34375 484.027344 362.03125 478.085938 355.625 472.25 C 342.09375 459.929688 326.886719 450.496094 309.253906 445.214844 C 308.175781 444.890625 307.089844 444.589844 306.015625 444.246094 C 305.050781 443.9375 304.101562 443.582031 303.144531 443.246094 C 303.609375 443.019531 304.09375 442.964844 304.597656 443.085938 C 313.300781 444.894531 321.589844 447.851562 329.46875 451.960938 C 347.277344 461.277344 361.753906 474.535156 374.199219 490.140625 C 377.871094 494.746094 380.625 499.851562 381.726562 505.730469 C 381.742188 506.011719 381.8125 506.28125 381.9375 506.535156 C 382.0625 506.710938 382.371094 506.753906 382.601562 506.855469 C 382.667969 506.695312 382.8125 506.519531 382.789062 506.371094 C 382.671875 505.628906 382.546875 504.886719 382.355469 504.160156 C 380.402344 496.691406 377.953125 489.394531 374.566406 482.4375 C 369.503906 472.035156 363.144531 462.546875 354.65625 454.605469 C 342.726562 443.441406 328.695312 436.519531 312.558594 433.84375 C 311.582031 433.679688 310.625 433.40625 309.65625 433.179688 C 315.277344 433.164062 320.769531 433.882812 326.015625 435.671875 C 339.378906 440.238281 350.683594 448.027344 360.085938 458.492188 C 363.402344 462.183594 366.171875 466.363281 369.210938 470.3125 C 369.613281 470.835938 369.695312 471.847656 370.765625 471.515625 C 370.40625 472.070312 370.433594 472.539062 371.078125 472.863281 L 371.292969 474.4375 C 371.453125 474.476562 371.605469 474.527344 371.753906 474.589844 C 371.90625 474.675781 372.050781 474.769531 372.1875 474.878906 C 372.195312 474.734375 372.261719 474.546875 372.199219 474.464844 C 372.085938 474.335938 371.941406 474.269531 371.773438 474.261719 C 371.601562 474.292969 371.445312 474.351562 371.292969 474.441406 C 371.265625 473.917969 372.0625 473.246094 371.019531 472.90625 Z M 413.074219 540.753906 C 413.078125 540.894531 413.078125 541.03125 413.082031 541.171875 L 413.132812 540.769531 L 412.398438 539.90625 C 412.316406 539.425781 412.230469 538.949219 412.148438 538.472656 L 411.429688 538.429688 C 411.457031 538.550781 411.484375 538.667969 411.511719 538.785156 C 411.726562 538.679688 411.941406 538.574219 412.132812 538.496094 C 411.914062 539.023438 411.453125 539.609375 412.453125 539.84375 C 412.664062 540.148438 412.871094 540.449219 413.074219 540.753906 Z M 393.953125 540.792969 C 394.597656 540.503906 395.238281 540.214844 395.882812 539.925781 C 395.832031 539.769531 395.777344 539.613281 395.742188 539.449219 C 395.707031 539.261719 395.695312 539.066406 395.671875 538.875 C 395.617188 538.914062 395.515625 538.96875 395.523438 538.992188 C 395.570312 539.152344 395.625 539.308594 395.691406 539.460938 C 395.75 539.621094 395.8125 539.777344 395.875 539.9375 C 394.785156 539.292969 394.628906 540.722656 393.890625 540.835938 L 394.25 541.023438 L 393.882812 541.191406 C 393.90625 541.058594 393.929688 540.925781 393.953125 540.792969 Z M 544.609375 506.257812 C 544.167969 506.542969 543.628906 506.746094 543.304688 507.128906 C 541.902344 508.773438 540.585938 510.488281 539.199219 512.144531 C 533.492188 518.957031 526.753906 524.660156 519.769531 530.089844 C 515.386719 533.5 511.21875 537.148438 507.449219 541.238281 C 505.855469 542.964844 505.914062 542.796875 507.167969 544.449219 C 509.707031 547.789062 509.683594 547.804688 512.980469 545.113281 C 525.894531 534.566406 535.785156 521.527344 544.179688 507.257812 C 544.335938 506.917969 544.453125 506.5625 544.53125 506.195312 L 544.882812 505.847656 L 544.523438 505.757812 Z M 263.234375 506.742188 C 263.210938 506.472656 263.15625 506.210938 263.070312 505.953125 C 263.007812 505.8125 262.777344 505.746094 262.625 505.644531 C 262.632812 505.867188 262.5625 506.140625 262.667969 506.292969 C 262.796875 506.480469 263.074219 506.5625 263.289062 506.6875 C 263.429688 507.203125 263.472656 507.777344 263.734375 508.222656 C 264.976562 510.324219 266.234375 512.421875 267.566406 514.46875 C 275 525.871094 283.53125 536.320312 294.152344 544.941406 C 295.226562 545.8125 296.421875 546.53125 297.5625 547.320312 C 298.65625 546.054688 299.785156 544.816406 300.8125 543.496094 C 301.007812 543.242188 300.917969 542.597656 300.734375 542.257812 C 300.472656 541.777344 299.996094 541.414062 299.617188 541 C 296.023438 537.132812 292.128906 533.601562 287.925781 530.40625 C 279.171875 523.679688 271.007812 516.351562 264.296875 507.511719 C 264.046875 507.179688 263.59375 506.996094 263.234375 506.742188 Z M 518.445312 557.566406 C 520.007812 555.976562 521.59375 554.410156 523.121094 552.789062 C 528.859375 546.648438 533.777344 539.90625 537.867188 532.5625 C 545.28125 519.414062 550.917969 505.523438 555.074219 491.023438 C 555.128906 490.820312 554.992188 490.5625 554.878906 489.992188 C 554.460938 490.75 554.175781 491.214844 553.941406 491.703125 C 549.425781 501.121094 544.449219 510.28125 538.453125 518.84375 C 530.824219 529.734375 522.613281 540.117188 511.351562 547.59375 C 510.378906 548.242188 510.414062 548.777344 510.980469 549.640625 C 512.945312 552.613281 514.859375 555.621094 516.792969 558.613281 C 517.105469 559.292969 517.410156 559.972656 517.726562 560.648438 C 518.082031 561.40625 518.617188 561.523438 519.320312 561.085938 C 519.71875 560.839844 520.136719 560.628906 520.550781 560.410156 C 528.226562 556.351562 534.082031 550.355469 538.75 543.148438 C 549.21875 527 555 509.222656 557.066406 490.160156 C 557.117188 489.980469 557.136719 489.796875 557.132812 489.605469 C 557.066406 489.394531 556.972656 489.195312 556.855469 489.007812 C 556.726562 489.132812 556.535156 489.234375 556.480469 489.382812 C 556.367188 489.742188 556.277344 490.105469 556.203125 490.472656 C 552.105469 507.105469 545.277344 522.597656 536.582031 537.296875 C 533.179688 543.046875 529.222656 548.421875 524.5 553.179688 C 522.734375 554.953125 520.992188 556.835938 518.445312 557.566406 Z M 290.457031 558.789062 C 292.433594 555.707031 294.386719 552.605469 296.402344 549.546875 C 297.035156 548.589844 296.738281 548.152344 295.882812 547.527344 C 293.230469 545.585938 290.449219 543.75 288.128906 541.453125 C 283.988281 537.363281 279.941406 533.140625 276.222656 528.664062 C 266.863281 517.382812 259.613281 504.757812 253.308594 491.566406 C 253.0625 491.050781 252.707031 490.589844 252.121094 489.652344 C 252.191406 490.496094 252.167969 490.773438 252.242188 491.027344 C 256.378906 505.648438 262.082031 519.636719 269.601562 532.839844 C 274.789062 541.957031 280.890625 550.402344 288.980469 557.242188 C 289.523438 557.753906 290.035156 558.292969 290.519531 558.863281 C 286.21875 556.738281 282.832031 553.519531 279.769531 549.90625 C 273.773438 542.839844 269.015625 534.984375 264.875 526.71875 C 259.101562 515.175781 254.164062 503.320312 251.195312 490.710938 C 251.078125 490.21875 250.800781 489.765625 250.449219 488.941406 C 250.328125 489.636719 250.210938 489.914062 250.242188 490.175781 C 250.414062 491.671875 250.613281 493.160156 250.820312 494.648438 C 253 510.476562 257.972656 525.347656 266.0625 539.148438 C 271.128906 547.792969 277.332031 555.332031 286.347656 560.183594 C 289.058594 561.640625 289.023438 562.230469 290.457031 558.789062 Z M 416.597656 521.859375 L 416.601562 521.851562 C 416.421875 522.277344 416.277344 522.710938 416.167969 523.160156 C 415.488281 527.605469 413.714844 531.421875 409.96875 534.132812 C 409.808594 534.234375 409.667969 534.359375 409.546875 534.503906 C 409.449219 534.644531 409.328125 534.898438 409.386719 534.992188 C 409.515625 535.226562 409.707031 535.386719 409.960938 535.472656 C 412.09375 535.765625 413.816406 534.941406 415.25 533.417969 C 416.914062 531.652344 417.785156 529.445312 418.34375 527.164062 C 420.042969 520.238281 420.449219 513.214844 419.207031 506.179688 C 418.820312 504 417.914062 501.871094 416.988281 499.839844 C 416.597656 498.964844 416.042969 498.210938 415.324219 497.574219 C 414.609375 496.9375 413.792969 496.476562 412.878906 496.191406 C 412.613281 496.144531 412.347656 496.140625 412.078125 496.171875 C 412.144531 496.480469 412.125 496.84375 412.285156 497.09375 C 412.992188 498.199219 413.769531 499.261719 414.476562 500.371094 C 414.742188 500.859375 414.972656 501.363281 415.167969 501.886719 C 413.644531 500.441406 412.289062 498.851562 411.097656 497.121094 C 410.34375 496.023438 409.578125 495.996094 408.472656 496.433594 C 406.933594 497.039062 406.871094 497.117188 407.683594 498.625 C 408.707031 500.519531 409.714844 502.421875 410.730469 504.320312 L 410.796875 504.253906 C 409.207031 504.1875 409.417969 502.125 407.851562 501.722656 C 408.980469 507.507812 409.066406 513.304688 408.117188 519.117188 C 407.863281 518.042969 407.703125 517.617188 407.675781 517.183594 C 407.585938 515.777344 407.515625 514.371094 407.492188 512.964844 C 407.390625 508.0625 406.730469 503.234375 405.503906 498.488281 C 405.308594 497.707031 405.039062 497.089844 404.109375 496.976562 C 402.828125 496.816406 402.203125 497.117188 401.859375 498.429688 C 400.558594 503.257812 399.871094 508.171875 399.804688 513.167969 C 399.789062 514.667969 399.730469 516.171875 399.644531 517.671875 C 399.632812 517.878906 399.34375 518.066406 399.183594 518.265625 C 399.066406 518.058594 398.855469 517.851562 398.851562 517.644531 C 398.777344 514.546875 398.640625 511.449219 398.699219 508.355469 C 398.742188 506.246094 399.058594 504.144531 399.304688 501.464844 C 398.46875 502.523438 398.023438 503.21875 397.441406 503.769531 C 397.179688 504.015625 396.648438 503.980469 396.242188 504.070312 L 396.179688 504.097656 C 397.222656 502.445312 398.289062 500.808594 399.300781 499.136719 C 400.535156 497.097656 400.183594 496.421875 397.863281 496.109375 C 397.027344 495.996094 396.707031 496.539062 396.300781 497.054688 C 395.066406 498.625 393.824219 500.191406 392.582031 501.757812 C 393.066406 500.0625 393.988281 498.695312 394.871094 497.300781 C 395.054688 496.933594 395.191406 496.550781 395.289062 496.15625 C 394.84375 496.191406 394.40625 496.269531 393.972656 496.390625 C 392.109375 497.105469 390.960938 498.582031 390.042969 500.261719 C 388.625 502.867188 388.019531 505.703125 387.707031 508.621094 C 387.011719 515.140625 387.429688 521.59375 389.207031 527.902344 C 389.707031 529.667969 390.671875 531.363281 391.683594 532.917969 C 392.203125 533.730469 392.886719 534.367188 393.730469 534.828125 C 394.578125 535.292969 395.480469 535.519531 396.445312 535.519531 C 396.929688 535.527344 397.417969 535.210938 397.90625 535.042969 C 397.652344 534.6875 397.425781 534.308594 397.140625 533.976562 C 395.746094 532.34375 394.082031 530.878906 392.992188 529.066406 C 391.394531 526.417969 391.140625 523.308594 390.832031 520.273438 C 391.625 522.484375 392.28125 524.730469 393.054688 526.933594 C 394.167969 530.097656 396.574219 532.210938 399.164062 534.128906 C 399.441406 534.335938 399.988281 534.183594 400.410156 534.195312 C 400.351562 533.859375 400.375 533.476562 400.214844 533.195312 C 399.632812 532.183594 398.65625 531.390625 398.617188 530.003906 C 399.21875 530.335938 399.558594 530.890625 399.976562 531.378906 C 400.128906 531.558594 400.460938 531.585938 400.710938 531.679688 C 400.761719 531.433594 400.90625 531.167969 400.855469 530.9375 C 400.566406 529.554688 400.335938 528.171875 400.628906 526.761719 C 401.222656 528.34375 401.691406 529.964844 402.039062 531.621094 C 402.199219 532.351562 402.453125 532.738281 403.316406 532.746094 C 404.894531 532.757812 405.015625 532.742188 405.398438 531.171875 C 405.578125 530.441406 405.664062 529.6875 405.882812 528.972656 C 406.121094 528.191406 406.460938 527.441406 406.761719 526.675781 C 406.75 527.519531 406.742188 528.363281 406.722656 529.203125 C 406.71875 529.390625 406.65625 529.578125 406.664062 529.765625 C 406.683594 530.304688 406.722656 530.839844 406.757812 531.378906 C 407.191406 531.105469 407.636719 530.851562 408.054688 530.554688 C 408.429688 530.292969 408.773438 529.980469 409.132812 529.691406 C 408.570312 531.121094 407.734375 532.25 406.949219 533.40625 C 406.816406 533.597656 406.785156 534.109375 406.859375 534.144531 C 407.179688 534.300781 407.515625 534.363281 407.871094 534.332031 C 408.117188 534.300781 408.339844 534.039062 408.5625 533.871094 C 411.816406 531.429688 414.230469 528.410156 415.175781 524.359375 C 415.398438 523.402344 415.382812 522.269531 416.59375 521.859375 Z M 339.921875 529.664062 L 339.941406 529.699219 C 339.984375 529.359375 339.902344 528.855469 340.09375 528.714844 C 340.859375 528.171875 341.652344 527.675781 342.476562 527.222656 C 349.660156 523.03125 357.355469 520.054688 365.308594 517.734375 C 370.367188 516.242188 375.515625 515.21875 380.761719 514.667969 C 381.953125 514.546875 383.140625 514.386719 384.328125 514.246094 C 384.449219 512.957031 384.570312 511.667969 384.691406 510.378906 C 384.699219 510.285156 384.703125 510.191406 384.699219 510.097656 C 384.660156 508.746094 384.625 508.699219 383.199219 509.007812 C 378.515625 510.023438 373.8125 510.96875 369.160156 512.105469 C 357.019531 515.066406 345.015625 518.488281 333.355469 523.023438 C 324.761719 526.363281 316.984375 530.976562 310.382812 537.496094 C 304.136719 543.683594 298.785156 550.566406 294.332031 558.144531 C 289.957031 565.546875 286.605469 573.359375 284.613281 581.761719 C 282.230469 591.796875 282.195312 601.882812 283.6875 612.011719 C 284.070312 614.605469 284.765625 617.15625 285.351562 619.71875 C 285.386719 619.882812 285.71875 620.011719 285.9375 620.082031 C 285.992188 620.097656 286.191406 619.839844 286.234375 619.683594 C 286.304688 619.410156 286.34375 619.132812 286.359375 618.847656 C 286.972656 612.675781 287.910156 606.550781 289.164062 600.472656 C 291.828125 587.179688 296.960938 574.964844 305.085938 564.113281 C 319 545.523438 336.921875 532.03125 358.417969 523.402344 C 366.425781 520.183594 374.664062 517.402344 383.582031 518.472656 C 383.886719 518.507812 384.5 518.25 384.507812 518.105469 C 384.550781 517.285156 384.582031 516.417969 384.332031 515.65625 C 384.242188 515.390625 383.328125 515.222656 382.828125 515.289062 C 380.222656 515.632812 377.605469 515.957031 375.03125 516.484375 C 364.121094 518.714844 353.652344 522.25 343.753906 527.390625 C 342.441406 528.070312 341.214844 528.917969 339.921875 529.664062 Z M 468.386719 530.238281 C 468.214844 530.03125 468.082031 529.75 467.863281 529.625 C 454.484375 522.246094 440.273438 517.347656 425.101562 515.335938 C 424.636719 515.261719 424.167969 515.242188 423.695312 515.277344 C 422.8125 515.371094 422.523438 516.074219 422.628906 517.507812 C 422.695312 518.410156 423.195312 518.628906 423.957031 518.457031 C 427.363281 517.691406 430.71875 518.367188 434.03125 518.957031 C 439.40625 519.917969 444.585938 521.617188 449.652344 523.660156 C 466.488281 530.449219 480.976562 540.699219 493.542969 553.699219 C 503.558594 564.0625 510.980469 576.054688 515.386719 589.820312 C 518.203125 598.628906 519.742188 607.703125 520.753906 616.878906 C 520.882812 618.027344 520.808594 619.238281 521.640625 620.542969 C 521.898438 619.839844 522.117188 619.421875 522.199219 618.976562 C 522.796875 615.746094 523.453125 612.523438 523.925781 609.273438 C 525.601562 597.71875 524.507812 586.394531 520.878906 575.3125 C 517.683594 565.5625 512.640625 556.804688 506.597656 548.5625 C 497.332031 535.910156 485.519531 526.808594 470.574219 521.695312 C 455.972656 516.699219 441.203125 512.421875 426.054688 509.46875 C 424.957031 509.253906 423.851562 509.074219 422.75 508.878906 C 422.714844 510.089844 422.679688 511.300781 422.648438 512.511719 C 422.644531 512.699219 422.671875 512.890625 422.671875 513.078125 C 422.664062 514.101562 423.089844 514.597656 424.191406 514.617188 C 425.695312 514.648438 427.191406 514.753906 428.683594 514.941406 C 435.421875 515.785156 441.933594 517.570312 448.34375 519.765625 C 454.847656 522.015625 461.050781 524.90625 466.957031 528.4375 C 467.691406 528.871094 468.425781 529.261719 468.371094 530.273438 Z M 388.960938 554.828125 L 388.933594 554.835938 C 389.394531 553.535156 389.921875 552.253906 390.304688 550.929688 C 390.703125 549.53125 390.964844 548.097656 391.292969 546.683594 L 391.804688 546.628906 C 391.753906 546.515625 391.703125 546.402344 391.652344 546.289062 L 391.367188 546.757812 C 391.269531 546.917969 391.164062 547.074219 391.078125 547.242188 C 383.648438 561.378906 379.132812 576.414062 377.246094 592.25 C 376.035156 602.421875 374.789062 612.59375 373.71875 622.785156 C 372.894531 630.636719 372.402344 638.523438 371.59375 646.378906 C 370.933594 652.828125 370.28125 659.292969 369.175781 665.671875 C 367.210938 677.035156 363.371094 687.832031 358.375 698.210938 C 355.21875 704.765625 350.808594 710.3125 344.714844 714.402344 C 340.4375 717.269531 335.734375 718.574219 330.566406 718.066406 C 330.246094 718.078125 329.929688 718.132812 329.625 718.230469 C 329.832031 718.523438 329.980469 718.894531 330.253906 719.105469 C 331.972656 720.449219 333.851562 721.503906 335.890625 722.269531 C 337.929688 723.035156 340.039062 723.480469 342.214844 723.605469 C 349.121094 724.050781 354.863281 721.324219 359.808594 716.707031 C 364.222656 712.585938 367.195312 707.484375 369.484375 701.96875 C 374.984375 688.734375 377.6875 674.835938 379.074219 660.65625 C 379.980469 651.382812 380.34375 642.078125 380.375 632.757812 C 380.410156 622.21875 380.890625 611.695312 381.886719 601.203125 C 382.601562 593.242188 383.742188 585.339844 385.300781 577.5 C 387.371094 567.339844 390.230469 557.425781 394.503906 547.964844 C 396.078125 544.476562 397.921875 541.109375 399.742188 537.484375 C 398.097656 537.585938 397.15625 538.230469 396.375 539.621094 C 393.976562 543.996094 391.914062 548.523438 390.191406 553.203125 C 389.953125 553.839844 390.003906 554.769531 388.960938 554.828125 Z M 422.492188 531.566406 C 422.316406 531.308594 422.109375 531.074219 421.875 530.871094 C 421.738281 530.78125 421.46875 530.890625 421.257812 530.910156 C 421.359375 531.050781 421.433594 531.265625 421.566406 531.3125 C 421.886719 531.402344 422.214844 531.46875 422.542969 531.507812 C 423.605469 532.523438 424.644531 533.558594 425.734375 534.546875 C 431.132812 539.453125 435.621094 545.117188 439.503906 551.265625 C 444.5625 559.285156 448.378906 567.824219 450.175781 577.1875 C 451.390625 583.5 451.492188 589.898438 451.75 596.289062 C 451.789062 597.242188 451.757812 598.195312 451.757812 599.152344 C 450.96875 594.769531 450.582031 590.382812 450.222656 585.992188 C 449.800781 580.621094 448.738281 575.382812 447.042969 570.269531 C 442.976562 558.117188 436.277344 547.554688 427.585938 538.207031 C 427.03125 537.566406 426.417969 536.984375 425.742188 536.46875 C 425.441406 536.257812 424.882812 536.417969 424.449219 536.410156 C 424.429688 536.285156 424.410156 536.160156 424.390625 536.035156 L 424.710938 536.226562 L 424.363281 536.355469 C 424.894531 536.839844 425.5625 537.234375 425.9375 537.820312 C 427.460938 540.175781 428.890625 542.59375 430.359375 544.984375 C 431.230469 546.402344 432.109375 547.8125 432.988281 549.226562 L 432.953125 549.210938 C 431.6875 549.339844 431.476562 548.230469 430.984375 547.496094 C 428.53125 543.824219 426.15625 540.097656 423.644531 536.464844 C 422.6875 535.085938 421.46875 533.882812 420.292969 532.671875 C 420.09375 532.46875 419.261719 532.488281 419.160156 532.664062 C 418.921875 533.066406 418.921875 533.625 418.890625 534.125 C 418.882812 534.253906 419.113281 534.414062 419.257812 534.53125 C 423.207031 537.769531 425.675781 542.109375 428.066406 546.488281 C 433.742188 556.886719 437.144531 568.125 439.90625 579.5625 C 443.257812 593.445312 446.347656 607.390625 449.75 621.257812 C 451.679688 629.113281 454.261719 636.773438 458.320312 643.847656 C 461.203125 648.875 464.691406 653.390625 469.511719 656.730469 C 473.644531 659.59375 478.171875 661.132812 483.273438 660.902344 C 486.992188 660.714844 490.496094 659.75 493.785156 658.007812 C 503.65625 652.925781 510.636719 644.964844 515.953125 635.394531 C 516.070312 635.1875 516.019531 634.886719 516.09375 634.179688 C 515.046875 635.050781 514.316406 635.722656 513.523438 636.3125 C 510.128906 638.832031 506.871094 641.570312 503.285156 643.773438 C 494.667969 649.074219 486.152344 648.425781 477.960938 642.636719 C 472.140625 638.527344 468.414062 632.894531 466.054688 626.261719 C 464.109375 620.789062 463.496094 615.097656 463.242188 609.355469 C 463.027344 604.46875 463.007812 599.574219 462.808594 594.6875 C 462.539062 588.0625 461.277344 581.628906 459.019531 575.394531 C 455.367188 565.273438 449.777344 556.300781 442.753906 548.203125 C 437.804688 542.496094 432.269531 537.417969 425.949219 533.246094 C 424.886719 532.546875 423.648438 532.121094 422.492188 531.566406 Z M 435.042969 473.507812 C 436.261719 473.691406 436.582031 472.71875 437.074219 471.945312 C 440.097656 467.171875 443.34375 462.554688 447.21875 458.429688 C 460.078125 444.734375 475.199219 435.171875 494.273438 432.929688 C 495.417969 432.796875 496.578125 432.777344 497.730469 432.707031 C 496.800781 433.394531 495.820312 433.617188 494.835938 433.84375 C 491.089844 434.714844 487.273438 435.363281 483.605469 436.492188 C 470.570312 440.488281 459.328125 447.515625 449.914062 457.335938 C 438.070312 469.6875 430.492188 484.457031 425.882812 500.832031 C 425.398438 502.546875 425 504.289062 424.617188 506.027344 C 424.566406 506.269531 424.832031 506.582031 424.949219 506.859375 C 425.121094 506.667969 425.390625 506.5 425.449219 506.277344 C 425.800781 505.011719 426.058594 503.71875 426.429688 502.460938 C 428.101562 496.738281 431.464844 491.972656 435.179688 487.460938 C 443.367188 477.542969 452.636719 468.769531 462.992188 461.144531 C 474.773438 452.417969 487.800781 446.324219 502.179688 443.230469 C 502.789062 443.097656 503.425781 443.078125 504.054688 443.003906 C 502.679688 443.785156 501.253906 444.230469 499.824219 444.667969 C 491.082031 447.335938 482.617188 450.652344 474.699219 455.273438 C 460.667969 463.460938 448.636719 474.050781 437.894531 486.152344 C 433.976562 490.539062 430.832031 495.421875 428.464844 500.804688 C 428.15625 501.511719 427.960938 502.269531 427.710938 503.003906 C 428.714844 502.375 429.558594 501.578125 430.238281 500.609375 C 433.785156 495.980469 437.207031 491.253906 440.867188 486.71875 C 457.484375 466.136719 478.5625 452.785156 504.675781 447.753906 C 511.839844 446.371094 519.085938 446.355469 526.296875 447.4375 C 537.195312 449.070312 546.105469 454.191406 552.835938 462.992188 C 553.09375 463.285156 553.375 463.550781 553.679688 463.800781 C 553.789062 463.375 553.734375 462.976562 553.515625 462.597656 C 551.609375 458.851562 549.304688 455.371094 546.59375 452.160156 C 543.882812 448.949219 540.84375 446.089844 537.472656 443.582031 C 533.886719 440.894531 529.972656 438.953125 525.566406 438.019531 C 524.453125 437.785156 523.378906 437.371094 522.285156 437.039062 C 527.425781 436.96875 532.175781 438.117188 536.433594 441 C 543.816406 446 549.601562 452.445312 553.941406 460.210938 C 554.410156 461.046875 554.722656 462 555.890625 462.917969 C 554.804688 455.992188 552.769531 449.929688 548.941406 444.53125 C 544.714844 438.570312 539.226562 434.113281 532.761719 430.792969 C 531.988281 430.398438 530.828125 430.367188 530.773438 429.097656 L 530.761719 429.066406 C 531.59375 429.480469 532.414062 429.914062 533.253906 430.304688 C 542.273438 434.523438 549.054688 441.0625 553.394531 450.023438 C 554.691406 452.703125 555.574219 455.585938 556.785156 458.738281 C 556.785156 457.941406 556.859375 457.484375 556.773438 457.0625 C 556.265625 454.484375 555.835938 451.878906 555.175781 449.339844 C 552.941406 440.769531 548.300781 433.941406 540.453125 429.546875 C 534.695312 426.324219 528.429688 424.742188 521.90625 424.179688 C 512.925781 423.402344 504.0625 424.296875 495.300781 426.300781 C 485.335938 428.585938 475.882812 432.160156 467.214844 437.65625 C 454.117188 445.964844 444.3125 457.296875 436.859375 470.789062 C 436.335938 471.742188 435.648438 472.609375 435.039062 473.519531 C 435.066406 473.679688 435.105469 473.839844 435.15625 473.996094 C 435.1875 474.078125 435.292969 474.136719 435.363281 474.203125 Z M 380.613281 507.109375 C 380.378906 506.75 380.117188 506.410156 379.824219 506.097656 C 374.589844 501.5625 370.628906 495.921875 366.316406 490.585938 C 360.261719 483.09375 353.617188 476.207031 345.851562 470.460938 C 331.414062 459.785156 315.652344 452.214844 297.65625 449.855469 C 289.925781 448.84375 282.234375 448.875 274.753906 451.269531 C 263.082031 455.007812 255.082031 462.675781 250.859375 474.226562 C 250.457031 475.320312 250.300781 476.332031 250.804688 477.476562 C 252.539062 481.429688 253.90625 485.574219 255.933594 489.367188 C 259.59375 496.238281 263.90625 502.671875 268.863281 508.671875 C 273.824219 514.671875 279.335938 520.117188 285.394531 525.003906 C 291.238281 529.742188 297.203125 534.359375 301.769531 540.453125 C 302.257812 541.101562 302.726562 541.308594 303.316406 540.574219 C 303.667969 540.136719 304.058594 539.722656 304.429688 539.300781 C 311.253906 531.566406 319.261719 525.425781 328.859375 521.554688 C 333.902344 519.519531 339.023438 517.636719 344.207031 515.988281 C 353.433594 513.054688 362.777344 510.527344 372.324219 508.820312 C 374.539062 508.425781 376.777344 508.148438 378.996094 507.769531 C 379.5 507.679688 379.964844 507.382812 380.613281 507.109375 Z M 518.484375 449.21875 C 510.703125 449.199219 500.691406 450.945312 492.234375 453.941406 C 473.023438 460.746094 456.804688 471.914062 443.582031 487.445312 C 438.234375 493.75 433.664062 500.726562 427.371094 506.214844 C 427.136719 506.417969 426.910156 507.050781 427 507.128906 C 427.339844 507.449219 427.742188 507.65625 428.199219 507.753906 C 431.164062 508.234375 434.171875 508.5 437.101562 509.140625 C 449.777344 511.914062 462.304688 515.242188 474.453125 519.855469 C 482.6875 522.988281 490.359375 527.117188 496.824219 533.21875 C 499.144531 535.410156 501.316406 537.765625 503.535156 540.066406 C 504.773438 541.351562 504.753906 541.371094 505.832031 540.097656 C 506.863281 538.878906 507.777344 537.53125 508.945312 536.457031 C 512.683594 533.023438 516.386719 529.539062 520.332031 526.351562 C 529.238281 519.152344 537.148438 511.042969 543.769531 501.683594 C 549.058594 494.203125 553.59375 486.335938 556.46875 477.574219 C 556.867188 476.492188 556.875 475.410156 556.488281 474.324219 C 554.046875 467.144531 549.6875 461.398438 543.675781 456.855469 C 536.21875 451.21875 527.601562 449.386719 518.484375 449.21875 Z M 519.066406 625.046875 C 518.519531 618.011719 517.613281 611.019531 516.347656 604.074219 C 513.921875 590.925781 509.039062 578.796875 501.242188 567.957031 C 487.019531 548.1875 468.40625 534.027344 445.667969 525.335938 C 439.589844 522.964844 433.300781 521.453125 426.808594 520.800781 C 422.617188 520.40625 422.613281 520.503906 421.796875 524.566406 C 421.574219 525.671875 421.277344 526.761719 421.101562 527.875 C 421.0625 528.109375 421.386719 528.628906 421.570312 528.640625 C 426.117188 528.933594 429.316406 531.863281 432.617188 534.4375 C 441.464844 541.332031 448.667969 549.722656 454.492188 559.289062 C 460.910156 569.820312 464.972656 581.136719 465.542969 593.539062 C 465.804688 599.269531 465.867188 605.007812 465.929688 610.746094 C 465.957031 615.667969 466.707031 620.480469 468.179688 625.179688 C 470.574219 632.703125 474.832031 638.832031 481.921875 642.695312 C 487.976562 645.996094 494.140625 646.269531 500.21875 642.894531 C 503.089844 641.289062 505.820312 639.460938 508.402344 637.421875 C 511.574219 634.925781 514.453125 632.058594 517.585938 629.503906 C 518.648438 628.632812 519.230469 627.804688 519.074219 626.457031 C 519.046875 625.984375 519.042969 625.515625 519.066406 625.046875 Z M 288.367188 623.546875 C 288.316406 624.484375 288.304688 625.429688 288.210938 626.363281 C 288.070312 627.699219 288.535156 628.617188 289.652344 629.453125 C 291.222656 630.632812 292.59375 632.078125 294.074219 633.382812 C 298.101562 636.929688 302.195312 640.378906 306.984375 642.898438 C 313.132812 646.136719 319.226562 646.003906 325.308594 642.742188 C 327.433594 641.601562 329.371094 640.203125 331.117188 638.539062 C 332.867188 636.875 334.363281 635.007812 335.605469 632.941406 C 339.449219 626.683594 341.003906 619.765625 341.277344 612.527344 C 341.519531 606.042969 341.503906 599.546875 341.792969 593.066406 C 342.078125 587.015625 343.21875 581.132812 345.21875 575.414062 C 349.902344 561.917969 357.691406 550.421875 367.816406 540.441406 C 371.375 536.9375 375.160156 533.6875 379.417969 531.0625 C 381.023438 530.097656 382.726562 529.347656 384.527344 528.8125 C 386.222656 528.292969 386.269531 528.464844 385.902344 526.578125 C 385.832031 526.210938 385.808594 525.832031 385.734375 525.460938 C 384.703125 520.269531 384.703125 520.269531 379.445312 520.855469 C 379.261719 520.878906 379.074219 520.894531 378.886719 520.925781 C 372.640625 521.875 366.5625 523.46875 360.65625 525.710938 C 340.726562 533.375 324.125 545.691406 310.523438 562.03125 C 306.027344 567.382812 302.21875 573.1875 299.097656 579.441406 C 295.976562 585.695312 293.625 592.226562 292.050781 599.035156 C 290.191406 607.109375 288.964844 615.28125 288.367188 623.546875 Z M 471.976562 695.855469 C 474.980469 698.269531 477.558594 701.03125 478.859375 704.71875 C 479.632812 706.921875 480.105469 709.234375 480.75 711.484375 C 480.839844 711.800781 481.121094 712.0625 481.3125 712.351562 C 481.492188 712.082031 481.785156 711.832031 481.835938 711.539062 C 482.582031 707.414062 481.746094 703.515625 480.09375 699.742188 C 477.804688 694.515625 473.707031 691.007812 469.023438 688.050781 C 468.152344 687.496094 467.484375 687.574219 466.976562 688.578125 C 465.75 691.011719 464.453125 693.40625 463.238281 695.84375 C 462.667969 696.988281 462.820312 697.324219 464.101562 697.574219 C 469.808594 698.671875 473.984375 701.925781 477.148438 706.65625 C 477.40625 707.039062 477.78125 707.34375 478.425781 708.023438 C 477.542969 702.882812 474.578125 699.480469 471.976562 695.855469 Z M 329.246094 707.878906 C 329.789062 707.125 330.324219 706.363281 330.878906 705.617188 C 333.898438 701.550781 337.746094 698.722656 342.777344 697.660156 C 343.050781 697.601562 343.335938 697.570312 343.605469 697.492188 C 344.230469 697.308594 344.621094 696.953125 344.269531 696.265625 C 342.949219 693.671875 341.605469 691.089844 340.273438 688.503906 C 339.746094 687.480469 339.019531 687.515625 338.203125 688.113281 C 336.460938 689.390625 334.613281 690.550781 333.011719 691.984375 C 327.769531 696.683594 325.058594 702.558594 325.238281 709.667969 C 325.25 710.328125 325.324219 710.980469 325.464844 711.625 C 325.535156 711.957031 325.824219 712.238281 326.015625 712.542969 C 326.183594 712.277344 326.4375 712.035156 326.503906 711.746094 C 326.761719 710.652344 326.917969 709.53125 327.183594 708.4375 C 328.511719 702.898438 331.597656 698.527344 336.109375 695.117188 C 333.121094 698.953125 329.796875 702.585938 329.246094 707.878906 Z M 329.246094 707.878906 " fill-opacity="1" fill-rule="nonzero"/></g><path fill="#a78e55" d="M 367.8125 478.394531 C 366.949219 477.601562 365.972656 476.902344 365.246094 476.003906 C 360.613281 470.28125 355.585938 464.960938 349.828125 460.351562 C 342.097656 454.164062 334.019531 448.523438 324.972656 444.386719 C 323.109375 443.535156 321.160156 442.871094 318.675781 441.890625 C 321.269531 442.015625 323.117188 442.636719 324.9375 443.351562 C 329.671875 445.253906 334.121094 447.675781 338.289062 450.613281 C 343.078125 453.929688 347.761719 457.410156 352.355469 460.992188 C 358.191406 465.542969 362.863281 471.207031 367.136719 477.203125 C 367.378906 477.601562 367.582031 478.015625 367.75 478.445312 Z M 367.8125 478.394531 " fill-opacity="1" fill-rule="nonzero"/><path fill="#a78e55" d="M 367.75 478.445312 C 367.839844 478.46875 367.976562 478.460938 368.015625 478.515625 C 368.320312 478.96875 368.605469 479.433594 368.894531 479.894531 C 368.8125 479.917969 368.667969 479.980469 368.660156 479.960938 C 368.367188 479.445312 368.089844 478.921875 367.808594 478.394531 C 367.8125 478.394531 367.75 478.445312 367.75 478.445312 Z M 367.75 478.445312 " fill-opacity="1" fill-rule="nonzero"/><path fill="#a78e55" d="M 275.644531 429.875 L 276.25 429.546875 L 276.308594 429.785156 C 276.074219 429.796875 275.839844 429.808594 275.601562 429.816406 C 275.601562 429.816406 275.644531 429.875 275.644531 429.875 Z M 275.644531 429.875 " fill-opacity="1" fill-rule="nonzero"/><path fill="#a78e55" d="M 277.972656 429.222656 L 277.753906 429.15625 C 277.835938 429.074219 277.921875 429.007812 278.019531 428.949219 C 278.042969 428.9375 278.128906 429.050781 278.1875 429.105469 Z M 277.972656 429.222656 " fill-opacity="1" fill-rule="nonzero"/><path fill="#a78e55" d="M 487.855469 442.082031 C 481.296875 444.257812 475.40625 447.738281 469.65625 451.460938 C 463.816406 455.246094 458.121094 459.277344 453.152344 464.15625 C 448.316406 468.902344 443.824219 474.007812 439.105469 478.894531 C 441.765625 474.847656 444.609375 470.90625 448.011719 467.460938 C 457.410156 457.96875 468.097656 450.257812 480.070312 444.328125 C 482.503906 443.109375 485.0625 442.238281 487.855469 442.082031 Z M 487.855469 442.082031 " fill-opacity="1" fill-rule="nonzero"/><path fill="#a78e55" d="M 530.773438 429.097656 C 530.609375 429.074219 530.441406 429.0625 530.273438 429.058594 C 530.046875 429.066406 529.816406 429.097656 529.589844 429.121094 C 529.71875 429.082031 529.847656 429.050781 529.980469 429.035156 C 530.066406 429.03125 530.15625 429.113281 530.242188 429.113281 C 530.417969 429.105469 530.589844 429.089844 530.761719 429.066406 C 530.765625 429.066406 530.773438 429.097656 530.773438 429.097656 Z M 530.773438 429.097656 " fill-opacity="1" fill-rule="nonzero"/><path fill="#a78e55" d="M 453.4375 611.0625 C 454.390625 614.484375 455.296875 617.921875 456.300781 621.332031 C 457.894531 626.746094 459.816406 632.03125 462.765625 636.886719 C 464.992188 640.558594 467.769531 643.675781 471.46875 645.9375 C 473.339844 647.054688 475.070312 648.355469 476.660156 649.84375 C 476.1875 649.71875 475.726562 649.566406 475.277344 649.386719 C 474.515625 649.027344 473.800781 648.566406 473.035156 648.210938 C 466.746094 645.285156 462.640625 640.339844 459.890625 634.113281 C 456.726562 626.949219 454.625 619.46875 453.136719 611.804688 C 453.125 611.617188 453.136719 611.429688 453.175781 611.246094 Z M 453.4375 611.0625 " fill-opacity="1" fill-rule="nonzero"/><path fill="#a78e55" d="M 460.996094 644.300781 C 461.570312 644.171875 462.085938 644.210938 462.453125 644.765625 C 463.078125 645.703125 463.683594 646.65625 464.351562 647.558594 C 468.042969 652.519531 472.882812 655.632812 479.015625 656.691406 C 483.242188 657.417969 487.222656 656.46875 491.097656 654.914062 C 493.183594 654.078125 495.199219 653.070312 497.898438 651.84375 C 497.109375 652.578125 496.824219 652.945312 496.453125 653.175781 C 492.339844 655.765625 487.910156 657.582031 483.023438 657.722656 C 474.9375 657.953125 468.492188 654.652344 463.730469 648.105469 C 462.8125 646.84375 461.910156 645.570312 461 644.300781 Z M 460.996094 644.300781 " fill-opacity="1" fill-rule="nonzero"/><path fill="#a78e55" d="M 432.988281 549.226562 C 432.953125 549.429688 432.917969 549.632812 432.882812 549.835938 C 432.902344 549.628906 432.925781 549.417969 432.949219 549.210938 Z M 432.988281 549.226562 " fill-opacity="1" fill-rule="nonzero"/><path fill="#a78e55" d="M 461 644.300781 C 461.085938 644.03125 461.167969 643.757812 461.253906 643.488281 C 461.292969 643.546875 461.382812 643.625 461.367188 643.652344 C 461.257812 643.875 461.125 644.085938 460.996094 644.300781 Z M 461 644.300781 " fill-opacity="1" fill-rule="nonzero"/><path fill="#a78e55" d="M 354.210938 611.601562 C 353.820312 613.414062 353.457031 615.234375 353.035156 617.042969 C 351.511719 623.660156 349.308594 630.042969 346.417969 636.1875 C 343.234375 642.902344 337.683594 646.828125 331.195312 649.757812 C 331.027344 649.835938 330.753906 649.683594 330.53125 649.636719 C 330.632812 649.484375 330.699219 649.273438 330.839844 649.183594 C 331.859375 648.511719 332.863281 647.808594 333.929688 647.21875 C 340.796875 643.441406 344.933594 637.410156 347.851562 630.382812 C 350.125 624.902344 351.738281 619.207031 353.160156 613.457031 C 353.316406 612.824219 353.53125 612.210938 353.714844 611.585938 Z M 354.210938 611.601562 " fill-opacity="1" fill-rule="nonzero"/><path fill="#a78e55" d="M 310.1875 652.351562 C 311.300781 652.820312 312.398438 653.324219 313.53125 653.742188 C 315.980469 654.652344 318.382812 655.804688 320.914062 656.347656 C 329.683594 658.222656 336.695312 655.027344 342.3125 648.359375 C 343.511719 646.933594 344.460938 645.296875 345.527344 643.761719 L 345.457031 643.6875 C 345.9375 644.617188 345.320312 645.296875 344.917969 646.023438 C 339.734375 655.402344 328.117188 660.816406 316.304688 655.914062 C 314.492188 655.164062 312.765625 654.199219 311.03125 653.273438 C 310.691406 653.089844 310.503906 652.621094 310.246094 652.285156 Z M 310.1875 652.351562 " fill-opacity="1" fill-rule="nonzero"/><path fill="#a78e55" d="M 345.527344 643.761719 C 345.625 643.621094 345.730469 643.484375 345.84375 643.355469 C 345.960938 643.242188 346.085938 643.136719 346.21875 643.035156 C 346.195312 643.25 346.246094 643.558594 346.128906 643.648438 C 345.984375 643.761719 345.695312 643.695312 345.464844 643.695312 C 345.457031 643.6875 345.527344 643.761719 345.527344 643.761719 Z M 345.527344 643.761719 " fill-opacity="1" fill-rule="nonzero"/><path fill="#a78e55" d="M 310.25 652.285156 C 310.078125 652.304688 309.867188 652.394531 309.753906 652.320312 C 309.59375 652.179688 309.464844 652.015625 309.363281 651.828125 C 309.535156 651.855469 309.703125 651.90625 309.863281 651.976562 C 309.988281 652.085938 310.097656 652.210938 310.1875 652.355469 Z M 310.25 652.285156 " fill-opacity="1" fill-rule="nonzero"/><path fill="#a78e55" d="M 374.996094 548.945312 C 374.925781 549.125 374.855469 549.308594 374.78125 549.492188 C 374.757812 549.429688 374.691406 549.324219 374.710938 549.308594 C 374.824219 549.203125 374.945312 549.105469 375.066406 549.015625 C 375.066406 549.011719 374.996094 548.945312 374.996094 548.945312 Z M 374.996094 548.945312 " fill-opacity="1" fill-rule="nonzero"/><path fill="#a78e55" d="M 436.957031 673.035156 C 437.21875 673.46875 437.601562 673.871094 437.726562 674.339844 C 439.855469 682.214844 441.921875 690.117188 445.453125 697.519531 C 446.863281 700.476562 448.414062 703.378906 450.101562 706.1875 C 453.050781 711.097656 457.105469 714.714844 462.761719 716.273438 C 463.03125 716.359375 463.285156 716.46875 463.53125 716.609375 C 463.691406 716.699219 463.847656 716.800781 463.996094 716.914062 C 461.695312 717.082031 458.058594 715.902344 455.664062 714.214844 C 453.40625 712.625 451.605469 710.601562 450.054688 708.339844 C 446.203125 702.726562 443.484375 696.546875 441.242188 690.160156 C 439.265625 684.578125 437.835938 678.855469 436.957031 672.996094 Z M 436.957031 673.035156 " fill-opacity="1" fill-rule="nonzero"/><path fill="#a78e55" d="M 435.296875 659.433594 C 433.257812 651.066406 431.433594 642.65625 432.890625 633.941406 C 432.886719 642.515625 434.449219 650.925781 435.296875 659.433594 Z M 435.296875 659.433594 " fill-opacity="1" fill-rule="nonzero"/><path fill="#a78e55" d="M 418.339844 554.238281 C 416.820312 554.050781 417.621094 553.230469 417.882812 552.554688 L 417.878906 552.558594 C 418.035156 553.121094 418.1875 553.683594 418.339844 554.246094 Z M 418.339844 554.238281 " fill-opacity="1" fill-rule="nonzero"/><path fill="#a78e55" d="M 418.339844 554.246094 C 418.328125 554.511719 418.332031 554.773438 418.296875 555.035156 C 418.285156 555.121094 418.175781 555.191406 418.109375 555.273438 C 418.089844 555.183594 418.085938 555.097656 418.09375 555.007812 C 418.164062 554.75 418.257812 554.496094 418.339844 554.242188 C 418.339844 554.238281 418.339844 554.246094 418.339844 554.246094 Z M 418.339844 554.246094 " fill-opacity="1" fill-rule="nonzero"/><path fill="#a78e55" d="M 436.957031 672.996094 C 436.992188 672.878906 437.027344 672.761719 437.0625 672.644531 C 437.027344 672.769531 436.996094 672.894531 436.960938 673.027344 C 436.957031 673.035156 436.957031 672.996094 436.957031 672.996094 Z M 436.957031 672.996094 " fill-opacity="1" fill-rule="nonzero"/><path fill="#a78e55" d="M 370.117188 672.488281 C 368.460938 684.601562 364.824219 695.878906 358.621094 706.25 C 357.074219 708.84375 355.257812 711.230469 352.9375 713.207031 C 350.375 715.390625 347.28125 716.671875 343.410156 716.859375 C 344.292969 716.480469 345.152344 716.039062 346.0625 715.738281 C 350.246094 714.34375 353.386719 711.613281 355.914062 708.101562 C 359.335938 703.339844 361.835938 698.089844 363.941406 692.640625 C 366.273438 686.488281 368.160156 680.195312 369.597656 673.773438 C 369.738281 673.332031 369.910156 672.902344 370.117188 672.488281 Z M 370.117188 672.488281 " fill-opacity="1" fill-rule="nonzero"/><path fill="#a78e55" d="M 371.878906 659.859375 L 374.710938 633.554688 C 375.6875 642.867188 374.15625 651.429688 371.878906 659.859375 Z M 371.878906 659.859375 " fill-opacity="1" fill-rule="nonzero"/><path fill="#a78e55" d="M 388.960938 554.828125 C 388.957031 554.996094 388.953125 555.160156 388.949219 555.324219 C 388.941406 555.464844 388.933594 555.605469 388.929688 555.746094 C 388.902344 555.691406 388.886719 555.632812 388.882812 555.574219 C 388.898438 555.492188 388.964844 555.414062 388.964844 555.332031 C 388.964844 555.167969 388.953125 555.003906 388.933594 554.839844 C 388.933594 554.835938 388.960938 554.828125 388.960938 554.828125 Z M 388.960938 554.828125 " fill-opacity="1" fill-rule="nonzero"/><path fill="#a78e55" d="M 518.082031 578.261719 C 517.082031 578.125 517.167969 577.199219 516.925781 576.574219 C 513.144531 566.757812 507.945312 557.761719 501.324219 549.589844 C 497.148438 544.449219 492.464844 539.863281 487.066406 536.015625 C 485.503906 534.957031 484.097656 533.722656 482.851562 532.304688 C 483.234375 532.488281 483.632812 532.640625 483.996094 532.855469 C 491.398438 537.164062 497.808594 542.578125 502.929688 549.5 C 509.125 557.859375 514.046875 566.914062 517.691406 576.660156 C 517.847656 577.199219 517.960938 577.75 518.027344 578.3125 Z M 518.082031 578.261719 " fill-opacity="1" fill-rule="nonzero"/><path fill="#a78e55" d="M 507.285156 565.902344 C 506.941406 565.648438 506.488281 565.46875 506.269531 565.132812 C 501.699219 558.183594 496.128906 552.105469 490.105469 546.414062 C 489.574219 545.960938 489.21875 545.394531 489.035156 544.71875 C 489.417969 545.011719 489.824219 545.273438 490.175781 545.597656 C 495.867188 550.8125 501.246094 556.304688 505.550781 562.757812 C 506.214844 563.753906 506.675781 564.882812 507.230469 565.953125 Z M 507.285156 565.902344 " fill-opacity="1" fill-rule="nonzero"/><path fill="#a78e55" d="M 485.476562 541.480469 L 487.691406 543.417969 L 487.425781 543.753906 L 485.136719 541.871094 Z M 485.476562 541.480469 " fill-opacity="1" fill-rule="nonzero"/><path fill="#a78e55" d="M 519.328125 581.507812 C 517.847656 580.835938 517.972656 579.546875 518.078125 578.261719 L 518.027344 578.3125 C 518.453125 579.382812 518.875 580.460938 519.289062 581.546875 C 519.277344 581.5625 519.328125 581.507812 519.328125 581.507812 Z M 519.328125 581.507812 " fill-opacity="1" fill-rule="nonzero"/><path fill="#a78e55" d="M 508.992188 568.734375 C 507.953125 568.074219 507.203125 567.242188 507.285156 565.902344 L 507.230469 565.949219 C 507.796875 566.898438 508.359375 567.84375 508.925781 568.792969 Z M 508.992188 568.734375 " fill-opacity="1" fill-rule="nonzero"/><path fill="#a78e55" d="M 519.378906 583.773438 C 520.585938 583.839844 519.964844 584.953125 520.351562 585.496094 C 520.359375 585.480469 520.367188 585.460938 520.375 585.445312 L 519.421875 583.722656 Z M 519.378906 583.773438 " fill-opacity="1" fill-rule="nonzero"/><path fill="#a78e55" d="M 519.421875 583.722656 C 519.382812 582.988281 519.347656 582.257812 519.316406 581.515625 C 519.328125 581.507812 519.277344 581.5625 519.289062 581.550781 C 519.328125 582.277344 519.359375 583.019531 519.386719 583.765625 C 519.378906 583.773438 519.421875 583.722656 519.421875 583.722656 Z M 519.421875 583.722656 " fill-opacity="1" fill-rule="nonzero"/><path fill="#a78e55" d="M 521.015625 587.003906 C 520.492188 586.621094 520.160156 586.15625 520.371094 585.457031 C 520.378906 585.445312 520.34375 585.511719 520.351562 585.496094 C 520.589844 585.996094 520.816406 586.503906 521.042969 587.015625 Z M 521.015625 587.003906 " fill-opacity="1" fill-rule="nonzero"/><path fill="#a78e55" d="M 521.042969 587.015625 C 521.042969 587.265625 521.058594 587.515625 521.042969 587.761719 C 521.035156 587.847656 520.945312 587.929688 520.894531 588.015625 C 520.902344 587.929688 520.90625 587.839844 520.917969 587.757812 C 520.945312 587.507812 520.980469 587.257812 521.015625 587.007812 Z M 521.042969 587.015625 " fill-opacity="1" fill-rule="nonzero"/><path fill="#a78e55" d="M 508.925781 568.792969 L 509.296875 569.261719 L 509.089844 569.367188 C 509.054688 569.15625 509.023438 568.945312 508.992188 568.734375 Z M 508.925781 568.792969 " fill-opacity="1" fill-rule="nonzero"/><path fill="#a78e55" d="M 510.425781 572.035156 L 510.671875 572.207031 L 510.6875 571.972656 L 510.375 572.019531 Z M 510.425781 572.035156 " fill-opacity="1" fill-rule="nonzero"/><path fill="#a78e55" d="M 470.390625 530.105469 L 470.230469 530.40625 L 470.6875 530.359375 L 470.390625 530.097656 Z M 470.390625 530.105469 " fill-opacity="1" fill-rule="nonzero"/><path fill="#a78e55" d="M 470.390625 530.097656 C 469.730469 530.140625 469.070312 530.179688 468.398438 530.226562 C 468.386719 530.246094 468.375 530.261719 468.367188 530.28125 C 469.035156 530.226562 469.710938 530.167969 470.386719 530.105469 C 470.390625 530.105469 470.390625 530.097656 470.390625 530.097656 Z M 470.390625 530.097656 " fill-opacity="1" fill-rule="nonzero"/><path fill="#a78e55" d="M 510.375 572.019531 L 510.367188 571.5625 C 510.386719 571.71875 510.410156 571.875 510.429688 572.035156 C 510.410156 572.03125 510.394531 572.027344 510.375 572.019531 Z M 510.375 572.019531 " fill-opacity="1" fill-rule="nonzero"/><path fill="#a78e55" d="M 324.226562 532.667969 C 323.488281 533.355469 322.816406 534.136719 322 534.714844 C 305.765625 546.152344 295.554688 561.925781 289.054688 580.378906 C 288.5 581.957031 287.933594 583.53125 287.035156 585.011719 C 287.441406 583.507812 287.777344 581.976562 288.273438 580.503906 C 292.652344 567.554688 298.960938 555.679688 307.878906 545.234375 C 312.222656 540.148438 317.589844 536.390625 323.214844 532.933594 C 323.507812 532.753906 323.929688 532.792969 324.289062 532.726562 Z M 324.226562 532.667969 " fill-opacity="1" fill-rule="nonzero"/><path fill="#a78e55" d="M 299.414062 567.117188 C 300.347656 565.417969 301.152344 563.628906 302.238281 562.035156 C 305.949219 556.601562 310.476562 551.875 315.234375 547.363281 C 315.523438 547.085938 316.03125 547.042969 316.433594 546.890625 L 316.371094 546.828125 C 316.058594 547.28125 315.71875 547.710938 315.355469 548.117188 C 309.796875 553.691406 304.558594 559.523438 300.34375 566.210938 C 300.121094 566.566406 299.695312 566.789062 299.359375 567.070312 Z M 299.414062 567.117188 " fill-opacity="1" fill-rule="nonzero"/><path fill="#a78e55" d="M 317.457031 545.636719 C 318.46875 544.574219 319.480469 543.507812 320.945312 541.964844 C 319.875 544.152344 319.332031 544.652344 317.394531 545.574219 Z M 317.457031 545.636719 " fill-opacity="1" fill-rule="nonzero"/><path fill="#a78e55" d="M 299.359375 567.070312 C 299.207031 568.292969 298.859375 569.359375 297.382812 569.511719 L 297.375 569.527344 C 298.054688 568.726562 298.734375 567.921875 299.414062 567.117188 Z M 299.359375 567.070312 " fill-opacity="1" fill-rule="nonzero"/><path fill="#a78e55" d="M 317.394531 545.574219 C 317.535156 546.390625 317.03125 546.675781 316.367188 546.828125 L 316.433594 546.886719 C 316.21875 546.019531 316.804688 545.804688 317.457031 545.640625 Z M 317.394531 545.574219 " fill-opacity="1" fill-rule="nonzero"/><path fill="#a78e55" d="M 324.289062 532.730469 C 324.324219 532.570312 324.3125 532.339844 324.410156 532.273438 C 324.625 532.160156 324.847656 532.078125 325.082031 532.027344 C 324.992188 532.234375 324.871094 532.425781 324.726562 532.597656 C 324.621094 532.6875 324.398438 532.648438 324.226562 532.664062 Z M 324.289062 532.730469 " fill-opacity="1" fill-rule="nonzero"/><path fill="#a78e55" d="M 286.136719 587.59375 C 286.214844 587.570312 286.3125 587.566406 286.367188 587.515625 C 286.503906 587.382812 286.621094 587.226562 286.746094 587.078125 C 286.757812 587.15625 286.796875 587.292969 286.773438 587.308594 C 286.582031 587.414062 286.375 587.492188 286.175781 587.582031 Z M 286.136719 587.59375 " fill-opacity="1" fill-rule="nonzero"/><path fill="#a78e55" d="M 286.175781 587.582031 C 286.167969 587.738281 286.152344 587.898438 286.152344 588.058594 C 286.152344 588.195312 286.167969 588.335938 286.175781 588.472656 C 286.160156 588.417969 286.121094 588.359375 286.128906 588.308594 C 286.144531 588.226562 286.21875 588.152344 286.214844 588.070312 C 286.203125 587.910156 286.175781 587.75 286.140625 587.59375 C 286.152344 587.589844 286.160156 587.585938 286.175781 587.582031 Z M 286.175781 587.582031 " fill-opacity="1" fill-rule="nonzero"/><path fill="#a78e55" d="M 338.421875 529.890625 C 338.824219 529.15625 339.371094 529.394531 339.933594 529.6875 C 339.941406 529.699219 339.921875 529.664062 339.933594 529.675781 C 339.414062 529.730469 338.882812 529.773438 338.347656 529.816406 Z M 338.421875 529.890625 " fill-opacity="1" fill-rule="nonzero"/><path fill="#a78e55" d="M 297.382812 569.511719 C 297.460938 569.667969 297.519531 569.832031 297.550781 570.007812 C 297.558594 570.105469 297.425781 570.210938 297.359375 570.316406 C 297.367188 570.226562 297.386719 570.140625 297.390625 570.054688 C 297.394531 569.886719 297.390625 569.71875 297.382812 569.542969 C 297.378906 569.53125 297.378906 569.519531 297.382812 569.511719 Z M 297.382812 569.511719 " fill-opacity="1" fill-rule="nonzero"/><path fill="#a78e55" d="M 338.347656 529.816406 L 338.132812 530.238281 L 337.921875 529.988281 L 338.417969 529.890625 Z M 338.347656 529.816406 " fill-opacity="1" fill-rule="nonzero"/><path fill="#a78e55" d="M 416.59375 521.859375 C 416.519531 521.5 416.425781 521.144531 416.371094 520.78125 C 416.363281 520.597656 416.375 520.414062 416.40625 520.234375 C 416.519531 520.394531 416.601562 520.570312 416.652344 520.761719 C 416.65625 521.128906 416.640625 521.492188 416.601562 521.851562 Z M 416.59375 521.859375 " fill-opacity="1" fill-rule="nonzero"/><path fill="#a78e55" d="M 397.460938 529.046875 L 397.296875 528.96875 L 397.523438 528.871094 Z M 397.460938 529.046875 " fill-opacity="1" fill-rule="nonzero"/><path fill="#a78e55" d="M 410.730469 504.316406 L 410.992188 504.785156 C 410.925781 504.609375 410.855469 504.433594 410.792969 504.253906 Z M 410.730469 504.316406 " fill-opacity="1" fill-rule="nonzero"/><path fill="#a78e55" d="M 396.242188 504.066406 L 396.171875 504.4375 L 396.375 504.417969 C 396.3125 504.308594 396.25 504.203125 396.183594 504.09375 C 396.179688 504.09375 396.242188 504.066406 396.242188 504.066406 Z M 396.242188 504.066406 " fill-opacity="1" fill-rule="nonzero"/><path fill="#a78e55" d="M 518.550781 557.476562 C 517.945312 557.886719 517.335938 558.292969 516.730469 558.699219 Z M 518.550781 557.476562 " fill-opacity="1" fill-rule="nonzero"/><g fill="#a78e55" fill-opacity="1"><g transform="translate(377.645639, 304.625039)"><g><path d="M 24.890625 20.390625 C 58.878906 3.234375 88.050781 -19.988281 112.40625 -49.28125 L 114.828125 -47.21875 C 89.015625 -15.976562 57.5 8.414062 20.28125 25.96875 L -1.328125 51.828125 C -19.535156 72.546875 -34.347656 85.535156 -45.765625 90.796875 C -52.796875 93.953125 -60.925781 95.53125 -70.15625 95.53125 C -75.25 95.53125 -78.929688 93.789062 -81.203125 90.3125 C -82.742188 87.96875 -82.785156 85.113281 -81.328125 81.75 C -79.867188 78.394531 -77.863281 75.335938 -75.3125 72.578125 C -72.757812 69.828125 -69.335938 66.875 -65.046875 63.71875 C -60.765625 60.570312 -55.425781 57.175781 -49.03125 53.53125 C -35.925781 46.082031 -18.285156 37.664062 3.890625 28.28125 L 52.8125 -32.53125 L 51.828125 -33.015625 C 37.023438 -16.179688 23.753906 -5.703125 12.015625 -1.578125 C 8.535156 -0.359375 5.539062 0.25 3.03125 0.25 C -6.757812 0.25 -11.816406 -5.050781 -12.140625 -15.65625 C -12.140625 -28.195312 -7.320312 -40.09375 2.3125 -51.34375 C 19.707031 -72.539062 38.644531 -83.140625 59.125 -83.140625 C 64.457031 -83.140625 68.660156 -82.253906 71.734375 -80.484375 C 76.753906 -77.648438 77.890625 -72.832031 75.140625 -66.03125 L 86.546875 -80.71875 C 88.890625 -80.070312 91.035156 -79.75 92.984375 -79.75 C 97.679688 -79.75 101.082031 -79.910156 103.1875 -80.234375 Z M 73.203125 -72.109375 C 73.035156 -76.960938 69.394531 -79.390625 62.28125 -79.390625 C 54.664062 -79.390625 43.820312 -72.753906 29.75 -59.484375 C 24.96875 -54.867188 19.828125 -49.117188 14.328125 -42.234375 C 3.242188 -28.484375 -2.21875 -17.640625 -2.0625 -9.703125 C -1.894531 -7.359375 -1.363281 -5.722656 -0.46875 -4.796875 C 0.414062 -3.867188 1.925781 -3.40625 4.0625 -3.40625 C 6.207031 -3.40625 8.976562 -4.070312 12.375 -5.40625 C 15.78125 -6.738281 19.664062 -8.984375 24.03125 -12.140625 C 34.144531 -19.335938 44.828125 -29.492188 56.078125 -42.609375 L 65.546875 -54.140625 C 70.648438 -61.578125 73.203125 -67.566406 73.203125 -72.109375 Z M -0.359375 33.5 C -41.710938 51.625 -66.273438 65.945312 -74.046875 76.46875 C -76.796875 80.269531 -78.171875 83.910156 -78.171875 87.390625 C -78.171875 88.285156 -77.421875 89.316406 -75.921875 90.484375 C -74.421875 91.660156 -72.335938 92.25 -69.671875 92.25 C -67.003906 92.25 -64.332031 91.90625 -61.65625 91.21875 C -58.988281 90.53125 -56.195312 89.359375 -53.28125 87.703125 C -50.363281 86.046875 -47.207031 83.78125 -43.8125 80.90625 C -40.414062 78.03125 -36.59375 74.425781 -32.34375 70.09375 C -28.09375 65.769531 -23.335938 60.613281 -18.078125 54.625 Z M -0.359375 33.5 "/></g></g></g><g fill="#a78e55" fill-opacity="1"><g transform="translate(391.576009, 444.552532)"><g><path d="M -11.78125 -7.15625 C -11.78125 -4.488281 -9.835938 -3.15625 -5.953125 -3.15625 C -2.066406 -3.15625 2.078125 -4.1875 6.484375 -6.25 C 10.898438 -8.3125 15.269531 -10.921875 19.59375 -14.078125 C 23.925781 -17.234375 28.113281 -20.691406 32.15625 -24.453125 C 36.207031 -28.222656 39.894531 -31.804688 43.21875 -35.203125 L 51.59375 -44.1875 C 53.851562 -46.769531 55.390625 -48.46875 56.203125 -49.28125 L 58.625 -47.21875 C 57.738281 -46.332031 56.097656 -44.550781 53.703125 -41.875 C 51.316406 -39.207031 48.40625 -36.132812 44.96875 -32.65625 C 41.53125 -29.175781 37.6875 -25.492188 33.4375 -21.609375 C 29.1875 -17.722656 24.757812 -14.160156 20.15625 -10.921875 C 9.382812 -3.472656 -0.0390625 0.25 -8.125 0.25 C -11.53125 0.25 -14.34375 -0.679688 -16.5625 -2.546875 C -18.789062 -4.410156 -19.90625 -6.414062 -19.90625 -8.5625 C -19.90625 -10.707031 -19.800781 -12.425781 -19.59375 -13.71875 C -19.394531 -15.007812 -18.972656 -16.484375 -18.328125 -18.140625 C -17.679688 -19.804688 -16.75 -21.75 -15.53125 -23.96875 C -14.320312 -26.195312 -12.707031 -28.890625 -10.6875 -32.046875 L 7.890625 -59.484375 L 101.71875 -193.609375 C 107.539062 -192.796875 113.164062 -192.796875 118.59375 -193.609375 C 41.394531 -86.304688 1.421875 -30.609375 -1.328125 -26.515625 C -4.085938 -22.429688 -6.113281 -19.359375 -7.40625 -17.296875 C -8.695312 -15.234375 -9.664062 -13.554688 -10.3125 -12.265625 C -11.289062 -10.316406 -11.78125 -8.613281 -11.78125 -7.15625 Z M -11.78125 -7.15625 "/></g></g></g></svg>