<svg xmlns="http://www.w3.org/2000/svg" xmlns:xlink="http://www.w3.org/1999/xlink" width="500" zoomAndPan="magnify" viewBox="0 0 375 374.999991" height="500" preserveAspectRatio="xMidYMid meet" version="1.0"><defs><clipPath id="cdff1d306b"><path d="M 187.5 0 C 83.945312 0 0 83.945312 0 187.5 C 0 291.054688 83.945312 375 187.5 375 C 291.054688 375 375 291.054688 375 187.5 C 375 83.945312 291.054688 0 187.5 0 Z M 187.5 0 " clip-rule="nonzero"/></clipPath><clipPath id="3fe69989e7"><path d="M 0 0 L 374.988281 0 L 374.988281 374.988281 L 0 374.988281 Z M 0 0 " clip-rule="nonzero"/></clipPath><clipPath id="482d61b5e3"><path d="M 187.496094 0 C 83.945312 0 0 83.945312 0 187.496094 C 0 291.046875 83.945312 374.988281 187.496094 374.988281 C 291.046875 374.988281 374.988281 291.046875 374.988281 187.496094 C 374.988281 83.945312 291.046875 0 187.496094 0 Z M 187.496094 0 " clip-rule="nonzero"/></clipPath><clipPath id="d9f1cb3434"><path d="M 91.757812 59.375 L 283.316406 59.375 L 283.316406 316 L 91.757812 316 Z M 91.757812 59.375 " clip-rule="nonzero"/></clipPath></defs><g clip-path="url(#cdff1d306b)"><rect x="-37.5" width="450" fill="#ffffff" y="-37.499999" height="449.999989" fill-opacity="1"/></g><g clip-path="url(#3fe69989e7)"><g clip-path="url(#482d61b5e3)"><path stroke-linecap="butt" transform="matrix(1.596337, 0, 0, 1.596337, 0.0000045, -0.0000472891)" fill="none" stroke-linejoin="miter" d="M 117.453964 0.0000296235 C 52.586213 0.0000296235 -0.00000281895 52.586245 -0.00000281895 117.453997 C -0.00000281895 182.321749 52.586213 234.905517 117.453964 234.905517 C 182.321716 234.905517 234.905484 182.321749 234.905484 117.453997 C 234.905484 52.586245 182.321716 0.0000296235 117.453964 0.0000296235 Z M 117.453964 0.0000296235 " stroke="#d0d0d1" stroke-width="3.758605" stroke-opacity="1" stroke-miterlimit="4"/></g></g><g clip-path="url(#d9f1cb3434)"><path fill="#737373" d="M 282.957031 287.96875 C 282.835938 287.429688 282.957031 286.839844 282.867188 286.289062 C 282.769531 285.886719 282.632812 285.496094 282.453125 285.121094 C 282.394531 284.964844 282.320312 284.824219 282.269531 284.667969 C 282.269531 284.621094 282.269531 284.542969 282.269531 284.492188 C 281.867188 283.609375 281.820312 282.542969 281.476562 281.738281 C 281.046875 280.683594 280.933594 279.421875 280.28125 278.578125 C 279.746094 277.898438 280.0625 276.785156 279.195312 276.332031 C 279.105469 276.289062 279.195312 275.875 279.128906 275.65625 C 279.011719 275.246094 278.871094 274.847656 278.703125 274.460938 C 278.445312 273.859375 278.105469 273.261719 277.914062 272.664062 C 277.632812 271.832031 277.464844 270.960938 277.195312 270.128906 C 276.988281 269.476562 276.6875 268.863281 276.4375 268.226562 C 276.058594 267.296875 275.726562 266.34375 275.320312 265.429688 C 274.8125 264.28125 274.230469 263.167969 273.703125 262.03125 C 273.386719 261.34375 273.105469 260.628906 272.824219 259.925781 C 272.441406 259.03125 272.054688 258.132812 271.683594 257.242188 C 271.605469 257.0625 271.628906 256.839844 271.5625 256.644531 C 271.445312 256.347656 271.3125 256.054688 271.164062 255.769531 C 271.113281 255.675781 271 255.617188 270.976562 255.527344 C 270.726562 254.628906 270.515625 253.730469 270.234375 252.835938 C 270.105469 252.410156 269.90625 252.023438 269.636719 251.667969 C 268.921875 250.722656 268.871094 249.347656 267.914062 248.515625 C 267.503906 248.164062 267.363281 247.367188 267.15625 246.753906 C 266.738281 245.519531 266.359375 244.265625 265.960938 243.019531 C 265.746094 242.363281 265.535156 241.695312 265.277344 241.054688 C 265.101562 240.621094 264.890625 240.203125 264.644531 239.804688 C 264.207031 239.152344 263.96875 238.4375 263.925781 237.65625 C 263.925781 237.269531 263.527344 236.898438 263.328125 236.515625 C 262.953125 235.816406 262.582031 235.105469 262.214844 234.398438 C 262.160156 234.296875 262.132812 234.191406 262.132812 234.074219 C 262.167969 232.800781 261.46875 231.890625 260.9375 230.871094 C 260.640625 230.144531 260.386719 229.40625 260.171875 228.652344 C 259.945312 228.054688 259.675781 227.453125 259.410156 226.855469 C 259.023438 225.996094 258.640625 225.132812 258.214844 224.285156 C 257.648438 223.121094 257.050781 221.972656 256.453125 220.824219 C 256.425781 220.769531 256.410156 220.714844 256.402344 220.65625 C 256.320312 219.21875 255.421875 218.1875 254.933594 216.953125 C 254.371094 215.535156 253.226562 214.394531 252.730469 212.957031 C 252.34375 211.824219 251.566406 211.027344 251.199219 209.855469 C 250.722656 208.3125 249.757812 206.960938 249.007812 205.527344 C 248.957031 205.425781 248.863281 205.328125 248.855469 205.21875 C 248.710938 204.148438 248.3125 203.183594 247.660156 202.320312 C 247.390625 201.773438 247.148438 201.214844 246.9375 200.644531 C 246.769531 200.316406 246.5 200.046875 246.339844 199.726562 C 245.882812 198.886719 245.5 197.996094 245.011719 197.1875 C 244.109375 195.683594 243.117188 194.242188 242.21875 192.726562 C 241.808594 191.949219 241.441406 191.152344 241.117188 190.335938 C 241.082031 190.195312 241.035156 190.0625 240.976562 189.929688 C 240.375 188.996094 239.652344 188.136719 239.078125 187.140625 C 238.707031 186.425781 238.386719 185.691406 238.109375 184.9375 C 238.042969 184.78125 237.992188 184.613281 237.914062 184.464844 C 237.316406 183.398438 236.789062 182.324219 236.191406 181.277344 C 235.4375 179.953125 234.636719 178.675781 233.875 177.359375 C 233.546875 176.789062 233.332031 176.164062 232.972656 175.617188 C 232.375 174.699219 231.640625 173.824219 230.976562 172.964844 C 230.414062 172.203125 229.828125 171.460938 229.3125 170.667969 C 228.300781 169.125 227.328125 167.550781 225.851562 166.480469 C 225.46875 166.085938 225.148438 165.652344 224.882812 165.171875 C 223.429688 163.308594 221.804688 161.613281 220.007812 160.082031 C 219.105469 159.203125 218.285156 158.253906 217.542969 157.234375 C 217.425781 157.003906 217.378906 156.753906 217.402344 156.492188 C 217.3125 153.765625 217.273438 151.039062 217.144531 148.3125 C 217.078125 146.8125 216.832031 145.324219 216.726562 143.816406 C 216.652344 143.082031 216.765625 142.378906 217.058594 141.703125 C 217.421875 140.714844 217.652344 139.699219 217.746094 138.648438 C 217.726562 138.277344 217.652344 137.914062 217.527344 137.5625 C 217.4375 137.230469 217.40625 136.894531 217.429688 136.554688 C 217.566406 135.730469 217.964844 134.910156 217.914062 134.117188 C 217.835938 132.921875 218.449219 132.082031 218.8125 131.125 C 218.941406 130.90625 219.046875 130.671875 219.125 130.425781 C 219.378906 128.699219 219.621094 126.964844 219.847656 125.234375 C 219.972656 123.511719 220.203125 121.800781 220.535156 120.105469 C 221.519531 116.078125 221.859375 112 221.5625 107.867188 C 221.449219 106.019531 221.234375 104.183594 220.910156 102.363281 C 220.667969 101.429688 220.351562 100.519531 219.960938 99.640625 C 219.886719 99.429688 219.914062 99.175781 219.847656 98.957031 C 219.691406 98.457031 219.511719 97.964844 219.339844 97.46875 C 219.308594 97.390625 219.253906 97.324219 219.230469 97.25 C 218.757812 95.605469 218.304688 93.953125 217.800781 92.320312 C 217.65625 91.839844 217.445312 91.386719 217.167969 90.96875 C 216.605469 90.023438 216.394531 89.003906 216.535156 87.914062 C 216.648438 85.246094 216.640625 82.574219 216.726562 79.90625 C 216.789062 79.40625 216.898438 78.917969 217.054688 78.441406 C 217.125 78.15625 217.167969 77.867188 217.191406 77.574219 C 217.246094 75.941406 217.226562 74.308594 217.347656 72.6875 C 217.425781 71.492188 217.730469 70.378906 217.835938 69.214844 C 217.945312 68.046875 217.898438 66.820312 217.980469 65.660156 C 218.054688 64.882812 218.175781 64.109375 218.34375 63.347656 C 218.480469 62.890625 218.507812 62.429688 218.429688 61.960938 C 218.351562 61.496094 218.171875 61.070312 217.890625 60.683594 C 217.722656 60.527344 217.523438 60.441406 217.292969 60.429688 C 216.605469 60.355469 215.898438 60.542969 215.289062 59.914062 C 214.992188 59.601562 214.601562 59.703125 214.308594 60.214844 C 213.898438 60.871094 213.632812 61.585938 213.519531 62.355469 C 213.273438 63.449219 212.925781 64.511719 212.480469 65.542969 C 212.441406 65.648438 212.414062 65.761719 212.382812 65.875 C 212.113281 66.628906 211.929688 67.40625 211.839844 68.203125 C 211.804688 69.460938 211.511719 70.65625 210.964844 71.789062 C 210.492188 72.835938 210.78125 74.136719 209.960938 74.984375 C 209.945312 75.007812 209.933594 75.035156 209.929688 75.0625 C 209.675781 76.191406 209.410156 77.316406 209.152344 78.441406 C 209.117188 78.609375 209.152344 78.859375 209.050781 78.9375 C 208.453125 79.488281 208.609375 80.269531 208.519531 80.980469 C 208.433594 81.347656 208.3125 81.699219 208.15625 82.039062 C 208.15625 82.089844 208.066406 82.136719 208.066406 82.179688 C 208.144531 83.296875 207.335938 84.117188 207.277344 85.167969 C 207.210938 85.722656 207.003906 86.214844 206.652344 86.644531 C 206.300781 87.078125 205.859375 87.382812 205.332031 87.558594 C 204.476562 87.894531 203.664062 88.3125 202.894531 88.816406 C 202.464844 89.058594 202.050781 89.324219 201.648438 89.613281 C 200.5625 90.269531 199.679688 91.132812 198.992188 92.199219 C 198.59375 92.925781 197.859375 93.398438 197.324219 94.042969 C 196.660156 94.851562 196.082031 95.746094 195.398438 96.535156 C 194.863281 97.132812 194.203125 97.636719 193.605469 98.246094 C 193.054688 98.800781 192.582031 99.414062 192.183594 100.082031 C 191.292969 101.75 190.160156 103.113281 188.398438 103.300781 C 187.308594 103.414062 186.160156 103.46875 185.082031 102.703125 C 183.878906 101.835938 182.988281 100.71875 182.417969 99.347656 C 181.8125 98.183594 181.085938 97.097656 180.246094 96.089844 C 179.648438 95.335938 178.964844 94.710938 178.351562 94 C 178.019531 93.679688 177.769531 93.304688 177.609375 92.871094 C 177.214844 91.417969 176.121094 90.953125 175.089844 90.335938 C 174.152344 89.777344 173.242188 89.140625 172.320312 88.542969 C 172.25 88.5 172.207031 88.398438 172.144531 88.375 C 171.296875 88.007812 170.425781 87.703125 169.535156 87.457031 C 168.214844 87.191406 167.574219 86.371094 167.335938 84.871094 C 167.078125 83.8125 166.726562 82.789062 166.289062 81.796875 C 166.257812 81.71875 166.179688 81.65625 166.167969 81.574219 C 165.929688 80.378906 165.71875 79.183594 165.46875 77.957031 C 165.363281 77.582031 165.230469 77.214844 165.066406 76.863281 C 165.019531 76.734375 164.890625 76.632812 164.875 76.507812 C 164.824219 75.746094 164.644531 75.015625 164.339844 74.3125 C 164.007812 73.550781 164.027344 72.519531 163.621094 71.695312 C 163.398438 71.234375 163.664062 70.535156 163.054688 70.183594 C 162.921875 70.105469 162.976562 69.625 162.949219 69.332031 C 162.902344 68.667969 163.011719 67.964844 162.4375 67.453125 C 162.304688 67.335938 162.351562 66.957031 162.316406 66.703125 C 162.246094 66.179688 162.496094 65.503906 161.804688 65.277344 C 161.71875 65.277344 161.726562 64.902344 161.695312 64.679688 C 161.601562 64.117188 161.921875 63.382812 161.152344 63.109375 C 161.089844 63.109375 161.054688 62.828125 161.074219 62.695312 C 161.148438 61.742188 160.914062 60.871094 160.375 60.082031 C 160.015625 59.429688 159.601562 59.699219 159.175781 59.9375 C 158.84375 60.125 158.492188 60.261719 158.117188 60.351562 C 157.742188 60.441406 157.132812 60.277344 157 60.507812 C 156.664062 61.167969 156.417969 61.859375 156.265625 62.585938 C 156.207031 62.914062 156.234375 63.238281 156.347656 63.550781 C 157.023438 65.46875 156.71875 67.480469 156.855469 69.445312 C 156.90625 70.175781 157.113281 70.886719 157.226562 71.609375 C 157.324219 72.15625 157.390625 72.707031 157.425781 73.261719 C 157.46875 74.328125 157.425781 75.402344 157.492188 76.46875 C 157.574219 77.035156 157.699219 77.59375 157.863281 78.140625 C 157.949219 78.484375 158.007812 78.828125 158.03125 79.183594 C 158.066406 81.347656 158.078125 83.511719 158.113281 85.675781 C 158.074219 86.242188 158.121094 86.800781 158.257812 87.351562 C 158.65625 88.546875 158.15625 89.648438 158.015625 90.773438 C 157.96875 91.195312 157.609375 91.566406 157.417969 91.96875 C 157.085938 92.714844 156.769531 93.476562 156.4375 94.226562 C 156.402344 94.304688 156.332031 94.371094 156.3125 94.449219 C 156.050781 95.476562 155.804688 96.507812 155.542969 97.535156 C 155.453125 97.886719 155.34375 98.242188 155.238281 98.59375 C 155.128906 98.945312 155.027344 99.3125 154.914062 99.664062 C 154.800781 100.015625 154.652344 100.410156 154.550781 100.792969 C 154.398438 101.394531 154.28125 101.992188 154.136719 102.589844 C 153.945312 103.1875 153.796875 103.800781 153.683594 104.417969 C 153.597656 105.179688 153.683594 105.960938 153.632812 106.734375 C 153.585938 107.503906 153.394531 108.347656 153.335938 109.160156 C 153.253906 110.074219 153.234375 110.984375 153.273438 111.898438 C 153.363281 113.371094 153.519531 114.835938 153.695312 116.300781 C 153.757812 116.839844 153.96875 117.355469 154.089844 117.886719 C 154.214844 118.246094 154.277344 118.617188 154.273438 119 C 154.015625 121.140625 154.625 123.183594 155.058594 125.175781 C 155.300781 126.3125 155.289062 127.566406 155.691406 128.566406 C 156.132812 129.679688 155.914062 130.90625 156.289062 131.875 C 156.886719 133.417969 156.683594 134.988281 156.921875 136.53125 C 157.011719 137.785156 157.210938 139.023438 157.519531 140.238281 C 158.597656 143.367188 157.777344 146.566406 158.015625 149.71875 C 157.226562 152.058594 157.472656 154.503906 157.371094 156.925781 C 157.265625 157.394531 157.035156 157.792969 156.679688 158.121094 C 155.875 159.042969 155.035156 159.914062 154.195312 160.804688 C 152.648438 162.433594 151.070312 164.023438 149.539062 165.667969 C 148.347656 166.863281 147.25 168.132812 146.242188 169.484375 C 145.089844 171.144531 143.675781 172.59375 142.882812 174.570312 C 142.535156 175.265625 142.117188 175.914062 141.632812 176.523438 C 140.894531 177.585938 140.117188 178.621094 139.390625 179.691406 C 138.867188 180.449219 138.359375 181.226562 137.898438 182.042969 C 136.980469 183.6875 136.140625 185.390625 135.191406 187.015625 C 134.59375 188.082031 133.792969 189.03125 133.132812 190.074219 C 132.78125 190.621094 132.535156 191.269531 132.238281 191.867188 C 131.746094 192.777344 131.214844 193.660156 130.734375 194.5625 C 130.289062 195.253906 129.941406 195.988281 129.6875 196.769531 C 129.394531 198.085938 128.453125 198.90625 127.972656 200.058594 C 127.703125 200.695312 127.375 201.296875 127.058594 201.90625 C 126.460938 203.042969 125.902344 204.167969 125.339844 205.304688 C 125.078125 205.84375 124.871094 206.421875 124.613281 206.960938 C 124.015625 208.1875 123.417969 209.390625 122.847656 210.613281 C 122.53125 211.277344 122.25 211.976562 121.976562 212.640625 C 121.855469 212.90625 121.621094 213.109375 121.507812 213.371094 C 120.796875 214.980469 120.113281 216.605469 119.402344 218.214844 C 119.210938 218.644531 118.929688 219.023438 118.738281 219.453125 C 118.140625 220.851562 117.496094 222.257812 116.910156 223.6875 C 116.449219 224.8125 116.113281 226.007812 115.605469 227.101562 C 114.671875 229.105469 113.625 231.042969 112.6875 233.046875 C 112.324219 233.824219 112.148438 234.707031 111.839844 235.523438 C 111.382812 236.71875 110.882812 237.847656 110.410156 239.015625 C 109.878906 240.316406 109.378906 241.632812 108.824219 242.917969 C 108.382812 243.953125 107.851562 244.941406 107.390625 245.964844 C 106.96875 246.882812 106.546875 247.8125 106.191406 248.773438 C 105.914062 249.574219 105.773438 250.441406 105.523438 251.257812 C 105.445312 251.496094 105.183594 251.652344 105.027344 251.855469 C 104.28125 252.9375 104.046875 254.246094 103.578125 255.484375 C 103.246094 256.34375 103.296875 257.410156 102.574219 258.144531 C 102.203125 258.523438 102.132812 259.261719 101.910156 259.835938 C 101.691406 260.410156 101.511719 260.890625 101.3125 261.40625 C 100.894531 262.398438 100.433594 263.367188 100.039062 264.394531 C 99.734375 265.171875 99.53125 266.003906 99.226562 266.785156 C 98.921875 267.570312 98.628906 268.148438 98.304688 268.824219 C 98.210938 268.972656 98.148438 269.128906 98.113281 269.296875 C 98.023438 270.632812 97.382812 271.691406 96.917969 272.855469 C 96.570312 273.683594 96.414062 274.601562 96.105469 275.453125 C 95.6875 276.59375 95.195312 277.699219 94.742188 278.832031 C 94.628906 279.117188 94.53125 279.429688 94.425781 279.703125 C 94.054688 280.757812 93.664062 281.804688 93.316406 282.867188 C 92.972656 283.933594 92.625 285.03125 92.332031 286.125 C 92.070312 286.945312 91.894531 287.78125 91.804688 288.636719 C 91.746094 289.835938 91.847656 289.875 92.742188 289.835938 C 93.472656 290.703125 94.070312 291.425781 94.664062 292.15625 C 94.753906 292.28125 94.828125 292.421875 94.882812 292.566406 C 94.96875 292.753906 95 293.023438 95.125 293.117188 C 95.574219 293.535156 96.089844 293.84375 96.667969 294.050781 C 97.296875 294.140625 97.894531 294.039062 98.460938 293.75 C 99.292969 293.351562 99.957031 293.609375 100.183594 294.589844 C 100.273438 295.101562 100.421875 295.59375 100.632812 296.070312 C 100.828125 296.289062 101.074219 296.386719 101.367188 296.359375 C 101.523438 296.359375 101.707031 296.078125 101.816406 295.878906 C 101.863281 295.703125 101.863281 295.53125 101.816406 295.355469 C 101.738281 294.757812 101.757812 294.15625 102.574219 293.914062 C 102.726562 294.335938 102.925781 294.734375 103.171875 295.109375 C 103.5 295.402344 103.863281 295.644531 104.253906 295.839844 C 104.699219 296.503906 105.195312 297.128906 105.746094 297.710938 C 106.152344 297.96875 106.578125 298.003906 107.023438 297.8125 C 107.925781 297.429688 109.003906 297.214844 109.363281 295.941406 C 109.363281 295.820312 109.589844 295.773438 109.699219 295.675781 C 110.015625 295.457031 110.300781 295.203125 110.546875 294.90625 C 111.078125 294.082031 111.402344 294.042969 111.957031 294.820312 C 112.226562 295.199219 112.554688 295.527344 112.785156 295.921875 C 113.015625 296.25 113.160156 296.613281 113.214844 297.011719 C 113.214844 297.828125 113.128906 298.65625 114.210938 298.605469 C 114.265625 298.605469 114.363281 298.773438 114.375 298.875 C 114.371094 299.144531 114.449219 299.390625 114.601562 299.609375 C 114.757812 299.828125 114.964844 299.984375 115.21875 300.074219 C 115.53125 300.183594 115.859375 300.238281 116.191406 300.238281 C 116.402344 300.59375 116.058594 301.4375 116.953125 301.394531 C 117.957031 301.394531 117.316406 300.429688 117.675781 300.199219 C 118.421875 299.863281 119.121094 299.453125 119.773438 298.964844 C 120.109375 298.667969 120.371094 298.457031 120.761719 298.5 C 120.847656 298.515625 120.921875 298.492188 120.988281 298.433594 C 121.492188 297.6875 121.9375 297.800781 122.5625 298.355469 C 123.121094 298.75 123.519531 299.273438 123.757812 299.917969 C 123.925781 300.449219 124.480469 300.820312 124.828125 301.292969 C 124.957031 301.53125 125.0625 301.777344 125.144531 302.035156 C 125.445312 302.691406 125.742188 303.355469 126.066406 303.996094 C 126.425781 304.507812 126.742188 305.050781 127.011719 305.617188 C 127.09375 305.960938 127.261719 306.257812 127.511719 306.507812 C 127.761719 306.753906 128.058594 306.921875 128.402344 307.003906 C 129.222656 307.148438 130.199219 307.503906 130.863281 306.488281 C 130.902344 306.453125 130.949219 306.433594 131.003906 306.433594 C 131.992188 306.359375 132.648438 305.640625 133.335938 304.964844 C 133.441406 304.882812 133.558594 304.84375 133.691406 304.851562 C 134.167969 304.898438 134.429688 304.738281 134.609375 304.15625 C 134.78125 303.714844 135.101562 303.464844 135.570312 303.402344 C 136.039062 303.339844 136.414062 303.5 136.691406 303.882812 C 136.925781 304.214844 137.222656 304.488281 137.570312 304.699219 C 138.414062 305.144531 138.636719 306.128906 139.179688 306.816406 C 139.585938 307.199219 140.050781 307.488281 140.574219 307.683594 L 141.703125 308.917969 L 142.398438 307.925781 L 143.085938 309.191406 C 144.417969 309.492188 144.597656 309.371094 144.71875 307.996094 C 145.023438 308.335938 145.351562 308.652344 145.699219 308.953125 C 145.898438 309.066406 146.097656 309.066406 146.296875 308.953125 C 147.132812 308.433594 147.253906 308.613281 148.042969 309.328125 C 149.117188 310.304688 149.957031 311.648438 151.390625 312.121094 C 152.179688 312.386719 152.898438 312.984375 153.695312 313.199219 C 154.390625 313.324219 155.085938 313.324219 155.78125 313.199219 C 156.316406 313.113281 156.839844 312.972656 157.347656 312.78125 C 157.796875 312.628906 158.222656 312.355469 158.675781 312.25 C 159.492188 312.070312 160.316406 311.933594 161.144531 311.839844 C 161.269531 311.839844 161.511719 312.058594 161.550781 312.21875 C 161.691406 312.808594 161.796875 313.410156 161.867188 314.011719 C 161.945312 314.609375 162.210938 314.855469 162.722656 314.765625 C 163.238281 314.675781 163.921875 315.015625 164.363281 314.246094 C 164.445312 314.089844 164.851562 314.144531 165.117188 314.136719 C 166.082031 314.164062 166.921875 313.851562 167.632812 313.199219 C 168.679688 312.195312 169.726562 311.191406 170.804688 310.207031 C 170.96875 310.058594 171.402344 309.964844 171.484375 310.070312 C 172.125 310.871094 172.96875 310.488281 173.710938 310.667969 C 173.8125 310.667969 173.9375 310.640625 174.027344 310.667969 C 174.964844 311.210938 175.980469 311.484375 177.0625 311.484375 C 177.242188 311.484375 177.496094 311.882812 177.632812 312.152344 C 177.777344 312.511719 178.042969 312.714844 178.429688 312.757812 C 178.816406 312.804688 179.117188 312.667969 179.34375 312.351562 C 179.457031 312.195312 179.714844 312.03125 179.851562 312.074219 C 180.75 312.351562 181.304688 311.8125 181.835938 311.140625 C 182.003906 310.953125 182.191406 310.789062 182.394531 310.640625 C 182.699219 311.1875 182.964844 311.753906 183.183594 312.34375 C 183.320312 312.839844 183.234375 313.402344 183.324219 313.917969 C 183.339844 314.425781 183.484375 314.894531 183.75 315.328125 C 183.847656 315.417969 183.960938 315.480469 184.089844 315.511719 C 184.21875 315.546875 184.347656 315.550781 184.476562 315.523438 C 184.605469 315.496094 184.722656 315.4375 184.824219 315.355469 C 184.929688 315.269531 185.007812 315.167969 185.058594 315.046875 C 185.125 314.945312 185.359375 314.992188 185.503906 314.9375 C 185.914062 314.789062 186.308594 314.585938 186.726562 314.480469 C 187.085938 314.378906 187.445312 314.355469 187.8125 314.414062 C 188.335938 314.621094 188.875 314.785156 189.425781 314.902344 C 191.21875 314.96875 193.011719 314.902344 194.808594 314.945312 C 195.484375 314.945312 196.238281 315.394531 196.804688 315.160156 C 197.929688 314.710938 199.238281 315.5 200.253906 314.304688 C 200.757812 313.871094 201.34375 313.609375 202 313.523438 C 202.988281 313.269531 203.984375 313.070312 204.992188 312.925781 C 205.628906 312.824219 206.269531 312.789062 206.910156 312.808594 C 207.46875 312.808594 207.789062 312.660156 207.890625 311.980469 C 207.980469 311.410156 208.824219 311.0625 209.089844 311.507812 C 209.5625 312.273438 210.199219 311.96875 210.785156 312.105469 C 211.292969 312.175781 211.769531 312.332031 212.214844 312.578125 C 212.363281 312.6875 212.523438 312.761719 212.703125 312.796875 C 212.882812 312.835938 213.058594 312.835938 213.238281 312.792969 C 213.414062 312.75 213.574219 312.671875 213.71875 312.5625 C 213.863281 312.449219 213.976562 312.308594 214.058594 312.144531 C 214.226562 311.90625 214.40625 311.679688 214.601562 311.464844 L 215.492188 312.707031 L 216.957031 310.527344 C 218.152344 310.878906 219.015625 310.09375 219.691406 308.839844 C 219.757812 308.707031 219.917969 308.636719 220.042969 308.558594 C 220.414062 308.304688 220.8125 308.105469 221.238281 307.960938 C 221.667969 307.878906 222.085938 307.914062 222.496094 308.0625 C 223.519531 308.425781 224.152344 309.441406 225 310.09375 C 225.339844 310.429688 225.738281 310.652344 226.199219 310.765625 C 227.078125 310.792969 227.824219 311.125 228.433594 311.761719 C 228.476562 311.804688 228.542969 311.867188 228.566406 311.851562 C 229.566406 311.164062 230.707031 312.617188 231.730469 311.542969 C 232.125 311.125 232.792969 311.070312 233.273438 310.722656 C 234.074219 310.167969 234.828125 309.550781 235.527344 308.871094 C 236.167969 308.230469 236.691406 307.441406 237.277344 306.726562 C 237.605469 306.414062 237.90625 306.078125 238.183594 305.71875 C 238.421875 305.214844 238.621094 304.691406 238.78125 304.15625 C 239.582031 304.335938 240.363281 304.574219 241.125 304.875 C 241.511719 305.058594 241.722656 305.640625 242.085938 305.964844 C 242.277344 306.136719 242.683594 306.316406 242.816406 306.207031 C 243.449219 305.675781 244.011719 306.066406 244.570312 306.292969 C 244.964844 306.449219 245.371094 306.507812 245.792969 306.464844 C 246.035156 306.433594 246.242188 306.105469 246.570312 305.824219 C 246.699219 306.023438 246.914062 306.320312 247.105469 306.644531 C 247.375 307.097656 247.863281 307.164062 247.964844 306.753906 C 248.175781 305.933594 248.980469 305.652344 249.132812 304.957031 C 249.347656 303.964844 250.292969 304.359375 250.601562 303.648438 C 251.199219 304.660156 252.105469 304.394531 252.863281 304.371094 C 253.460938 304.371094 254.234375 304.515625 254.617188 303.671875 C 255.996094 303.9375 256.253906 302.394531 257.074219 301.746094 C 257.289062 301.617188 257.519531 301.585938 257.761719 301.652344 C 258.035156 301.703125 258.289062 301.910156 258.5625 301.980469 C 259.113281 302.128906 259.511719 301.925781 259.550781 301.226562 C 259.523438 300.808594 259.605469 300.414062 259.796875 300.039062 C 259.988281 299.667969 260.257812 299.367188 260.613281 299.144531 C 260.824219 299.019531 260.9375 298.679688 261.105469 298.433594 C 261.859375 297.332031 262.898438 297.765625 263.746094 298.019531 C 264.066406 298.132812 264.390625 298.144531 264.714844 298.058594 C 265.042969 297.972656 265.316406 297.800781 265.542969 297.546875 C 265.808594 297.226562 266.144531 297.109375 266.550781 297.191406 C 267.097656 297.191406 267.683594 297.320312 267.875 296.453125 C 268.257812 296.679688 268.628906 296.933594 268.980469 297.207031 C 269.21875 297.414062 269.488281 297.574219 269.78125 297.691406 C 270.078125 297.804688 270.382812 297.871094 270.699219 297.882812 C 271.015625 297.894531 271.324219 297.851562 271.625 297.757812 C 271.929688 297.664062 272.207031 297.523438 272.460938 297.332031 C 272.644531 297.175781 272.855469 297.074219 273.09375 297.027344 C 273.949219 296.902344 274.632812 296.679688 274.746094 295.460938 C 274.898438 294.847656 275.140625 294.273438 275.472656 293.738281 C 276.265625 293.871094 277.226562 294.335938 278.011719 294.085938 C 278.792969 293.835938 279.859375 293.875 280.367188 292.800781 C 280.773438 291.933594 281.832031 291.480469 281.597656 290.175781 L 282 289.964844 C 282.191406 289.894531 282.367188 289.789062 282.519531 289.648438 C 282.671875 289.511719 282.792969 289.347656 282.882812 289.160156 C 282.972656 288.976562 283.023438 288.777344 283.035156 288.570312 C 283.046875 288.367188 283.019531 288.164062 282.957031 287.96875 Z M 162.15625 85.886719 C 161.902344 85.765625 161.761719 85.566406 161.726562 85.289062 C 161.726562 83.128906 161.726562 80.96875 161.726562 78.996094 C 162.324219 81.226562 162.96875 83.601562 163.632812 86.046875 C 163.128906 86.03125 162.632812 85.976562 162.136719 85.886719 Z M 212.933594 84.152344 C 212.933594 85.730469 212.542969 86.121094 211.015625 86 C 211.613281 83.988281 212.148438 82.039062 212.707031 80.089844 L 212.933594 80.167969 C 212.914062 81.496094 212.921875 82.824219 212.914062 84.152344 Z M 212.933594 84.152344 " fill-opacity="1" fill-rule="nonzero"/></g></svg>