<svg xmlns="http://www.w3.org/2000/svg" xmlns:xlink="http://www.w3.org/1999/xlink" width="500" zoomAndPan="magnify" viewBox="0 0 375 374.999991" height="500" preserveAspectRatio="xMidYMid meet" version="1.0"><defs><clipPath id="c452122f3c"><path d="M 187.5 0 C 83.945312 0 0 83.945312 0 187.5 C 0 291.054688 83.945312 375 187.5 375 C 291.054688 375 375 291.054688 375 187.5 C 375 83.945312 291.054688 0 187.5 0 Z M 187.5 0 " clip-rule="nonzero"/></clipPath><clipPath id="5b6bb1f13f"><path d="M 0 0 L 374.988281 0 L 374.988281 374.988281 L 0 374.988281 Z M 0 0 " clip-rule="nonzero"/></clipPath><clipPath id="c3c81e3298"><path d="M 187.496094 0 C 83.945312 0 0 83.945312 0 187.496094 C 0 291.046875 83.945312 374.988281 187.496094 374.988281 C 291.046875 374.988281 374.988281 291.046875 374.988281 187.496094 C 374.988281 83.945312 291.046875 0 187.496094 0 Z M 187.496094 0 " clip-rule="nonzero"/></clipPath><clipPath id="b5ee0f38bb"><path d="M 50.816406 106 L 185 106 L 185 289 L 50.816406 289 Z M 50.816406 106 " clip-rule="nonzero"/></clipPath><clipPath id="4777534247"><path d="M 190 106 L 323.789062 106 L 323.789062 289 L 190 289 Z M 190 106 " clip-rule="nonzero"/></clipPath><clipPath id="0e2d387ee0"><path d="M 165 86.355469 L 188 86.355469 L 188 107 L 165 107 Z M 165 86.355469 " clip-rule="nonzero"/></clipPath><clipPath id="301b5c7dd7"><path d="M 189 86.355469 L 212 86.355469 L 212 107 L 189 107 Z M 189 86.355469 " clip-rule="nonzero"/></clipPath></defs><g clip-path="url(#c452122f3c)"><rect x="-37.5" width="450" fill="#ffffff" y="-37.499999" height="449.999989" fill-opacity="1"/></g><g clip-path="url(#5b6bb1f13f)"><g clip-path="url(#c3c81e3298)"><path stroke-linecap="butt" transform="matrix(1.596337, 0, 0, 1.596337, 0.0000045, 0.000000951491)" fill="none" stroke-linejoin="miter" d="M 117.453964 -0.000000596047 C 52.586213 -0.000000596047 -0.00000281895 52.586215 -0.00000281895 117.453967 C -0.00000281895 182.321718 52.586213 234.905487 117.453964 234.905487 C 182.321716 234.905487 234.905484 182.321718 234.905484 117.453967 C 234.905484 52.586215 182.321716 -0.000000596047 117.453964 -0.000000596047 Z M 117.453964 -0.000000596047 " stroke="#d0d0d1" stroke-width="3.758605" stroke-opacity="1" stroke-miterlimit="4"/></g></g><g clip-path="url(#b5ee0f38bb)"><path fill="#737373" d="M 160.609375 106.804688 C 167.972656 117.570312 177.980469 136.472656 182.710938 145.945312 C 186.445312 153.425781 183.160156 218.179688 181.8125 281.148438 C 175.992188 283.40625 140.929688 283.484375 129.246094 282.484375 C 125.421875 253.363281 130.203125 219.324219 126.242188 192.667969 C 114.980469 213.625 85.996094 271.210938 70.640625 288.628906 C 66.339844 285.777344 52.574219 272.378906 50.878906 267.632812 C 57.808594 246.824219 121.039062 107.804688 126.714844 107.804688 L 160.609375 106.804688 " fill-opacity="1" fill-rule="nonzero"/></g><path fill="#ffffff" d="M 166.726562 148.464844 C 170.796875 148.285156 176.34375 148.953125 178.527344 149.285156 C 175.816406 152.792969 172.730469 156.046875 169.933594 160.136719 C 170.878906 180.617188 180.988281 211.460938 180.988281 255.027344 C 178.746094 218.910156 167.066406 163.164062 167.015625 160.386719 C 170.722656 155.460938 171.847656 154.074219 175.0625 150.621094 C 172.4375 150.28125 161.414062 150.441406 158.789062 150.535156 C 157.371094 145.03125 152.800781 114.980469 151.4375 109.582031 C 151.4375 109.582031 164.878906 144.65625 166.726562 148.464844 " fill-opacity="1" fill-rule="nonzero"/><path fill="#ffffff" d="M 52.738281 267.546875 C 54.992188 272.488281 68.527344 285.257812 70.703125 286.320312 C 68.488281 283.988281 58.351562 273.109375 54.71875 263.621094 C 53.921875 264.816406 53.175781 266.878906 52.738281 267.546875 " fill-opacity="1" fill-rule="nonzero"/><g clip-path="url(#4777534247)"><path fill="#737373" d="M 214.359375 106.804688 C 206.996094 117.570312 196.988281 136.472656 192.253906 145.945312 C 188.523438 153.425781 191.808594 218.179688 193.15625 281.148438 C 198.976562 283.40625 234.039062 283.484375 245.722656 282.484375 C 249.546875 253.363281 244.761719 219.324219 248.726562 192.667969 C 259.988281 213.625 288.96875 271.210938 304.328125 288.628906 C 308.628906 285.777344 322.394531 272.378906 324.089844 267.632812 C 317.160156 246.824219 253.929688 107.804688 248.253906 107.804688 L 214.359375 106.804688 " fill-opacity="1" fill-rule="nonzero"/></g><path fill="#ffffff" d="M 208.242188 148.464844 C 204.171875 148.285156 198.625 148.953125 196.4375 149.285156 C 199.152344 152.792969 202.238281 156.046875 205.035156 160.136719 C 204.089844 180.617188 193.980469 211.460938 193.980469 255.027344 C 196.222656 218.910156 207.902344 163.164062 207.953125 160.386719 C 204.242188 155.460938 203.121094 154.074219 199.902344 150.621094 C 202.527344 150.28125 213.554688 150.441406 216.179688 150.535156 C 217.597656 145.03125 222.167969 114.980469 223.53125 109.582031 C 223.53125 109.582031 210.089844 144.65625 208.242188 148.464844 " fill-opacity="1" fill-rule="nonzero"/><path fill="#ffffff" d="M 322.230469 267.546875 C 319.976562 272.488281 306.441406 285.257812 304.265625 286.320312 C 306.480469 283.988281 316.617188 273.109375 320.246094 263.621094 C 321.046875 264.816406 321.792969 266.878906 322.230469 267.546875 " fill-opacity="1" fill-rule="nonzero"/><path fill="#ffffff" d="M 238.53125 146.476562 C 238.269531 149.335938 236.628906 152.171875 235.875 154.769531 C 236.441406 154.902344 237.1875 155.113281 237.902344 154.949219 C 238.746094 156.796875 236.699219 160.320312 236.933594 162.210938 C 232.109375 163.394531 224.117188 163.582031 220.1875 162.664062 C 221.695312 162.757812 225.410156 155.21875 227.066406 153.925781 C 230.65625 151.109375 234.578125 148.738281 238.53125 146.476562 " fill-opacity="1" fill-rule="nonzero"/><g clip-path="url(#0e2d387ee0)"><path fill="#737373" d="M 187.636719 100.285156 C 187.636719 103.746094 170.324219 106.554688 170.324219 106.554688 C 167.503906 106.554688 165.214844 103.746094 165.214844 100.285156 L 165.214844 92.621094 C 165.214844 89.160156 167.503906 86.351562 170.324219 86.351562 C 170.324219 86.351562 187.636719 89.160156 187.636719 92.621094 L 187.636719 100.285156 " fill-opacity="1" fill-rule="nonzero"/></g><g clip-path="url(#301b5c7dd7)"><path fill="#737373" d="M 189.453125 100.285156 C 189.453125 103.746094 206.765625 106.554688 206.765625 106.554688 C 209.585938 106.554688 211.875 103.746094 211.875 100.285156 L 211.875 92.621094 C 211.875 89.160156 209.585938 86.351562 206.765625 86.351562 C 206.765625 86.351562 189.453125 89.160156 189.453125 92.621094 L 189.453125 100.285156 " fill-opacity="1" fill-rule="nonzero"/></g><path fill="#ffffff" d="M 187.90625 96.757812 C 187.9375 96.917969 175.195312 99.421875 175.195312 99.421875 C 173.117188 99.808594 171.40625 99.992188 171.375 99.832031 L 171.308594 99.472656 C 171.28125 99.3125 172.941406 98.867188 175.019531 98.480469 C 175.019531 98.480469 187.808594 96.238281 187.839844 96.398438 L 187.90625 96.757812 " fill-opacity="1" fill-rule="nonzero"/><path fill="#ffffff" d="M 189.246094 96.507812 C 189.277344 96.667969 202.066406 94.425781 202.066406 94.425781 C 204.148438 94.039062 205.808594 93.59375 205.78125 93.433594 L 205.714844 93.074219 C 205.683594 92.914062 203.972656 93.097656 201.894531 93.484375 C 201.894531 93.484375 189.152344 95.988281 189.183594 96.148438 L 189.246094 96.507812 " fill-opacity="1" fill-rule="nonzero"/><path fill="#ffffff" d="M 189.183594 96.757812 C 189.152344 96.917969 201.894531 99.421875 201.894531 99.421875 C 203.972656 99.808594 205.683594 99.992188 205.714844 99.832031 L 205.78125 99.472656 C 205.808594 99.3125 204.148438 98.867188 202.066406 98.480469 C 202.066406 98.480469 189.277344 96.238281 189.246094 96.398438 L 189.183594 96.757812 " fill-opacity="1" fill-rule="nonzero"/><path fill="#ffffff" d="M 187.839844 96.507812 C 187.808594 96.667969 175.019531 94.425781 175.019531 94.425781 C 172.941406 94.039062 171.28125 93.59375 171.308594 93.433594 L 171.375 93.074219 C 171.40625 92.914062 173.117188 93.097656 175.195312 93.484375 C 175.195312 93.484375 187.9375 95.988281 187.90625 96.148438 L 187.839844 96.507812 " fill-opacity="1" fill-rule="nonzero"/><path fill="#737373" d="M 192.769531 98.78125 C 192.769531 100.886719 191.90625 102.589844 190.84375 102.589844 L 186.246094 102.589844 C 185.183594 102.589844 184.320312 100.886719 184.320312 98.78125 L 184.320312 94.125 C 184.320312 92.019531 185.183594 90.3125 186.246094 90.3125 L 190.84375 90.3125 C 191.90625 90.3125 192.769531 92.019531 192.769531 94.125 L 192.769531 98.78125 " fill-opacity="1" fill-rule="nonzero"/></svg>