<?xml version="1.0" encoding="UTF-8" standalone="no"?>
<!-- Created with Inkscape (http://www.inkscape.org/) -->

<svg
   width="174.64198mm"
   height="304.01324mm"
   viewBox="0 0 174.64198 304.01324"
   version="1.1"
   id="svg1"
   xml:space="preserve"
   xmlns="http://www.w3.org/2000/svg"
   xmlns:svg="http://www.w3.org/2000/svg"><defs
     id="defs1" /><g
     id="layer1"
     transform="translate(-967.67678,68.878698)"><path
       style="font-variation-settings:normal;opacity:1;fill:#000000;fill-opacity:1;stroke-width:1;stroke-linecap:butt;stroke-linejoin:miter;stroke-miterlimit:4;stroke-dasharray:none;stroke-dashoffset:0;stroke-opacity:1;stop-color:#000000;stop-opacity:1"
       d="m 968.24168,207.34524 c 0.3107,-15.28411 0.82608,-76.53677 1.14528,-136.117009 l 0.58036,-108.327727 1.89762,-2.815907 c 2.82916,-4.198183 7.67482,-6.516301 14.88482,-7.120762 8.53694,-0.715705 16.20514,-4.423369 23.36214,-11.295932 l 5.6121,-5.388998 10.117,-2.240905 c 7.0014,-1.550807 14.0878,-2.395709 23.0112,-2.743591 13.792,-0.537689 19.3174,0.03275 36.6619,3.785007 l 10.4287,2.256126 5.1333,5.065815 c 7.1447,7.050833 12.2551,9.545151 23.6383,11.537459 10.4247,1.824541 12.9387,3.286097 15.6237,9.082966 1.3053,2.818266 1.467,15.823203 1.7111,137.612578 l 0.2696,134.50017 h -87.321 -87.32103 z"
       id="path2" /></g></svg>
