<svg xmlns="http://www.w3.org/2000/svg" xmlns:xlink="http://www.w3.org/1999/xlink" width="1080" zoomAndPan="magnify" viewBox="0 0 810 1439.999935" height="1920" preserveAspectRatio="xMidYMid meet" version="1.0"><path fill="#cbad9f" d="M 182.867188 763.921875 C 181.625 756.464844 179.136719 749.003906 173.335938 742.375 C 172.921875 742.375 172.921875 742.375 172.503906 742.375 C 176.648438 752.734375 180.378906 763.09375 182.867188 773.453125 C 183.28125 770.140625 183.28125 766.824219 182.867188 763.921875 Z M 182.867188 763.921875 " fill-opacity="1" fill-rule="evenodd"/><path fill="#cbad9f" d="M 393.390625 272.835938 C 380.128906 263.304688 360.238281 262.890625 344.488281 259.988281 C 334.542969 258.332031 324.597656 256.671875 314.652344 255.015625 C 276.109375 248.382812 236.742188 248.796875 197.371094 257.5 C 195.300781 257.917969 194.054688 259.988281 194.054688 262.058594 C 194.054688 289.828125 241.300781 294.800781 260.363281 299.359375 C 298.902344 308.0625 339.929688 313.449219 379.300781 311.789062 C 382.203125 311.789062 385.519531 311.375 388.417969 310.546875 C 375.984375 387.214844 368.113281 463.882812 348.21875 539.308594 C 328.328125 614.316406 300.148438 699.6875 244.199219 756.050781 C 209.390625 791.273438 201.515625 837.691406 191.984375 885.347656 C 183.28125 928.449219 174.578125 971.546875 165.875 1014.648438 C 165.460938 1016.304688 165.046875 1017.960938 165.046875 1019.621094 C 156.34375 1063.964844 148.054688 1108.304688 141.425781 1152.648438 C 141.425781 1153.890625 142.667969 1154.304688 143.082031 1153.0625 C 143.496094 1150.992188 143.910156 1148.917969 144.738281 1146.847656 C 144.738281 1147.675781 145.152344 1148.503906 145.984375 1148.917969 C 152.199219 1153.476562 159.246094 1155.550781 166.289062 1158.035156 C 170.847656 1159.695312 175.820312 1160.9375 179.964844 1163.839844 C 189.910156 1169.226562 191.15625 1174.199219 183.28125 1179.585938 C 181.625 1184.558594 178.722656 1186.21875 174.578125 1185.386719 C 167.117188 1187.460938 155.515625 1184.558594 147.640625 1184.144531 C 137.695312 1183.316406 127.75 1182.488281 118.214844 1181.660156 C 107.855469 1180.414062 97.496094 1179.171875 87.136719 1177.515625 C 80.089844 1176.269531 54.808594 1176.683594 65.171875 1161.765625 C 68.902344 1156.378906 84.648438 1153.0625 90.863281 1151.40625 C 99.566406 1148.917969 108.683594 1147.675781 117.800781 1146.433594 C 118.632812 1149.332031 123.191406 1149.332031 124.433594 1146.019531 C 130.648438 1129.027344 132.722656 1109.964844 136.453125 1092.144531 L 146.8125 1037.855469 C 148.054688 1032.050781 149.296875 1025.835938 150.128906 1020.035156 C 150.542969 1018.375 150.957031 1016.71875 150.957031 1015.0625 C 156.34375 987.296875 161.730469 959.945312 167.117188 932.175781 C 173.75 897.367188 180.792969 862.96875 186.597656 828.15625 C 189.910156 808.265625 188.667969 790.859375 184.523438 774.285156 C 184.523438 776.769531 184.523438 778.84375 184.523438 781.328125 C 184.523438 782.570312 184.109375 783.816406 184.109375 785.472656 C 184.109375 785.886719 184.109375 786.300781 184.523438 786.300781 C 184.109375 789.617188 184.109375 792.519531 183.695312 795.832031 C 184.109375 780.914062 182.453125 766.410156 176.648438 751.90625 C 175.40625 748.589844 174.164062 745.6875 172.921875 742.789062 C 173.335938 743.203125 174.164062 743.203125 174.578125 743.203125 C 166.703125 724.136719 156.757812 705.074219 148.46875 683.109375 C 126.503906 626.335938 138.9375 571.632812 150.128906 514.027344 C 165.875 431.972656 183.28125 349.503906 196.128906 267.03125 C 196.542969 263.304688 191.570312 261.644531 190.742188 265.375 C 167.53125 353.234375 151.785156 443.160156 134.378906 532.261719 C 126.917969 569.144531 119.875 606.027344 125.675781 643.328125 C 128.164062 659.902344 132.722656 675.652344 139.351562 690.570312 C 144.738281 708.390625 155.929688 724.554688 164.21875 741.128906 C 179.550781 770.96875 178.722656 803.707031 175.40625 836.445312 C 174.992188 837.691406 174.992188 838.933594 174.578125 840.589844 C 167.945312 874.574219 160.902344 908.554688 154.269531 942.539062 C 149.710938 966.574219 144.738281 990.609375 140.179688 1014.648438 C 139.765625 1016.304688 139.351562 1017.960938 139.351562 1019.621094 C 137.695312 1027.492188 136.453125 1034.953125 134.792969 1042.828125 C 128.578125 1075.152344 118.214844 1109.550781 116.558594 1142.703125 C 100.8125 1142.703125 85.0625 1146.019531 70.558594 1152.234375 C 64.34375 1154.722656 53.152344 1158.867188 52.324219 1167.152344 C 51.910156 1174.613281 59.785156 1177.515625 65.585938 1179.171875 C 82.164062 1183.730469 99.980469 1185.800781 116.972656 1187.875 C 135.621094 1190.363281 154.6875 1192.433594 173.75 1192.433594 C 182.453125 1192.433594 191.15625 1191.191406 194.882812 1182.074219 C 204 1158.035156 163.386719 1144.359375 146.8125 1143.53125 C 145.984375 1143.53125 145.152344 1143.945312 144.738281 1144.359375 C 155.101562 1102.917969 163.804688 1060.648438 172.089844 1018.792969 C 172.503906 1017.132812 172.921875 1015.476562 172.921875 1013.816406 C 179.964844 977.765625 187.011719 941.292969 194.054688 905.242188 C 200.6875 872.5 206.074219 838.933594 217.675781 807.4375 C 229.28125 774.699219 247.101562 751.90625 274.867188 731.597656 C 275.695312 730.769531 276.109375 729.941406 276.109375 729.113281 C 291.445312 714.605469 303.046875 691.8125 309.679688 677.308594 C 328.328125 638.769531 342.417969 598.15625 354.4375 556.714844 C 366.453125 514.027344 375.570312 470.097656 382.617188 426.171875 C 388.832031 386.800781 394.636719 346.601562 397.121094 306.402344 C 399.609375 304.746094 401.679688 302.257812 402.921875 298.527344 C 406.652344 288.996094 401.265625 278.222656 393.390625 272.835938 Z M 392.148438 293.96875 C 391.734375 294.386719 391.320312 294.800781 390.90625 295.628906 C 390.078125 297.285156 388.417969 298.527344 386.761719 300.1875 C 377.230469 304.332031 360.652344 301.015625 351.121094 301.015625 C 325.011719 300.1875 298.902344 296.871094 273.210938 291.484375 C 261.191406 288.996094 249.171875 286.097656 237.15625 282.78125 C 227.625 279.878906 207.316406 276.566406 203.585938 264.960938 C 234.667969 259.160156 266.578125 257.5 298.074219 260.402344 C 319.625 265.375 340.761719 269.933594 362.726562 273.664062 C 367.285156 274.492188 371.84375 274.90625 376.402344 276.152344 C 380.128906 276.980469 383.445312 278.222656 386.761719 279.878906 C 393.390625 284.023438 395.050781 288.582031 392.148438 293.96875 Z M 392.148438 293.96875 " fill-opacity="1" fill-rule="evenodd"/><path fill="#cbad9f" d="M 295.589844 632.550781 C 275.28125 662.390625 258.289062 692.644531 233.425781 719.578125 C 232.183594 720.824219 234.253906 723.308594 235.496094 721.652344 C 259.535156 695.957031 283.984375 666.121094 296.003906 632.550781 C 296.417969 632.550781 295.589844 632.136719 295.589844 632.550781 Z M 295.589844 632.550781 " fill-opacity="1" fill-rule="evenodd"/><path fill="#cbad9f" d="M 626.710938 763.921875 C 627.953125 756.464844 630.441406 749.003906 636.242188 742.375 C 636.65625 742.375 636.65625 742.375 637.070312 742.375 C 632.925781 752.734375 629.195312 763.09375 626.710938 773.453125 C 626.296875 770.140625 626.296875 766.824219 626.710938 763.921875 Z M 626.710938 763.921875 " fill-opacity="1" fill-rule="evenodd"/><path fill="#cbad9f" d="M 739.019531 1152.234375 C 724.511719 1146.019531 708.765625 1142.289062 693.015625 1142.703125 C 691.359375 1109.550781 681 1075.566406 674.78125 1042.828125 C 672.296875 1029.566406 669.394531 1015.890625 666.910156 1002.628906 C 666.496094 1000.972656 666.082031 998.898438 665.664062 997.242188 C 661.9375 979.007812 658.621094 960.773438 654.890625 942.539062 C 648.261719 908.554688 641.214844 874.574219 634.585938 840.589844 C 634.167969 839.347656 634.167969 838.105469 633.753906 836.445312 C 630.027344 803.707031 629.609375 771.382812 644.945312 741.128906 C 653.234375 724.554688 664.421875 708.390625 669.808594 690.570312 C 676.441406 675.652344 681 659.488281 683.484375 643.328125 C 689.289062 605.613281 681.828125 569.144531 674.78125 532.261719 C 656.964844 443.160156 641.214844 352.816406 620.492188 264.546875 C 619.664062 260.816406 614.277344 262.476562 615.105469 266.203125 C 627.953125 349.089844 645.359375 431.144531 661.105469 513.199219 C 671.882812 570.804688 684.730469 625.507812 662.765625 682.28125 C 654.476562 703.832031 644.53125 723.308594 636.65625 742.375 C 637.070312 742.375 637.898438 742.375 638.3125 741.957031 C 637.070312 744.859375 635.828125 748.175781 634.585938 751.074219 C 628.78125 765.582031 627.125 780.5 627.539062 795.003906 C 627.125 791.6875 626.710938 788.789062 626.710938 785.472656 C 626.710938 785.058594 627.125 785.058594 627.125 784.644531 C 627.125 783.402344 626.710938 781.742188 626.710938 780.5 C 626.710938 778.011719 626.710938 775.941406 626.710938 773.453125 C 622.980469 790.03125 621.324219 807.4375 624.636719 827.328125 C 630.027344 862.140625 637.484375 896.953125 644.117188 931.347656 C 648.261719 953.3125 652.402344 975.277344 656.964844 997.242188 C 657.378906 998.898438 657.792969 1000.972656 658.207031 1002.628906 C 660.277344 1014.234375 662.765625 1025.421875 664.835938 1037.027344 L 675.199219 1091.316406 C 678.511719 1109.136719 681 1128.199219 687.214844 1145.191406 C 688.457031 1148.503906 693.015625 1148.503906 693.847656 1145.605469 C 702.964844 1146.847656 711.667969 1148.089844 720.785156 1150.578125 C 727 1152.234375 742.746094 1155.550781 746.476562 1160.9375 C 756.421875 1175.855469 731.144531 1175.441406 724.511719 1176.683594 C 714.152344 1178.34375 703.792969 1179.585938 693.433594 1180.828125 C 683.484375 1181.660156 673.539062 1182.488281 664.007812 1183.316406 C 656.132812 1183.730469 644.53125 1186.632812 637.070312 1184.558594 C 632.925781 1185.386719 630.027344 1183.730469 628.367188 1178.757812 C 620.492188 1173.785156 621.738281 1168.398438 631.683594 1163.007812 C 635.414062 1160.109375 640.800781 1158.867188 645.359375 1157.207031 C 652.402344 1154.722656 659.449219 1152.648438 665.664062 1148.089844 C 666.496094 1147.675781 666.496094 1146.847656 666.910156 1146.019531 C 667.324219 1148.089844 667.738281 1150.164062 668.566406 1152.234375 C 668.980469 1153.476562 670.222656 1153.0625 670.222656 1151.820312 C 662.765625 1102.089844 653.234375 1052.773438 643.285156 1003.042969 C 642.871094 1001.386719 642.457031 999.3125 642.042969 997.65625 C 634.585938 959.53125 626.710938 921.816406 618.835938 884.105469 C 609.304688 836.445312 601.84375 790.03125 566.621094 754.804688 C 510.671875 698.445312 482.492188 613.074219 462.601562 538.0625 C 442.707031 462.640625 434.417969 385.972656 422.402344 309.304688 C 425.300781 310.132812 428.617188 310.546875 431.519531 310.546875 C 470.886719 312.621094 512.332031 306.816406 550.457031 298.113281 C 569.933594 293.554688 616.765625 288.582031 616.765625 260.816406 C 616.765625 258.746094 615.519531 256.671875 613.449219 256.257812 C 574.078125 247.96875 534.707031 247.140625 496.167969 253.773438 C 486.222656 255.015625 476.277344 256.671875 466.328125 258.746094 C 449.753906 262.476562 429.445312 263.304688 416.183594 272.835938 C 408.3125 278.636719 402.921875 288.996094 406.652344 298.527344 C 407.894531 301.84375 409.96875 304.332031 412.453125 306.402344 C 414.527344 346.601562 420.328125 386.800781 426.960938 426.171875 C 433.589844 470.097656 443.121094 513.613281 455.140625 556.714844 C 466.742188 597.742188 481.25 638.355469 499.898438 677.308594 C 506.941406 691.8125 518.546875 714.191406 533.464844 729.113281 C 533.464844 729.941406 533.878906 731.183594 534.710938 731.597656 C 562.476562 751.90625 580.296875 774.699219 591.898438 807.4375 C 603.089844 838.933594 608.890625 872.5 615.519531 905.238281 C 621.738281 936.320312 627.539062 967.402344 633.753906 998.898438 C 634.167969 1000.558594 634.585938 1002.628906 635 1004.285156 C 644.117188 1051.53125 653.648438 1098.359375 665.25 1144.773438 C 664.835938 1144.359375 664.421875 1143.945312 663.179688 1143.945312 C 646.601562 1144.773438 605.988281 1158.449219 615.105469 1182.488281 C 618.421875 1191.605469 627.539062 1192.847656 636.242188 1192.847656 C 654.890625 1192.847656 674.367188 1190.777344 693.015625 1188.289062 C 710.007812 1186.21875 727.828125 1184.144531 744.40625 1179.585938 C 750.621094 1177.929688 758.082031 1175.027344 757.667969 1167.566406 C 756.839844 1159.28125 745.234375 1155.136719 739.019531 1152.234375 Z M 418.671875 296.042969 C 418.671875 295.214844 418.257812 294.800781 417.429688 294.386719 C 414.527344 288.582031 416.183594 284.023438 422.816406 280.292969 C 426.132812 278.636719 429.445312 277.394531 433.175781 276.566406 C 437.734375 275.320312 442.292969 274.90625 446.851562 274.078125 C 468.402344 270.347656 489.953125 265.789062 511.5 260.816406 C 542.996094 257.917969 575.320312 259.574219 605.988281 265.789062 C 602.257812 277.808594 582.367188 281.125 572.421875 283.609375 C 560.402344 286.925781 548.386719 289.828125 536.367188 292.3125 C 510.671875 297.699219 484.5625 300.601562 458.457031 301.84375 C 448.925781 302.257812 431.933594 305.160156 422.816406 301.015625 C 421.15625 299.359375 419.5 297.699219 418.671875 296.042969 Z M 418.671875 296.042969 " fill-opacity="1" fill-rule="evenodd"/><path fill="#cbad9f" d="M 513.988281 632.550781 C 534.292969 662.390625 551.285156 692.644531 576.152344 719.578125 C 577.394531 720.824219 575.320312 723.308594 574.078125 721.652344 C 550.042969 695.957031 525.589844 666.121094 513.574219 632.550781 C 513.160156 632.550781 513.988281 632.136719 513.988281 632.550781 Z M 513.988281 632.550781 " fill-opacity="1" fill-rule="evenodd"/><path fill="#cbad9f" d="M 358.996094 439.847656 C 304.292969 465.539062 243.785156 476.730469 183.695312 476.730469 C 183.28125 476.730469 182.867188 477.144531 182.453125 477.558594 C 180.378906 477.972656 178.308594 479.628906 177.894531 482.945312 C 177.480469 486.261719 177.480469 489.578125 177.480469 492.890625 C 173.75 502.007812 172.921875 512.785156 171.261719 522.316406 C 168.363281 538.894531 166.289062 555.46875 165.046875 572.046875 C 163.804688 590.28125 163.804688 608.929688 164.632812 627.164062 C 165.460938 638.355469 164.632812 652.03125 168.777344 662.804688 C 168.777344 663.21875 168.777344 663.632812 168.777344 663.632812 C 171.261719 696.371094 187.839844 736.984375 228.039062 728.695312 C 249.589844 724.554688 264.507812 707.5625 274.867188 689.742188 C 288.957031 665.289062 300.148438 638.769531 310.921875 613.074219 C 333.714844 559.199219 352.777344 502.425781 365.625 445.234375 C 366.453125 440.675781 362.308594 438.1875 358.996094 439.847656 Z M 358.996094 439.847656 " fill-opacity="1" fill-rule="evenodd"/><path fill="#cbad9f" d="M 651.160156 571.632812 C 649.917969 555.054688 647.84375 538.0625 644.945312 521.902344 C 643.285156 512.371094 642.457031 501.59375 638.726562 492.476562 C 638.726562 489.164062 638.3125 485.847656 638.3125 482.53125 C 637.898438 479.214844 636.242188 477.558594 633.753906 477.144531 C 633.339844 476.730469 632.925781 476.316406 632.511719 476.316406 C 572.421875 476.316406 511.914062 465.125 457.210938 439.433594 C 453.484375 437.773438 449.339844 440.675781 450.582031 444.820312 C 463.015625 502.007812 482.492188 558.785156 505.285156 612.660156 C 508.1875 619.289062 511.085938 625.921875 513.988281 632.550781 C 516.890625 639.597656 520.203125 646.226562 523.105469 653.273438 C 523.105469 653.273438 523.105469 653.273438 523.105469 653.6875 C 528.90625 666.121094 534.707031 678.136719 541.339844 689.328125 C 552.113281 707.5625 567.035156 724.136719 588.167969 728.28125 C 628.367188 736.15625 644.945312 695.542969 647.429688 663.21875 C 647.429688 662.804688 647.429688 662.390625 647.429688 662.390625 C 651.574219 651.613281 651.160156 638.355469 651.988281 626.75 C 652.40625 608.515625 652.40625 590.28125 651.160156 571.632812 Z M 651.160156 571.632812 " fill-opacity="1" fill-rule="evenodd"/></svg>