<svg xmlns="http://www.w3.org/2000/svg" xmlns:xlink="http://www.w3.org/1999/xlink" width="1080" zoomAndPan="magnify" viewBox="0 0 810 1439.999935" height="1920" preserveAspectRatio="xMidYMid meet" version="1.0"><defs><clipPath id="1c4c1d0f05"><path d="M 269 64 L 541.964844 64 L 541.964844 1378 L 269 1378 Z M 269 64 " clip-rule="nonzero"/></clipPath></defs><path fill="#fff7ed" d="M 386.761719 1267.746094 C 387.023438 1262.65625 383.058594 1258.363281 377.972656 1258.097656 C 372.882812 1257.835938 368.589844 1261.796875 368.324219 1266.886719 C 368.0625 1271.972656 372.027344 1276.269531 377.113281 1276.53125 C 382.199219 1276.730469 386.496094 1272.832031 386.761719 1267.746094 Z M 386.761719 1267.746094 " fill-opacity="1" fill-rule="nonzero"/><path fill="#fff7ed" d="M 426.535156 1271.972656 C 426.867188 1277.0625 431.226562 1280.960938 436.316406 1280.695312 C 441.402344 1280.429688 445.300781 1276.003906 444.972656 1270.917969 C 444.640625 1265.828125 440.28125 1261.929688 435.191406 1262.195312 C 430.105469 1262.460938 426.273438 1266.886719 426.535156 1271.972656 Z M 426.535156 1271.972656 " fill-opacity="1" fill-rule="nonzero"/><path fill="#fff7ed" d="M 373.941406 1208.546875 C 374.003906 1207.945312 374.125 1207.359375 374.304688 1206.78125 C 374.480469 1206.207031 374.714844 1205.652344 375.003906 1205.125 C 375.292969 1204.59375 375.628906 1204.097656 376.015625 1203.632812 C 376.398438 1203.167969 376.828125 1202.75 377.296875 1202.367188 C 377.765625 1201.988281 378.265625 1201.660156 378.800781 1201.378906 C 379.332031 1201.097656 379.890625 1200.871094 380.46875 1200.703125 C 381.046875 1200.53125 381.636719 1200.417969 382.234375 1200.363281 C 382.835938 1200.308594 383.4375 1200.3125 384.035156 1200.375 C 384.636719 1200.4375 385.222656 1200.558594 385.800781 1200.738281 C 386.375 1200.917969 386.929688 1201.148438 387.457031 1201.4375 C 387.988281 1201.726562 388.484375 1202.0625 388.949219 1202.449219 C 389.410156 1202.835938 389.832031 1203.261719 390.210938 1203.730469 C 390.59375 1204.199219 390.921875 1204.699219 391.203125 1205.234375 C 391.484375 1205.769531 391.707031 1206.324219 391.878906 1206.902344 C 392.050781 1207.480469 392.164062 1208.070312 392.21875 1208.671875 C 392.273438 1209.269531 392.269531 1209.871094 392.207031 1210.46875 C 392.144531 1211.070312 392.023438 1211.65625 391.84375 1212.234375 C 391.664062 1212.808594 391.429688 1213.363281 391.144531 1213.894531 C 390.855469 1214.421875 390.519531 1214.917969 390.132812 1215.382812 C 389.746094 1215.847656 389.320312 1216.269531 388.851562 1216.648438 C 388.382812 1217.027344 387.882812 1217.355469 387.347656 1217.636719 C 386.8125 1217.917969 386.257812 1218.144531 385.679688 1218.316406 C 385.101562 1218.484375 384.511719 1218.597656 383.910156 1218.652344 C 383.3125 1218.707031 382.710938 1218.703125 382.109375 1218.640625 C 381.511719 1218.578125 380.921875 1218.457031 380.347656 1218.277344 C 379.773438 1218.097656 379.21875 1217.867188 378.6875 1217.578125 C 378.160156 1217.289062 377.664062 1216.953125 377.199219 1216.566406 C 376.734375 1216.183594 376.3125 1215.753906 375.933594 1215.285156 C 375.554688 1214.816406 375.226562 1214.316406 374.945312 1213.78125 C 374.664062 1213.25 374.4375 1212.691406 374.265625 1212.113281 C 374.09375 1211.535156 373.980469 1210.945312 373.925781 1210.347656 C 373.871094 1209.746094 373.875 1209.144531 373.941406 1208.546875 Z M 373.941406 1208.546875 " fill-opacity="1" fill-rule="nonzero"/><path fill="#fff7ed" d="M 433.605469 1215.214844 C 433.738281 1220.304688 437.96875 1224.269531 443.054688 1224.136719 C 448.144531 1224.003906 452.105469 1219.777344 451.976562 1214.6875 C 451.84375 1209.601562 447.613281 1205.636719 442.527344 1205.769531 C 437.4375 1205.898438 433.472656 1210.128906 433.605469 1215.214844 Z M 433.605469 1215.214844 " fill-opacity="1" fill-rule="nonzero"/><path fill="#fff7ed" d="M 320.15625 1141.28125 C 320.027344 1140.222656 319.496094 1139.164062 318.636719 1138.371094 L 307.933594 1128.328125 C 305.953125 1126.480469 302.78125 1126.546875 300.929688 1128.59375 C 299.082031 1130.574219 299.144531 1133.746094 301.195312 1135.597656 L 311.898438 1145.640625 C 313.882812 1147.492188 317.050781 1147.425781 318.902344 1145.375 C 319.960938 1144.253906 320.355469 1142.734375 320.15625 1141.28125 Z M 320.15625 1141.28125 " fill-opacity="1" fill-rule="nonzero"/><path fill="#fff7ed" d="M 335.683594 1155.816406 C 335.554688 1154.757812 335.023438 1153.703125 334.164062 1152.910156 L 329.34375 1148.414062 C 327.359375 1146.566406 324.1875 1146.632812 322.339844 1148.679688 C 320.488281 1150.664062 320.554688 1153.835938 322.601562 1155.683594 L 327.425781 1160.175781 C 329.40625 1162.027344 332.578125 1161.960938 334.429688 1159.914062 C 335.488281 1158.789062 335.949219 1157.269531 335.683594 1155.816406 Z M 335.683594 1155.816406 " fill-opacity="1" fill-rule="nonzero"/><path fill="#fff7ed" d="M 311.4375 1341.21875 L 302.054688 1352.519531 C 300.269531 1354.632812 300.601562 1357.738281 302.714844 1359.519531 C 304.828125 1361.304688 307.933594 1360.976562 309.71875 1358.859375 L 319.101562 1347.5625 C 319.828125 1346.703125 320.222656 1345.644531 320.222656 1344.65625 C 320.289062 1343.136719 319.695312 1341.617188 318.441406 1340.625 C 316.324219 1338.839844 313.21875 1339.105469 311.4375 1341.21875 Z M 311.4375 1341.21875 " fill-opacity="1" fill-rule="nonzero"/><path fill="#fff7ed" d="M 325.113281 1324.898438 L 320.882812 1329.988281 C 319.101562 1332.101562 319.429688 1335.207031 321.546875 1336.992188 C 323.660156 1338.773438 326.765625 1338.445312 328.550781 1336.328125 L 332.777344 1331.242188 C 333.503906 1330.382812 333.902344 1329.324219 333.902344 1328.335938 C 333.96875 1326.816406 333.371094 1325.296875 332.117188 1324.304688 C 329.9375 1322.453125 326.832031 1322.785156 325.113281 1324.898438 Z M 325.113281 1324.898438 " fill-opacity="1" fill-rule="nonzero"/><path fill="#fff7ed" d="M 501.859375 1335.734375 C 500.011719 1337.78125 500.207031 1340.953125 502.191406 1342.738281 L 513.160156 1352.648438 C 515.207031 1354.5 518.3125 1354.300781 520.164062 1352.320312 C 521.089844 1351.261719 521.484375 1350.007812 521.417969 1348.683594 C 521.351562 1347.429688 520.824219 1346.175781 519.765625 1345.25 L 508.796875 1335.339844 C 506.816406 1333.554688 503.710938 1333.6875 501.859375 1335.734375 Z M 501.859375 1335.734375 " fill-opacity="1" fill-rule="nonzero"/><path fill="#fff7ed" d="M 485.9375 1321.398438 C 484.085938 1323.445312 484.285156 1326.617188 486.265625 1328.402344 L 491.222656 1332.828125 C 493.269531 1334.675781 496.375 1334.480469 498.226562 1332.496094 C 499.152344 1331.441406 499.546875 1330.183594 499.480469 1328.863281 C 499.414062 1327.609375 498.886719 1326.351562 497.828125 1325.425781 L 492.875 1321 C 490.957031 1319.214844 487.785156 1319.347656 485.9375 1321.398438 Z M 485.9375 1321.398438 " fill-opacity="1" fill-rule="nonzero"/><path fill="#fff7ed" d="M 512.5 1129.585938 L 502.71875 1140.554688 C 500.871094 1142.601562 501.066406 1145.707031 503.117188 1147.558594 C 505.164062 1149.40625 508.269531 1149.207031 510.121094 1147.160156 L 519.898438 1136.191406 C 520.757812 1135.203125 521.21875 1133.945312 521.152344 1132.757812 C 521.089844 1131.433594 520.558594 1130.179688 519.503906 1129.1875 C 517.453125 1127.40625 514.347656 1127.535156 512.5 1129.585938 Z M 512.5 1129.585938 " fill-opacity="1" fill-rule="nonzero"/><path fill="#fff7ed" d="M 492.875 1151.519531 L 488.449219 1156.476562 C 486.597656 1158.523438 486.796875 1161.628906 488.84375 1163.480469 C 490.890625 1165.332031 493.996094 1165.132812 495.847656 1163.085938 L 500.273438 1158.128906 C 501.132812 1157.136719 501.597656 1155.882812 501.53125 1154.691406 C 501.464844 1153.371094 500.933594 1152.050781 499.878906 1151.125 C 497.828125 1149.339844 494.726562 1149.472656 492.875 1151.519531 Z M 492.875 1151.519531 " fill-opacity="1" fill-rule="nonzero"/><path fill="#fff7ed" d="M 383.785156 1005.828125 C 384.050781 1000.742188 380.085938 996.445312 375 996.183594 C 369.910156 995.917969 365.617188 999.882812 365.351562 1004.96875 C 365.089844 1010.058594 369.050781 1014.351562 374.140625 1014.617188 C 379.226562 1014.816406 383.523438 1010.851562 383.785156 1005.828125 Z M 383.785156 1005.828125 " fill-opacity="1" fill-rule="nonzero"/><path fill="#fff7ed" d="M 432.230469 1000.238281 C 432.835938 1000.203125 433.441406 1000.226562 434.042969 1000.304688 C 434.644531 1000.386719 435.234375 1000.527344 435.808594 1000.726562 C 436.382812 1000.921875 436.929688 1001.175781 437.457031 1001.480469 C 437.980469 1001.785156 438.46875 1002.140625 438.925781 1002.542969 C 439.378906 1002.945312 439.792969 1003.386719 440.160156 1003.871094 C 440.527344 1004.355469 440.84375 1004.871094 441.109375 1005.414062 C 441.375 1005.960938 441.585938 1006.527344 441.742188 1007.117188 C 441.898438 1007.703125 441.992188 1008.300781 442.03125 1008.90625 C 442.066406 1009.511719 442.046875 1010.117188 441.964844 1010.71875 C 441.882812 1011.320312 441.742188 1011.90625 441.542969 1012.480469 C 441.347656 1013.054688 441.09375 1013.605469 440.789062 1014.128906 C 440.484375 1014.65625 440.128906 1015.144531 439.726562 1015.601562 C 439.324219 1016.054688 438.882812 1016.464844 438.398438 1016.835938 C 437.914062 1017.203125 437.398438 1017.519531 436.855469 1017.785156 C 436.308594 1018.050781 435.742188 1018.261719 435.15625 1018.417969 C 434.566406 1018.570312 433.96875 1018.667969 433.363281 1018.707031 C 432.757812 1018.742188 432.152344 1018.71875 431.550781 1018.636719 C 430.949219 1018.558594 430.363281 1018.417969 429.789062 1018.21875 C 429.214844 1018.023438 428.664062 1017.769531 428.140625 1017.464844 C 427.613281 1017.160156 427.125 1016.804688 426.667969 1016.402344 C 426.214844 1016 425.804688 1015.558594 425.4375 1015.074219 C 425.066406 1014.589844 424.75 1014.074219 424.484375 1013.53125 C 424.21875 1012.984375 424.007812 1012.417969 423.851562 1011.828125 C 423.699219 1011.242188 423.601562 1010.644531 423.566406 1010.039062 C 423.527344 1009.433594 423.550781 1008.828125 423.632812 1008.226562 C 423.714844 1007.625 423.851562 1007.039062 424.050781 1006.464844 C 424.246094 1005.890625 424.5 1005.339844 424.804688 1004.816406 C 425.113281 1004.289062 425.464844 1003.800781 425.867188 1003.34375 C 426.269531 1002.890625 426.714844 1002.476562 427.195312 1002.109375 C 427.679688 1001.742188 428.195312 1001.425781 428.742188 1001.160156 C 429.285156 1000.894531 429.851562 1000.683594 430.441406 1000.527344 C 431.027344 1000.371094 431.625 1000.277344 432.230469 1000.238281 Z M 432.230469 1000.238281 " fill-opacity="1" fill-rule="nonzero"/><path fill="#fff7ed" d="M 370.984375 946.605469 C 371.046875 946.003906 371.167969 945.417969 371.347656 944.839844 C 371.527344 944.265625 371.757812 943.710938 372.046875 943.183594 C 372.335938 942.652344 372.671875 942.15625 373.058594 941.691406 C 373.445312 941.226562 373.871094 940.808594 374.339844 940.425781 C 374.808594 940.046875 375.308594 939.71875 375.84375 939.4375 C 376.378906 939.15625 376.933594 938.929688 377.511719 938.757812 C 378.089844 938.589844 378.679688 938.476562 379.28125 938.421875 C 379.878906 938.367188 380.480469 938.371094 381.082031 938.433594 C 381.679688 938.496094 382.269531 938.617188 382.84375 938.796875 C 383.417969 938.976562 383.972656 939.207031 384.503906 939.496094 C 385.03125 939.785156 385.527344 940.121094 385.992188 940.507812 C 386.457031 940.894531 386.878906 941.320312 387.257812 941.789062 C 387.636719 942.257812 387.964844 942.757812 388.246094 943.292969 C 388.527344 943.828125 388.753906 944.382812 388.925781 944.960938 C 389.09375 945.539062 389.207031 946.128906 389.261719 946.730469 C 389.320312 947.328125 389.316406 947.929688 389.25 948.527344 C 389.1875 949.128906 389.066406 949.714844 388.886719 950.292969 C 388.710938 950.867188 388.476562 951.421875 388.1875 951.949219 C 387.898438 952.480469 387.5625 952.976562 387.175781 953.441406 C 386.792969 953.90625 386.363281 954.328125 385.894531 954.707031 C 385.425781 955.085938 384.925781 955.414062 384.390625 955.695312 C 383.859375 955.976562 383.300781 956.203125 382.722656 956.375 C 382.144531 956.542969 381.554688 956.65625 380.957031 956.710938 C 380.355469 956.765625 379.753906 956.761719 379.15625 956.699219 C 378.554688 956.636719 377.96875 956.515625 377.390625 956.335938 C 376.816406 956.15625 376.261719 955.925781 375.734375 955.636719 C 375.203125 955.347656 374.707031 955.011719 374.242188 954.625 C 373.78125 954.242188 373.359375 953.8125 372.980469 953.34375 C 372.597656 952.875 372.269531 952.375 371.988281 951.839844 C 371.707031 951.308594 371.480469 950.75 371.3125 950.171875 C 371.140625 949.59375 371.027344 949.003906 370.972656 948.402344 C 370.917969 947.804688 370.921875 947.203125 370.984375 946.605469 Z M 370.984375 946.605469 " fill-opacity="1" fill-rule="nonzero"/><path fill="#fff7ed" d="M 430.632812 953.234375 C 430.765625 958.320312 434.992188 962.285156 440.082031 962.152344 C 445.167969 962.023438 449.132812 957.792969 449 952.707031 C 448.871094 947.617188 444.640625 943.652344 439.554688 943.785156 C 434.464844 943.917969 430.5 948.210938 430.632812 953.234375 Z M 430.632812 953.234375 " fill-opacity="1" fill-rule="nonzero"/><path fill="#fff7ed" d="M 317.183594 879.363281 C 317.050781 878.308594 316.523438 877.25 315.664062 876.457031 L 304.960938 866.414062 C 302.980469 864.5625 299.808594 864.628906 297.957031 866.675781 C 296.105469 868.660156 296.171875 871.832031 298.222656 873.679688 L 308.925781 883.726562 C 310.90625 885.574219 314.078125 885.507812 315.929688 883.460938 C 316.988281 882.335938 317.382812 880.816406 317.183594 879.363281 Z M 317.183594 879.363281 " fill-opacity="1" fill-rule="nonzero"/><path fill="#fff7ed" d="M 332.710938 893.898438 C 332.578125 892.84375 332.050781 891.785156 331.191406 890.992188 L 326.367188 886.5 C 324.386719 884.648438 321.214844 884.714844 319.363281 886.765625 C 317.515625 888.746094 317.582031 891.917969 319.628906 893.769531 L 324.453125 898.261719 C 326.433594 900.109375 329.605469 900.042969 331.457031 897.996094 C 332.515625 896.875 332.976562 895.355469 332.710938 893.898438 Z M 332.710938 893.898438 " fill-opacity="1" fill-rule="nonzero"/><path fill="#fff7ed" d="M 306.679688 1096.945312 L 316.0625 1085.644531 C 316.789062 1084.785156 317.183594 1083.730469 317.183594 1082.738281 C 317.25 1081.21875 316.65625 1079.699219 315.402344 1078.707031 C 313.285156 1076.925781 310.179688 1077.253906 308.398438 1079.367188 L 299.015625 1090.667969 C 297.230469 1092.78125 297.5625 1095.886719 299.675781 1097.671875 C 301.789062 1099.324219 304.894531 1099.058594 306.679688 1096.945312 Z M 306.679688 1096.945312 " fill-opacity="1" fill-rule="nonzero"/><path fill="#fff7ed" d="M 325.511719 1074.347656 L 329.738281 1069.257812 C 330.464844 1068.402344 330.863281 1067.34375 330.863281 1066.351562 C 330.929688 1064.832031 330.332031 1063.3125 329.078125 1062.320312 C 326.964844 1060.539062 323.859375 1060.867188 322.074219 1062.984375 L 317.84375 1068.070312 C 316.0625 1070.183594 316.390625 1073.289062 318.507812 1075.074219 C 320.621094 1076.726562 323.726562 1076.460938 325.511719 1074.347656 Z M 325.511719 1074.347656 " fill-opacity="1" fill-rule="nonzero"/><path fill="#fff7ed" d="M 498.886719 1073.820312 C 497.039062 1075.867188 497.234375 1079.039062 499.21875 1080.824219 L 510.1875 1090.734375 C 512.234375 1092.582031 515.339844 1092.386719 517.191406 1090.402344 C 518.113281 1089.347656 518.511719 1088.089844 518.445312 1086.769531 C 518.378906 1085.515625 517.851562 1084.257812 516.792969 1083.332031 L 505.824219 1073.421875 C 503.84375 1071.636719 500.738281 1071.769531 498.886719 1073.820312 Z M 498.886719 1073.820312 " fill-opacity="1" fill-rule="nonzero"/><path fill="#fff7ed" d="M 482.964844 1059.480469 C 481.113281 1061.527344 481.3125 1064.699219 483.292969 1066.484375 L 488.25 1070.910156 C 490.296875 1072.761719 493.402344 1072.5625 495.253906 1070.582031 C 496.179688 1069.523438 496.574219 1068.269531 496.507812 1066.945312 C 496.441406 1065.691406 495.914062 1064.4375 494.855469 1063.511719 L 489.902344 1059.085938 C 487.984375 1057.234375 484.8125 1057.433594 482.964844 1059.480469 Z M 482.964844 1059.480469 " fill-opacity="1" fill-rule="nonzero"/><path fill="#fff7ed" d="M 509.523438 867.667969 L 499.746094 878.636719 C 497.894531 880.683594 498.09375 883.789062 500.140625 885.640625 C 502.191406 887.492188 505.296875 887.292969 507.144531 885.246094 L 516.925781 874.277344 C 517.785156 873.285156 518.246094 872.03125 518.179688 870.839844 C 518.113281 869.519531 517.585938 868.261719 516.527344 867.273438 C 514.480469 865.421875 511.375 865.621094 509.523438 867.667969 Z M 509.523438 867.667969 " fill-opacity="1" fill-rule="nonzero"/><path fill="#fff7ed" d="M 489.902344 889.605469 L 485.472656 894.5625 C 483.625 896.609375 483.824219 899.714844 485.871094 901.566406 C 487.917969 903.414062 491.023438 903.214844 492.875 901.167969 L 497.300781 896.210938 C 498.160156 895.222656 498.621094 893.964844 498.558594 892.777344 C 498.492188 891.457031 497.960938 890.132812 496.90625 889.207031 C 494.855469 887.359375 491.75 887.558594 489.902344 889.605469 Z M 489.902344 889.605469 " fill-opacity="1" fill-rule="nonzero"/><path fill="#fff7ed" d="M 381.210938 745.828125 C 381.472656 740.742188 377.511719 736.445312 372.421875 736.183594 C 367.335938 735.917969 363.039062 739.882812 362.777344 744.96875 C 362.511719 750.058594 366.476562 754.351562 371.5625 754.617188 C 376.71875 754.816406 381.011719 750.917969 381.210938 745.828125 Z M 381.210938 745.828125 " fill-opacity="1" fill-rule="nonzero"/><path fill="#fff7ed" d="M 421.050781 750.058594 C 421.382812 755.144531 425.742188 759.042969 430.832031 758.78125 C 435.917969 758.515625 439.816406 754.089844 439.488281 749 C 439.15625 743.914062 434.796875 740.015625 429.707031 740.277344 C 424.621094 740.542969 420.722656 744.96875 421.050781 750.058594 Z M 421.050781 750.058594 " fill-opacity="1" fill-rule="nonzero"/><path fill="#fff7ed" d="M 386.628906 686.296875 C 385.902344 681.273438 381.210938 677.839844 376.121094 678.566406 C 371.101562 679.292969 367.664062 683.984375 368.390625 689.070312 C 369.117188 694.09375 373.808594 697.527344 378.898438 696.800781 C 383.917969 696.007812 387.355469 691.316406 386.628906 686.296875 Z M 386.628906 686.296875 " fill-opacity="1" fill-rule="nonzero"/><path fill="#fff7ed" d="M 428.054688 693.300781 C 428.1875 698.386719 432.417969 702.351562 437.503906 702.21875 C 442.59375 702.089844 446.558594 697.859375 446.425781 692.773438 C 446.292969 687.683594 442.0625 683.71875 436.976562 683.851562 C 431.953125 683.984375 427.925781 688.210938 428.054688 693.300781 Z M 428.054688 693.300781 " fill-opacity="1" fill-rule="nonzero"/><path fill="#fff7ed" d="M 314.609375 619.363281 C 314.476562 618.308594 313.945312 617.25 313.089844 616.457031 L 302.382812 606.414062 C 300.402344 604.5625 297.230469 604.628906 295.378906 606.675781 C 293.53125 608.660156 293.597656 611.832031 295.644531 613.679688 L 306.347656 623.726562 C 308.332031 625.574219 311.503906 625.507812 313.351562 623.460938 C 314.410156 622.335938 314.804688 620.816406 314.609375 619.363281 Z M 314.609375 619.363281 " fill-opacity="1" fill-rule="nonzero"/><path fill="#fff7ed" d="M 330.199219 633.964844 C 330.070312 632.910156 329.539062 631.851562 328.679688 631.058594 L 323.859375 626.566406 C 321.875 624.714844 318.703125 624.78125 316.855469 626.832031 C 315.003906 628.8125 315.070312 631.984375 317.117188 633.832031 L 321.941406 638.328125 C 323.925781 640.175781 327.09375 640.109375 328.945312 638.0625 C 330.003906 636.9375 330.398438 635.417969 330.199219 633.964844 Z M 330.199219 633.964844 " fill-opacity="1" fill-rule="nonzero"/><path fill="#fff7ed" d="M 304.101562 837.011719 L 313.484375 825.710938 C 314.210938 824.851562 314.609375 823.796875 314.609375 822.804688 C 314.671875 821.285156 314.078125 819.765625 312.824219 818.773438 C 310.710938 816.992188 307.605469 817.320312 305.820312 819.433594 L 296.4375 830.734375 C 294.652344 832.847656 294.984375 835.953125 297.097656 837.738281 C 299.277344 839.390625 302.382812 839.125 304.101562 837.011719 Z M 304.101562 837.011719 " fill-opacity="1" fill-rule="nonzero"/><path fill="#fff7ed" d="M 322.933594 814.414062 L 327.160156 809.324219 C 327.886719 808.464844 328.285156 807.410156 328.285156 806.417969 C 328.351562 804.898438 327.757812 803.378906 326.5 802.386719 C 324.386719 800.605469 321.28125 800.933594 319.496094 803.046875 L 315.269531 808.136719 C 313.484375 810.25 313.816406 813.355469 315.929688 815.140625 C 318.042969 816.792969 321.214844 816.527344 322.933594 814.414062 Z M 322.933594 814.414062 " fill-opacity="1" fill-rule="nonzero"/><path fill="#fff7ed" d="M 496.308594 813.886719 C 494.460938 815.933594 494.660156 819.105469 496.640625 820.886719 L 507.609375 830.800781 C 509.65625 832.648438 512.761719 832.453125 514.613281 830.46875 C 515.539062 829.414062 515.933594 828.15625 515.867188 826.835938 C 515.800781 825.578125 515.273438 824.324219 514.214844 823.398438 L 503.25 813.488281 C 501.332031 811.636719 498.160156 811.835938 496.308594 813.886719 Z M 496.308594 813.886719 " fill-opacity="1" fill-rule="nonzero"/><path fill="#fff7ed" d="M 480.453125 799.546875 C 478.601562 801.59375 478.800781 804.765625 480.78125 806.550781 L 485.738281 810.976562 C 487.785156 812.828125 490.890625 812.628906 492.742188 810.648438 C 493.667969 809.589844 494.0625 808.335938 493.996094 807.011719 C 493.933594 805.757812 493.402344 804.503906 492.347656 803.578125 L 487.390625 799.148438 C 485.40625 797.300781 482.304688 797.5 480.453125 799.546875 Z M 480.453125 799.546875 " fill-opacity="1" fill-rule="nonzero"/><path fill="#fff7ed" d="M 506.949219 607.734375 L 497.167969 618.703125 C 495.320312 620.75 495.515625 623.855469 497.566406 625.707031 C 499.613281 627.558594 502.71875 627.359375 504.570312 625.308594 L 514.347656 614.34375 C 515.207031 613.351562 515.671875 612.097656 515.605469 610.90625 C 515.539062 609.585938 515.007812 608.328125 513.953125 607.339844 C 511.902344 605.488281 508.796875 605.6875 506.949219 607.734375 Z M 506.949219 607.734375 " fill-opacity="1" fill-rule="nonzero"/><path fill="#fff7ed" d="M 487.390625 629.671875 L 482.964844 634.625 C 481.113281 636.675781 481.3125 639.78125 483.359375 641.628906 C 485.40625 643.480469 488.515625 643.28125 490.363281 641.234375 L 494.789062 636.277344 C 495.648438 635.289062 496.113281 634.03125 496.046875 632.84375 C 495.980469 631.519531 495.453125 630.265625 494.394531 629.273438 C 492.347656 627.425781 489.175781 627.621094 487.390625 629.671875 Z M 487.390625 629.671875 " fill-opacity="1" fill-rule="nonzero"/><path fill="#fff7ed" d="M 378.832031 484.902344 C 379.09375 479.816406 375.132812 475.519531 370.042969 475.257812 C 364.957031 474.992188 360.660156 478.957031 360.398438 484.046875 C 360.132812 489.132812 364.097656 493.425781 369.183594 493.691406 C 374.273438 493.890625 378.566406 489.992188 378.832031 484.902344 Z M 378.832031 484.902344 " fill-opacity="1" fill-rule="nonzero"/><path fill="#fff7ed" d="M 418.609375 489.132812 C 418.9375 494.21875 423.300781 498.117188 428.386719 497.855469 C 433.472656 497.589844 437.371094 493.164062 437.042969 488.074219 C 436.710938 482.988281 432.351562 479.089844 427.261719 479.355469 C 422.175781 479.617188 418.34375 484.042969 418.609375 489.132812 Z M 418.609375 489.132812 " fill-opacity="1" fill-rule="nonzero"/><path fill="#fff7ed" d="M 384.25 425.304688 C 383.523438 420.285156 378.832031 416.847656 373.742188 417.574219 C 368.722656 418.300781 365.285156 422.992188 366.011719 428.082031 C 366.738281 433.101562 371.429688 436.539062 376.519531 435.8125 C 381.539062 435.019531 384.976562 430.328125 384.25 425.304688 Z M 384.25 425.304688 " fill-opacity="1" fill-rule="nonzero"/><path fill="#fff7ed" d="M 425.675781 432.375 C 425.808594 437.464844 430.039062 441.425781 435.125 441.296875 C 440.214844 441.164062 444.179688 436.933594 444.046875 431.847656 C 443.914062 426.757812 439.683594 422.792969 434.597656 422.925781 C 429.511719 423.058594 425.546875 427.289062 425.675781 432.375 Z M 425.675781 432.375 " fill-opacity="1" fill-rule="nonzero"/><path fill="#fff7ed" d="M 312.230469 358.4375 C 312.097656 357.382812 311.566406 356.324219 310.710938 355.53125 L 300.003906 345.488281 C 298.023438 343.636719 294.851562 343.703125 293 345.753906 C 291.152344 347.734375 291.21875 350.90625 293.265625 352.757812 L 303.96875 362.800781 C 305.953125 364.648438 309.125 364.582031 310.972656 362.535156 C 312.03125 361.410156 312.425781 359.890625 312.230469 358.4375 Z M 312.230469 358.4375 " fill-opacity="1" fill-rule="nonzero"/><path fill="#fff7ed" d="M 327.757812 372.976562 C 327.625 371.917969 327.09375 370.859375 326.238281 370.066406 L 321.414062 365.574219 C 319.429688 363.726562 316.257812 363.789062 314.410156 365.839844 C 312.558594 367.820312 312.625 370.992188 314.671875 372.84375 L 319.496094 377.335938 C 321.480469 379.1875 324.652344 379.121094 326.5 377.070312 C 327.558594 375.949219 328.019531 374.429688 327.757812 372.976562 Z M 327.757812 372.976562 " fill-opacity="1" fill-rule="nonzero"/><path fill="#fff7ed" d="M 301.722656 576.019531 L 311.105469 564.722656 C 311.832031 563.863281 312.230469 562.804688 312.230469 561.8125 C 312.296875 560.292969 311.699219 558.773438 310.445312 557.78125 C 308.332031 556 305.226562 556.328125 303.441406 558.445312 L 294.058594 569.742188 C 292.273438 571.855469 292.605469 574.960938 294.71875 576.746094 C 296.832031 578.464844 299.9375 578.132812 301.722656 576.019531 Z M 301.722656 576.019531 " fill-opacity="1" fill-rule="nonzero"/><path fill="#fff7ed" d="M 320.554688 553.488281 L 324.78125 548.402344 C 325.511719 547.542969 325.90625 546.484375 325.90625 545.492188 C 325.972656 543.972656 325.378906 542.453125 324.121094 541.464844 C 322.007812 539.679688 318.902344 540.007812 317.117188 542.125 L 312.890625 547.210938 C 311.105469 549.324219 311.4375 552.429688 313.550781 554.214844 C 315.664062 555.867188 318.769531 555.535156 320.554688 553.488281 Z M 320.554688 553.488281 " fill-opacity="1" fill-rule="nonzero"/><path fill="#fff7ed" d="M 493.933594 552.894531 C 492.082031 554.941406 492.28125 558.113281 494.261719 559.898438 L 505.230469 569.808594 C 507.277344 571.660156 510.382812 571.460938 512.234375 569.476562 C 513.160156 568.421875 513.554688 567.164062 513.488281 565.84375 C 513.421875 564.589844 512.894531 563.332031 511.835938 562.410156 L 500.871094 552.496094 C 498.886719 550.714844 495.78125 550.84375 493.933594 552.894531 Z M 493.933594 552.894531 " fill-opacity="1" fill-rule="nonzero"/><path fill="#fff7ed" d="M 478.007812 538.554688 C 476.15625 540.605469 476.355469 543.777344 478.339844 545.558594 L 483.292969 549.988281 C 485.34375 551.835938 488.449219 551.636719 490.296875 549.65625 C 491.222656 548.597656 491.617188 547.34375 491.554688 546.023438 C 491.488281 544.765625 490.957031 543.511719 489.902344 542.585938 L 484.945312 538.160156 C 483.03125 536.375 479.859375 536.507812 478.007812 538.554688 Z M 478.007812 538.554688 " fill-opacity="1" fill-rule="nonzero"/><path fill="#fff7ed" d="M 504.570312 346.742188 L 494.789062 357.710938 C 492.941406 359.761719 493.140625 362.867188 495.1875 364.714844 C 497.234375 366.566406 500.339844 366.367188 502.191406 364.320312 L 511.96875 353.351562 C 512.828125 352.359375 513.292969 351.105469 513.226562 349.914062 C 513.160156 348.59375 512.628906 347.339844 511.574219 346.347656 C 509.523438 344.5625 506.417969 344.761719 504.570312 346.742188 Z M 504.570312 346.742188 " fill-opacity="1" fill-rule="nonzero"/><path fill="#fff7ed" d="M 484.945312 368.679688 L 480.519531 373.636719 C 478.667969 375.683594 478.867188 378.789062 480.914062 380.640625 C 482.964844 382.488281 486.070312 382.292969 487.917969 380.242188 L 492.347656 375.289062 C 493.203125 374.296875 493.667969 373.042969 493.601562 371.851562 C 493.535156 370.53125 493.007812 369.273438 491.949219 368.285156 C 489.902344 366.5 486.796875 366.632812 484.945312 368.679688 Z M 484.945312 368.679688 " fill-opacity="1" fill-rule="nonzero"/><g clip-path="url(#1c4c1d0f05)"><path fill="#fff7ed" d="M 498.359375 65.335938 C 479 65.402344 461.886719 68.507812 447.414062 74.585938 C 427.261719 83.042969 412.199219 98.371094 404.929688 117.730469 C 403.015625 122.886719 401.363281 128.699219 400.171875 134.910156 C 399.445312 131.410156 398.585938 128.105469 397.726562 125.199219 C 391.648438 104.054688 378.632812 86.941406 360.925781 77.03125 C 339.714844 65.203125 312.03125 61.835938 276.285156 66.855469 C 272.054688 67.449219 271.328125 71.878906 270.933594 74.320312 C 270.601562 76.238281 270.339844 78.816406 270.074219 82.050781 C 269.808594 85.753906 269.546875 90.113281 269.347656 95.003906 L 269.347656 95.265625 C 268.554688 114.5625 271 131.871094 276.417969 146.539062 C 284.015625 167.023438 298.75 182.75 317.78125 190.808594 C 323.328125 193.1875 329.804688 195.238281 336.675781 196.691406 C 326.632812 198.871094 317.117188 202.703125 309.453125 206.867188 C 291.351562 216.84375 278.332031 233.957031 272.847656 255.101562 C 268.886719 270.296875 268.289062 287.675781 271 306.835938 L 271.066406 307.101562 C 271.726562 311.988281 272.453125 316.285156 273.113281 319.917969 C 273.707031 323.089844 274.238281 325.667969 274.765625 327.515625 C 274.898438 327.980469 275.03125 328.507812 275.226562 329.035156 C 274.105469 330.6875 273.773438 332.800781 273.511719 334.191406 C 273.179688 336.105469 272.914062 338.683594 272.652344 341.921875 C 272.386719 345.621094 272.121094 349.980469 271.925781 354.871094 L 271.925781 355.136719 C 271.132812 374.429688 273.574219 391.738281 278.992188 406.410156 C 286.59375 426.890625 301.328125 442.617188 320.355469 450.679688 C 325.90625 453.054688 332.382812 455.105469 339.253906 456.558594 C 329.210938 458.738281 319.695312 462.570312 312.03125 466.734375 C 293.925781 476.710938 280.910156 493.824219 275.425781 514.96875 C 271.460938 530.164062 270.867188 547.542969 273.574219 566.703125 L 273.640625 566.96875 C 274.304688 571.855469 275.03125 576.152344 275.691406 579.785156 C 276.285156 582.957031 276.8125 585.535156 277.34375 587.382812 C 277.472656 587.980469 277.671875 588.707031 278.003906 589.433594 C 276.617188 591.085938 276.21875 593.527344 275.953125 595.050781 C 275.625 596.964844 275.359375 599.542969 275.097656 602.78125 C 274.832031 606.480469 274.566406 610.839844 274.367188 615.730469 L 274.367188 615.996094 C 273.574219 635.289062 276.019531 652.597656 281.4375 667.265625 C 289.039062 687.75 303.773438 703.476562 322.800781 711.535156 C 328.351562 713.914062 334.828125 715.964844 341.699219 717.417969 C 331.65625 719.597656 322.140625 723.429688 314.476562 727.59375 C 296.371094 737.570312 283.355469 754.683594 277.871094 775.828125 C 273.90625 791.023438 273.3125 808.402344 276.019531 827.5625 L 276.085938 827.828125 C 276.746094 832.714844 277.472656 837.011719 278.136719 840.644531 C 278.730469 843.816406 279.257812 846.394531 279.785156 848.242188 C 279.917969 848.707031 280.050781 849.234375 280.25 849.761719 C 279.125 851.414062 278.796875 853.53125 278.53125 854.917969 C 278.203125 856.832031 277.9375 859.410156 277.671875 862.648438 C 277.410156 866.347656 277.144531 870.707031 276.945312 875.597656 L 276.945312 875.863281 C 276.152344 895.15625 278.597656 912.46875 284.015625 927.136719 C 291.613281 947.617188 306.347656 963.34375 325.378906 971.40625 C 330.929688 973.785156 337.402344 975.832031 344.273438 977.285156 C 334.230469 979.464844 324.71875 983.296875 317.050781 987.460938 C 298.949219 997.4375 285.933594 1014.550781 280.449219 1035.695312 C 276.484375 1050.890625 275.890625 1068.269531 278.597656 1087.429688 L 278.664062 1087.695312 C 279.324219 1092.585938 280.050781 1096.878906 280.710938 1100.511719 C 281.308594 1103.683594 281.835938 1106.261719 282.363281 1108.113281 C 282.628906 1108.96875 282.890625 1110.160156 283.488281 1111.28125 C 282.164062 1112.933594 281.769531 1115.246094 281.570312 1116.765625 C 281.242188 1118.683594 280.976562 1121.261719 280.710938 1124.496094 C 280.449219 1128.199219 280.183594 1132.558594 279.984375 1137.449219 L 279.984375 1137.710938 C 279.191406 1157.007812 281.636719 1174.316406 287.054688 1188.984375 C 294.652344 1209.46875 309.386719 1225.195312 328.417969 1233.253906 C 333.96875 1235.632812 340.441406 1237.683594 347.3125 1239.136719 C 337.269531 1241.316406 327.757812 1245.148438 320.09375 1249.3125 C 301.988281 1259.289062 288.972656 1276.402344 283.488281 1297.542969 C 279.523438 1312.742188 278.929688 1330.117188 281.636719 1349.28125 L 281.703125 1349.542969 C 282.363281 1354.433594 283.089844 1358.730469 283.75 1362.363281 C 284.347656 1365.535156 284.875 1368.113281 285.402344 1369.960938 C 286.0625 1372.273438 287.253906 1376.636719 291.480469 1376.832031 C 327.625 1378.15625 354.78125 1372.007812 374.667969 1358.066406 C 391.253906 1346.4375 402.484375 1328.070312 406.316406 1306.398438 C 406.449219 1305.671875 406.582031 1304.945312 406.714844 1304.152344 C 408.433594 1312.277344 411.074219 1319.945312 414.113281 1326.417969 C 422.902344 1345.25 439.222656 1359.390625 460.035156 1366.328125 C 474.96875 1371.28125 492.347656 1373.066406 511.707031 1371.546875 L 511.96875 1371.546875 C 516.925781 1371.152344 521.285156 1370.753906 524.921875 1370.359375 C 528.15625 1369.960938 530.734375 1369.566406 532.652344 1369.234375 C 535.03125 1368.773438 539.457031 1367.847656 539.917969 1363.550781 C 541.175781 1351.328125 541.503906 1340.097656 540.84375 1329.722656 C 539.65625 1309.4375 534.898438 1292.65625 526.507812 1278.847656 C 515.933594 1261.46875 498.292969 1248.980469 476.820312 1243.695312 C 474.042969 1243.035156 470.9375 1242.308594 467.699219 1241.710938 C 473.84375 1240.457031 479.59375 1238.804688 484.351562 1237.21875 C 505.230469 1230.28125 521.816406 1216.539062 530.933594 1198.433594 C 538.332031 1183.765625 541.703125 1166.324219 541.109375 1145.507812 C 540.84375 1135.597656 539.65625 1124.894531 537.539062 1113.398438 C 536.746094 1109.167969 532.320312 1108.640625 529.875 1108.375 C 528.554688 1108.242188 526.835938 1108.046875 524.789062 1107.980469 C 526.703125 1107.714844 528.355469 1107.449219 529.679688 1107.1875 C 532.054688 1106.722656 536.484375 1105.796875 536.945312 1101.503906 C 538.203125 1089.28125 538.53125 1078.046875 537.871094 1067.675781 C 536.679688 1047.390625 531.925781 1030.605469 523.53125 1016.796875 C 512.960938 999.421875 495.320312 986.933594 473.84375 981.644531 C 471.070312 980.984375 467.964844 980.257812 464.726562 979.664062 C 470.871094 978.410156 476.621094 976.757812 481.378906 975.171875 C 502.257812 968.234375 518.839844 954.488281 527.960938 936.386719 C 535.359375 921.71875 538.730469 904.273438 538.136719 883.460938 C 537.871094 873.550781 536.683594 862.847656 534.566406 851.347656 C 533.972656 848.242188 531.394531 847.121094 529.082031 846.65625 C 531.394531 845.996094 534.039062 844.742188 534.367188 841.4375 C 535.625 829.214844 535.953125 817.980469 535.292969 807.609375 C 534.105469 787.324219 529.347656 770.539062 520.957031 756.730469 C 510.382812 739.355469 492.742188 726.867188 471.269531 721.582031 C 468.492188 720.917969 465.386719 720.191406 462.152344 719.597656 C 468.296875 718.34375 474.042969 716.691406 478.800781 715.105469 C 499.679688 708.167969 516.265625 694.425781 525.382812 676.320312 C 532.785156 661.652344 536.152344 644.207031 535.558594 623.394531 C 535.292969 613.484375 534.105469 602.78125 531.992188 591.28125 C 531.199219 587.054688 526.769531 586.527344 524.324219 586.261719 C 524.195312 586.261719 524.0625 586.261719 523.863281 586.195312 C 524.128906 586.128906 524.390625 586.0625 524.65625 586.0625 C 527.035156 585.601562 531.460938 584.675781 531.925781 580.382812 C 533.179688 568.15625 533.511719 556.925781 532.847656 546.550781 C 531.660156 526.265625 526.902344 509.484375 518.511719 495.675781 C 507.941406 478.296875 490.296875 465.808594 468.824219 460.523438 C 466.050781 459.863281 462.945312 459.136719 459.707031 458.542969 C 465.851562 457.285156 471.597656 455.632812 476.355469 454.046875 C 497.234375 447.109375 513.820312 433.367188 522.9375 415.261719 C 530.339844 400.59375 533.707031 383.152344 533.113281 362.335938 C 532.847656 352.425781 531.660156 341.722656 529.546875 330.226562 C 528.949219 327.121094 526.375 325.996094 524.0625 325.535156 C 526.375 324.875 529.015625 323.617188 529.347656 320.316406 C 530.601562 308.089844 530.933594 296.859375 530.273438 286.484375 C 529.082031 266.199219 524.324219 249.417969 515.933594 235.609375 C 505.363281 218.230469 487.722656 205.742188 466.246094 200.457031 C 463.472656 199.796875 460.367188 199.070312 457.128906 198.476562 C 463.273438 197.21875 469.023438 195.566406 473.78125 193.980469 C 494.660156 187.042969 511.242188 173.300781 520.363281 155.195312 C 527.761719 140.527344 531.132812 123.085938 530.535156 102.273438 C 530.273438 92.359375 529.082031 81.65625 526.96875 70.160156 C 526.175781 65.929688 521.75 65.402344 519.304688 65.136719 C 517.386719 64.875 514.8125 64.742188 511.507812 64.609375 C 507.808594 64.476562 503.445312 64.410156 498.492188 64.410156 Z M 321.742188 181.691406 C 305.226562 174.6875 292.472656 161.011719 285.800781 143.105469 C 283.488281 136.828125 281.769531 130.023438 280.644531 122.753906 C 279.390625 114.363281 278.929688 105.3125 279.324219 95.664062 L 279.324219 95.398438 C 279.523438 90.113281 279.785156 85.949219 279.984375 82.84375 C 281.96875 84.628906 285.074219 84.496094 286.921875 82.515625 C 287.980469 81.390625 288.441406 79.804688 288.179688 78.417969 C 288.046875 77.363281 287.515625 76.4375 286.722656 75.644531 C 315.929688 72.671875 338.660156 75.972656 356.101562 85.753906 C 371.429688 94.34375 382.863281 109.339844 388.214844 127.972656 C 391.847656 140.660156 398.585938 171.253906 383.125 181.625 C 366.671875 192.726562 340.441406 189.621094 321.742188 181.691406 Z M 280.910156 305.777344 L 280.84375 305.515625 C 278.265625 287.675781 278.863281 271.550781 282.429688 257.675781 C 287.253906 239.175781 298.550781 224.242188 314.210938 215.652344 C 331.984375 205.875 357.820312 200.125 375.328125 209.441406 C 391.78125 218.164062 388.148438 249.351562 385.835938 262.300781 C 382.464844 281.398438 372.621094 297.453125 358.214844 307.5625 C 341.960938 318.992188 319.761719 324.609375 290.6875 324.742188 C 290.6875 324.675781 290.6875 324.542969 290.6875 324.476562 C 290.753906 322.957031 290.160156 321.4375 288.90625 320.445312 C 287.1875 318.992188 284.808594 318.925781 283.023438 320.117188 C 282.628906 316.8125 281.835938 312.121094 280.910156 305.777344 Z M 449.464844 323.949219 C 455.742188 326.0625 462.480469 327.515625 469.617188 328.507812 C 462.613281 330.027344 456.070312 332.007812 449.992188 334.585938 C 429.839844 343.042969 414.777344 358.371094 407.507812 377.730469 C 405.589844 382.886719 403.9375 388.699219 402.75 394.910156 C 402.023438 391.410156 401.164062 388.105469 400.304688 385.199219 C 394.226562 364.054688 381.210938 346.941406 363.503906 337.03125 C 356.234375 332.933594 348.171875 329.894531 339.253906 327.78125 C 348.570312 324.742188 356.761719 320.710938 364.03125 315.621094 C 380.617188 303.992188 391.847656 285.625 395.679688 263.953125 C 395.8125 263.226562 395.945312 262.5 396.078125 261.707031 C 397.792969 269.835938 400.4375 277.5 403.476562 283.972656 C 412.332031 302.871094 428.652344 317.011719 449.464844 323.949219 Z M 324.253906 441.691406 C 307.734375 434.6875 294.984375 421.011719 288.308594 403.105469 C 285.996094 396.828125 284.28125 390.023438 283.15625 382.753906 C 281.902344 374.363281 281.4375 365.308594 281.835938 355.664062 L 281.835938 355.398438 C 282.035156 350.113281 282.296875 345.949219 282.496094 342.84375 C 284.476562 344.628906 287.582031 344.496094 289.433594 342.515625 C 290.492188 341.390625 290.953125 339.804688 290.6875 338.417969 C 290.558594 337.359375 290.027344 336.4375 289.234375 335.644531 C 318.441406 332.671875 341.167969 335.972656 358.613281 345.753906 C 373.941406 354.34375 385.371094 369.339844 390.726562 387.972656 C 394.359375 400.660156 401.097656 431.253906 385.636719 441.625 C 369.25 452.660156 342.953125 449.621094 324.253906 441.691406 Z M 283.488281 565.710938 L 283.421875 565.449219 C 280.84375 547.609375 281.4375 531.484375 285.007812 517.609375 C 289.828125 499.109375 301.128906 484.175781 316.789062 475.585938 C 334.5625 465.808594 360.398438 460.058594 377.90625 469.375 C 394.359375 478.097656 390.726562 509.285156 388.410156 522.234375 C 385.042969 541.332031 375.199219 557.386719 360.792969 567.496094 C 344.539062 578.925781 322.339844 584.542969 293.265625 584.675781 C 293.265625 584.609375 293.265625 584.476562 293.265625 584.410156 C 293.332031 582.890625 292.738281 581.371094 291.480469 580.378906 C 289.765625 578.925781 287.386719 578.859375 285.601562 580.050781 C 285.140625 576.746094 284.410156 572.121094 283.488281 565.710938 Z M 451.976562 583.882812 C 459.109375 586.261719 466.839844 587.914062 475.101562 588.773438 C 466.90625 590.292969 459.308594 592.539062 452.371094 595.511719 C 432.21875 603.96875 417.152344 619.296875 409.886719 638.65625 C 407.96875 643.8125 406.316406 649.625 405.128906 655.835938 C 404.402344 652.335938 403.542969 649.03125 402.683594 646.125 C 396.605469 624.980469 383.589844 607.867188 365.882812 597.957031 C 358.085938 593.59375 349.429688 590.421875 339.847656 588.375 C 349.890625 585.269531 358.8125 581.042969 366.542969 575.625 C 383.125 563.992188 394.359375 545.625 398.191406 523.953125 C 398.324219 523.226562 398.457031 522.5 398.585938 521.707031 C 400.304688 529.835938 402.949219 537.5 405.988281 543.972656 C 414.839844 562.804688 431.160156 577.011719 451.976562 583.882812 Z M 326.699219 702.617188 C 310.179688 695.613281 297.429688 681.9375 290.753906 664.03125 C 288.441406 657.753906 286.722656 650.945312 285.601562 643.679688 C 284.347656 635.289062 283.882812 626.234375 284.28125 616.589844 L 284.28125 616.324219 C 284.476562 611.039062 284.742188 606.875 284.941406 603.769531 C 286.921875 605.554688 290.027344 605.421875 291.878906 603.441406 C 292.933594 602.316406 293.398438 600.730469 293.132812 599.34375 C 293 598.285156 292.472656 597.359375 291.679688 596.570312 C 320.882812 593.59375 343.613281 596.898438 361.058594 606.675781 C 376.386719 615.265625 387.816406 630.265625 393.167969 648.898438 C 396.804688 661.585938 403.542969 692.175781 388.082031 702.550781 C 371.628906 713.585938 345.398438 710.546875 326.699219 702.617188 Z M 285.867188 826.703125 L 285.800781 826.4375 C 283.222656 808.597656 283.816406 792.476562 287.386719 778.601562 C 292.207031 760.101562 303.507812 745.167969 319.167969 736.578125 C 336.941406 726.800781 362.777344 721.050781 380.285156 730.367188 C 396.738281 739.089844 393.101562 770.277344 390.789062 783.226562 C 387.421875 802.320312 377.574219 818.378906 363.171875 828.488281 C 346.917969 839.917969 324.71875 845.535156 295.644531 845.667969 C 295.644531 845.601562 295.644531 845.535156 295.644531 845.402344 C 295.710938 843.882812 295.117188 842.363281 293.859375 841.371094 C 292.144531 839.917969 289.765625 839.851562 287.980469 841.042969 C 287.582031 837.671875 286.789062 833.046875 285.867188 826.703125 Z M 454.417969 844.808594 C 460.695312 846.921875 467.4375 848.375 474.570312 849.367188 C 467.570312 850.886719 461.027344 852.867188 454.949219 855.445312 C 434.796875 863.902344 419.730469 879.230469 412.460938 898.589844 C 410.546875 903.746094 408.894531 909.558594 407.707031 915.769531 C 406.980469 912.269531 406.121094 908.964844 405.261719 906.058594 C 399.183594 884.914062 386.164062 867.800781 368.457031 857.890625 C 361.191406 853.792969 353.128906 850.753906 344.207031 848.640625 C 353.523438 845.601562 361.71875 841.570312 368.988281 836.480469 C 385.570312 824.851562 396.804688 806.484375 400.636719 784.8125 C 400.769531 784.085938 400.898438 783.359375 401.03125 782.566406 C 402.75 790.691406 405.394531 798.355469 408.433594 804.832031 C 417.285156 823.730469 433.605469 837.9375 454.417969 844.808594 Z M 329.210938 962.550781 C 312.691406 955.546875 299.9375 941.871094 293.265625 923.964844 C 290.953125 917.6875 289.234375 910.882812 288.113281 903.613281 C 286.855469 895.222656 286.394531 886.167969 286.789062 876.523438 L 286.789062 876.257812 C 286.988281 870.972656 287.253906 866.808594 287.453125 863.703125 C 289.433594 865.488281 292.539062 865.355469 294.390625 863.375 C 295.445312 862.25 295.910156 860.664062 295.644531 859.277344 C 295.511719 858.21875 294.984375 857.296875 294.191406 856.503906 C 323.394531 853.527344 346.125 856.832031 363.566406 866.613281 C 378.898438 875.203125 390.328125 890.199219 395.679688 908.832031 C 399.3125 921.519531 406.054688 952.109375 390.59375 962.484375 C 374.207031 973.519531 347.910156 970.480469 329.210938 962.550781 Z M 288.441406 1086.636719 L 288.375 1086.371094 C 285.800781 1068.53125 286.394531 1052.410156 289.960938 1038.535156 C 294.785156 1020.035156 306.085938 1005.101562 321.742188 996.511719 C 339.515625 986.734375 365.351562 980.984375 382.863281 990.300781 C 399.3125 999.023438 395.679688 1030.210938 393.367188 1043.160156 C 389.996094 1062.253906 380.152344 1078.3125 365.75 1088.421875 C 349.496094 1099.851562 327.292969 1105.46875 298.222656 1105.601562 C 298.222656 1105.535156 298.222656 1105.46875 298.222656 1105.335938 C 298.289062 1103.816406 297.691406 1102.296875 296.4375 1101.304688 C 294.71875 1099.851562 292.339844 1099.785156 290.558594 1100.976562 C 290.09375 1097.605469 289.367188 1092.980469 288.441406 1086.636719 Z M 332.183594 1224.464844 C 315.664062 1217.464844 302.914062 1203.785156 296.238281 1185.878906 C 293.925781 1179.601562 292.207031 1172.796875 291.085938 1165.527344 C 289.828125 1157.136719 289.367188 1148.085938 289.765625 1138.4375 L 289.765625 1138.175781 C 289.960938 1132.886719 290.226562 1128.726562 290.425781 1125.621094 C 292.40625 1127.40625 295.511719 1127.273438 297.363281 1125.289062 C 298.417969 1124.167969 298.882812 1122.582031 298.617188 1121.195312 C 298.484375 1120.136719 297.957031 1119.210938 297.164062 1118.417969 C 326.367188 1115.445312 349.097656 1118.75 366.542969 1128.527344 C 381.871094 1137.117188 393.300781 1152.117188 398.652344 1170.75 C 402.289062 1183.433594 409.027344 1214.027344 393.566406 1224.402344 C 377.179688 1235.5 350.882812 1232.394531 332.183594 1224.464844 Z M 368.855469 1350.335938 C 352.601562 1361.769531 330.398438 1367.382812 301.328125 1367.515625 C 301.328125 1367.449219 301.328125 1367.382812 301.328125 1367.253906 C 301.394531 1365.730469 300.796875 1364.210938 299.542969 1363.222656 C 297.824219 1361.769531 295.445312 1361.703125 293.664062 1362.890625 C 293 1359.585938 292.273438 1354.960938 291.351562 1348.621094 L 291.285156 1348.355469 C 288.707031 1330.515625 289.300781 1314.394531 292.871094 1300.519531 C 297.691406 1282.015625 308.992188 1267.085938 324.652344 1258.496094 C 342.425781 1248.714844 368.257812 1242.96875 385.769531 1252.285156 C 402.222656 1261.003906 398.585938 1292.191406 396.273438 1305.144531 C 393.039062 1324.105469 383.257812 1340.226562 368.855469 1350.335938 Z M 474.441406 1253.804688 C 493.335938 1258.496094 508.796875 1269.332031 517.984375 1284.460938 C 528.554688 1301.90625 532.71875 1325.03125 530.667969 1355.09375 C 528.621094 1353.375 525.582031 1353.574219 523.796875 1355.558594 C 522.410156 1357.078125 522.144531 1359.191406 522.9375 1360.910156 C 519.898438 1361.238281 516.066406 1361.636719 511.175781 1361.964844 L 510.914062 1361.964844 C 492.875 1363.355469 476.820312 1361.769531 463.074219 1357.207031 C 444.90625 1351.195312 430.632812 1338.839844 423.035156 1322.519531 C 414.378906 1304.019531 410.347656 1277.789062 420.789062 1260.808594 C 430.632812 1244.949219 461.554688 1250.632812 474.441406 1253.804688 Z M 433.671875 1241.644531 C 424.882812 1243.628906 417.152344 1247.789062 412.332031 1255.652344 C 409.953125 1259.550781 408.167969 1263.714844 406.914062 1268.007812 C 404.796875 1257.636719 399.976562 1248.453125 390.527344 1243.429688 C 387.75 1241.976562 384.910156 1240.785156 381.9375 1239.929688 C 388.015625 1238.539062 393.894531 1236.226562 399.117188 1232.660156 C 405.65625 1228.300781 409.421875 1221.890625 411.40625 1214.621094 C 413.058594 1220.570312 415.632812 1226.25 419.335938 1231.273438 C 423.101562 1236.425781 428.054688 1239.664062 433.671875 1241.644531 Z M 522.011719 1194.46875 C 514.085938 1210.195312 499.546875 1222.21875 481.179688 1228.300781 C 468.691406 1232.460938 438.363281 1240.523438 427.328125 1225.457031 C 421.714844 1217.859375 419.269531 1207.882812 418.9375 1197.441406 C 418.609375 1186.011719 420.921875 1174.050781 424.6875 1164.074219 C 430.964844 1147.292969 444.113281 1133.945312 461.753906 1126.546875 C 474.96875 1120.996094 490.828125 1118.089844 508.863281 1118.089844 L 509.195312 1118.089844 C 515.007812 1118.089844 519.4375 1118.152344 522.671875 1118.285156 L 522.34375 1118.683594 C 520.492188 1120.730469 520.691406 1123.835938 522.738281 1125.6875 C 524.65625 1127.40625 527.5625 1127.339844 529.414062 1125.621094 C 533.378906 1154.164062 530.933594 1176.761719 522.011719 1194.46875 Z M 484.085938 1110.09375 C 474.570312 1111.613281 465.851562 1114.058594 457.921875 1117.425781 C 437.769531 1125.886719 422.703125 1141.214844 415.4375 1160.574219 C 413.519531 1165.726562 411.867188 1171.542969 410.679688 1177.753906 C 409.953125 1174.25 409.09375 1170.945312 408.234375 1168.039062 C 402.15625 1146.894531 389.140625 1129.78125 371.429688 1119.871094 C 363.039062 1115.179688 353.65625 1111.8125 343.085938 1109.761719 C 353.855469 1106.65625 363.304688 1102.230469 371.496094 1096.480469 C 388.082031 1084.851562 399.3125 1066.484375 403.148438 1044.8125 C 403.277344 1044.085938 403.410156 1043.359375 403.542969 1042.566406 C 405.261719 1050.691406 407.902344 1058.359375 410.941406 1064.832031 C 419.730469 1083.664062 436.050781 1097.804688 456.863281 1104.742188 C 465.253906 1107.515625 474.375 1109.300781 484.085938 1110.09375 Z M 471.464844 991.820312 C 490.363281 996.511719 505.824219 1007.347656 515.007812 1022.480469 C 525.582031 1039.921875 529.742188 1063.046875 527.695312 1093.113281 C 525.648438 1091.394531 522.609375 1091.59375 520.824219 1093.574219 C 519.4375 1095.09375 519.171875 1097.207031 519.964844 1098.925781 C 516.925781 1099.257812 513.09375 1099.652344 508.203125 1099.984375 L 507.9375 1099.984375 C 489.902344 1101.371094 473.84375 1099.785156 460.101562 1095.226562 C 441.929688 1089.214844 427.660156 1076.859375 420.0625 1060.539062 C 411.40625 1042.039062 407.375 1015.804688 417.816406 998.824219 C 427.660156 983.035156 458.582031 988.648438 471.464844 991.820312 Z M 430.699219 979.664062 C 421.910156 981.644531 414.179688 985.808594 409.355469 993.671875 C 406.980469 997.570312 405.195312 1001.730469 403.9375 1006.027344 C 401.824219 995.652344 397 986.46875 387.554688 981.449219 C 384.777344 979.992188 381.9375 978.804688 378.964844 977.945312 C 385.042969 976.558594 390.921875 974.246094 396.144531 970.675781 C 402.683594 966.316406 406.449219 959.90625 408.433594 952.640625 C 410.085938 958.585938 412.660156 964.269531 416.359375 969.289062 C 420.128906 974.445312 425.082031 977.746094 430.699219 979.664062 Z M 519.039062 932.488281 C 511.109375 948.210938 496.574219 960.238281 478.207031 966.316406 C 465.71875 970.480469 435.390625 978.539062 424.355469 963.476562 C 418.738281 955.878906 416.296875 945.898438 415.964844 935.460938 C 415.632812 924.03125 417.945312 912.070312 421.714844 902.09375 C 427.988281 885.308594 441.140625 871.964844 458.78125 864.5625 C 471.996094 859.011719 487.851562 856.105469 505.890625 856.105469 L 506.222656 856.105469 C 512.035156 856.105469 516.460938 856.171875 519.699219 856.304688 L 519.371094 856.699219 C 517.519531 858.75 517.71875 861.855469 519.765625 863.703125 C 521.683594 865.421875 524.589844 865.355469 526.441406 863.636719 C 530.40625 892.25 527.960938 914.84375 519.039062 932.488281 Z M 468.890625 731.886719 C 487.785156 736.578125 503.25 747.414062 512.433594 762.546875 C 523.003906 779.988281 527.167969 803.113281 525.117188 833.179688 C 523.070312 831.460938 520.03125 831.660156 518.246094 833.640625 C 516.859375 835.160156 516.59375 837.273438 517.386719 838.992188 C 514.347656 839.324219 510.515625 839.71875 505.625 840.050781 L 505.363281 840.050781 C 487.324219 841.4375 471.269531 839.851562 457.523438 835.292969 C 439.355469 829.28125 425.082031 816.925781 417.484375 800.605469 C 408.828125 782.101562 404.796875 755.871094 415.238281 738.890625 C 425.082031 723.035156 456.070312 728.714844 468.890625 731.886719 Z M 428.121094 719.730469 C 419.335938 721.710938 411.605469 725.875 406.78125 733.738281 C 404.402344 737.636719 402.617188 741.796875 401.363281 746.09375 C 399.25 735.71875 394.425781 726.535156 384.976562 721.515625 C 382.199219 720.058594 379.359375 718.871094 376.386719 718.011719 C 382.464844 716.625 388.347656 714.3125 393.566406 710.742188 C 400.105469 706.382812 403.875 699.972656 405.855469 692.707031 C 407.507812 698.652344 410.085938 704.335938 413.785156 709.355469 C 417.550781 714.511719 422.507812 717.746094 428.121094 719.730469 Z M 516.527344 672.554688 C 508.601562 688.277344 494.0625 700.304688 475.695312 706.382812 C 463.207031 710.546875 432.878906 718.605469 421.84375 703.542969 C 416.230469 695.941406 413.785156 685.964844 413.453125 675.527344 C 413.125 664.09375 415.4375 652.136719 419.203125 642.160156 C 425.480469 625.375 438.628906 612.03125 456.269531 604.628906 C 469.484375 599.078125 485.34375 596.171875 503.378906 596.171875 L 503.710938 596.171875 C 509.523438 596.171875 513.953125 596.238281 517.191406 596.371094 L 516.859375 596.765625 C 515.007812 598.816406 515.207031 601.921875 517.253906 603.769531 C 519.171875 605.488281 522.078125 605.421875 523.929688 603.703125 C 527.828125 632.3125 525.449219 654.910156 516.527344 672.554688 Z M 466.511719 470.960938 C 485.40625 475.652344 500.871094 486.488281 510.054688 501.621094 C 520.625 519.0625 524.789062 542.191406 522.738281 572.253906 C 520.691406 570.535156 517.652344 570.734375 515.867188 572.714844 C 514.480469 574.234375 514.214844 576.351562 515.007812 578.066406 C 511.96875 578.398438 508.136719 578.792969 503.246094 579.125 L 502.984375 579.125 C 484.945312 580.511719 468.890625 578.925781 455.144531 574.367188 C 436.976562 568.355469 422.703125 556 415.105469 539.679688 C 406.449219 521.179688 402.417969 494.945312 412.859375 477.964844 C 422.703125 462.109375 453.625 467.789062 466.511719 470.960938 Z M 425.742188 458.804688 C 416.957031 460.785156 409.226562 464.949219 404.402344 472.8125 C 402.023438 476.710938 400.238281 480.875 398.984375 485.167969 C 396.871094 474.792969 392.046875 465.609375 382.597656 460.589844 C 379.824219 459.136719 376.980469 457.945312 374.007812 457.085938 C 380.085938 455.699219 385.96875 453.386719 391.1875 449.820312 C 397.726562 445.457031 401.496094 439.046875 403.476562 431.78125 C 405.128906 437.726562 407.707031 443.410156 411.40625 448.429688 C 415.171875 453.585938 420.128906 456.824219 425.742188 458.804688 Z M 514.085938 411.628906 C 506.15625 427.355469 491.617188 439.378906 473.25 445.457031 C 460.761719 449.621094 430.433594 457.679688 419.402344 442.617188 C 413.785156 435.019531 411.339844 425.039062 411.007812 414.601562 C 410.679688 403.171875 412.992188 391.210938 416.757812 381.234375 C 423.035156 364.453125 436.183594 351.105469 453.824219 343.703125 C 467.039062 338.152344 482.898438 335.246094 500.933594 335.246094 L 501.265625 335.246094 C 507.082031 335.246094 511.507812 335.3125 514.746094 335.445312 L 514.414062 335.839844 C 512.566406 337.890625 512.761719 340.996094 514.8125 342.84375 C 516.726562 344.5625 519.632812 344.496094 521.484375 342.777344 C 525.449219 371.324219 523.003906 393.921875 514.085938 411.628906 Z M 463.933594 210.960938 C 482.832031 215.652344 498.292969 226.488281 507.476562 241.621094 C 518.046875 259.0625 522.210938 282.191406 520.164062 312.253906 C 518.113281 310.535156 515.074219 310.734375 513.292969 312.714844 C 511.902344 314.234375 511.640625 316.351562 512.433594 318.066406 C 509.394531 318.398438 505.5625 318.792969 500.671875 319.125 L 500.40625 319.125 C 482.367188 320.511719 466.3125 318.925781 452.570312 314.367188 C 434.398438 308.355469 420.128906 296 412.527344 279.679688 C 403.875 261.179688 399.84375 234.945312 410.28125 217.964844 C 420.128906 202.175781 451.117188 207.789062 463.933594 210.960938 Z M 423.167969 198.871094 C 414.378906 200.851562 406.648438 205.015625 401.824219 212.878906 C 399.445312 216.777344 397.664062 220.9375 396.40625 225.234375 C 394.292969 214.859375 389.46875 205.675781 380.019531 200.65625 C 377.246094 199.203125 374.40625 198.011719 371.429688 197.152344 C 377.511719 195.765625 383.390625 193.453125 388.609375 189.886719 C 395.152344 185.523438 398.917969 179.113281 400.898438 171.847656 C 402.550781 177.792969 405.128906 183.476562 408.828125 188.496094 C 412.59375 193.585938 417.550781 196.886719 423.167969 198.871094 Z M 511.574219 151.628906 C 503.644531 167.355469 489.109375 179.378906 470.738281 185.457031 C 458.25 189.621094 427.925781 197.679688 416.890625 182.617188 C 411.273438 175.019531 408.828125 165.039062 408.5 154.601562 C 408.167969 143.171875 410.480469 131.210938 414.246094 121.234375 C 420.523438 104.453125 433.671875 91.105469 451.3125 83.703125 C 464.527344 78.152344 480.386719 75.246094 498.425781 75.246094 L 498.753906 75.246094 C 504.570312 75.246094 508.996094 75.3125 512.234375 75.445312 L 511.902344 75.839844 C 510.054688 77.890625 510.253906 80.996094 512.300781 82.84375 C 514.214844 84.5625 517.125 84.496094 518.972656 82.78125 C 522.871094 111.390625 520.492188 133.988281 511.574219 151.628906 Z M 511.574219 151.628906 " fill-opacity="1" fill-rule="nonzero"/></g><path fill="#fff7ed" d="M 376.253906 224.96875 C 376.519531 219.882812 372.554688 215.585938 367.464844 215.324219 C 362.378906 215.058594 358.085938 219.023438 357.820312 224.109375 C 357.554688 229.199219 361.519531 233.492188 366.609375 233.757812 C 371.761719 233.957031 376.054688 230.058594 376.253906 224.96875 Z M 376.253906 224.96875 " fill-opacity="1" fill-rule="nonzero"/><path fill="#fff7ed" d="M 416.097656 229.199219 C 416.425781 234.285156 420.789062 238.183594 425.875 237.921875 C 430.964844 237.65625 434.863281 233.230469 434.53125 228.140625 C 434.199219 223.054688 429.839844 219.15625 424.753906 219.417969 C 419.664062 219.683594 415.765625 224.109375 416.097656 229.199219 Z M 416.097656 229.199219 " fill-opacity="1" fill-rule="nonzero"/><path fill="#fff7ed" d="M 381.671875 165.371094 C 380.945312 160.351562 376.253906 156.914062 371.167969 157.640625 C 366.144531 158.367188 362.710938 163.058594 363.4375 168.144531 C 364.164062 173.167969 368.855469 176.605469 373.941406 175.878906 C 378.964844 175.085938 382.398438 170.394531 381.671875 165.371094 Z M 381.671875 165.371094 " fill-opacity="1" fill-rule="nonzero"/><path fill="#fff7ed" d="M 423.101562 172.441406 C 423.234375 177.527344 427.460938 181.492188 432.550781 181.363281 C 437.636719 181.230469 441.601562 177 441.46875 171.914062 C 441.335938 166.824219 437.109375 162.859375 432.019531 162.992188 C 426.933594 163.125 422.96875 167.355469 423.101562 172.441406 Z M 423.101562 172.441406 " fill-opacity="1" fill-rule="nonzero"/><path fill="#fff7ed" d="M 309.652344 98.503906 C 309.519531 97.449219 308.992188 96.390625 308.132812 95.597656 L 297.429688 85.554688 C 295.445312 83.703125 292.273438 83.769531 290.425781 85.820312 C 288.574219 87.800781 288.640625 90.972656 290.6875 92.824219 L 301.394531 102.867188 C 303.375 104.714844 306.546875 104.648438 308.398438 102.601562 C 309.453125 101.476562 309.851562 99.957031 309.652344 98.503906 Z M 309.652344 98.503906 " fill-opacity="1" fill-rule="nonzero"/><path fill="#fff7ed" d="M 325.246094 113.042969 C 325.113281 111.984375 324.585938 110.925781 323.726562 110.132812 L 318.902344 105.640625 C 316.921875 103.789062 313.75 103.855469 311.898438 105.90625 C 310.046875 107.886719 310.113281 111.058594 312.164062 112.910156 L 316.988281 117.402344 C 318.96875 119.253906 322.140625 119.1875 323.988281 117.136719 C 325.046875 116.015625 325.445312 114.496094 325.246094 113.042969 Z M 325.246094 113.042969 " fill-opacity="1" fill-rule="nonzero"/><path fill="#fff7ed" d="M 299.144531 316.085938 L 308.527344 304.785156 C 309.253906 303.929688 309.652344 302.871094 309.652344 301.878906 C 309.71875 300.359375 309.125 298.839844 307.867188 297.847656 C 305.753906 296.066406 302.648438 296.394531 300.863281 298.511719 L 291.480469 309.808594 C 289.699219 311.921875 290.027344 315.027344 292.144531 316.8125 C 294.324219 318.464844 297.429688 318.199219 299.144531 316.085938 Z M 299.144531 316.085938 " fill-opacity="1" fill-rule="nonzero"/><path fill="#fff7ed" d="M 317.976562 293.488281 L 322.207031 288.402344 C 322.933594 287.542969 323.328125 286.484375 323.328125 285.492188 C 323.394531 283.972656 322.800781 282.453125 321.546875 281.464844 C 319.429688 279.679688 316.324219 280.007812 314.542969 282.125 L 310.3125 287.210938 C 308.527344 289.324219 308.859375 292.429688 310.972656 294.214844 C 313.089844 295.867188 316.257812 295.601562 317.976562 293.488281 Z M 317.976562 293.488281 " fill-opacity="1" fill-rule="nonzero"/><path fill="#fff7ed" d="M 491.355469 292.960938 C 489.503906 295.007812 489.703125 298.179688 491.683594 299.964844 L 502.652344 309.875 C 504.703125 311.726562 507.808594 311.527344 509.65625 309.542969 C 510.582031 308.488281 510.980469 307.230469 510.914062 305.910156 C 510.847656 304.65625 510.316406 303.398438 509.261719 302.472656 L 498.292969 292.5625 C 496.375 290.78125 493.203125 290.910156 491.355469 292.960938 Z M 491.355469 292.960938 " fill-opacity="1" fill-rule="nonzero"/><path fill="#fff7ed" d="M 475.496094 278.621094 C 473.648438 280.671875 473.84375 283.839844 475.828125 285.625 L 480.78125 290.050781 C 482.832031 291.902344 485.9375 291.703125 487.785156 289.722656 C 488.710938 288.664062 489.109375 287.410156 489.042969 286.089844 C 488.976562 284.832031 488.449219 283.578125 487.390625 282.652344 L 482.433594 278.226562 C 480.453125 276.441406 477.347656 276.574219 475.496094 278.621094 Z M 475.496094 278.621094 " fill-opacity="1" fill-rule="nonzero"/><path fill="#fff7ed" d="M 501.992188 86.808594 L 492.214844 97.777344 C 490.363281 99.828125 490.5625 102.933594 492.609375 104.78125 C 494.660156 106.632812 497.765625 106.433594 499.613281 104.386719 L 509.394531 93.417969 C 510.253906 92.425781 510.714844 91.171875 510.648438 89.980469 C 510.582031 88.660156 510.054688 87.339844 508.996094 86.414062 C 506.949219 84.628906 503.84375 84.761719 501.992188 86.808594 Z M 501.992188 86.808594 " fill-opacity="1" fill-rule="nonzero"/><path fill="#fff7ed" d="M 482.433594 108.746094 L 478.007812 113.703125 C 476.15625 115.75 476.355469 118.855469 478.40625 120.707031 C 480.453125 122.554688 483.558594 122.359375 485.40625 120.308594 L 489.835938 115.355469 C 490.695312 114.363281 491.15625 113.105469 491.089844 111.917969 C 491.023438 110.597656 490.496094 109.339844 489.4375 108.351562 C 487.390625 106.5 484.21875 106.699219 482.433594 108.746094 Z M 482.433594 108.746094 " fill-opacity="1" fill-rule="nonzero"/></svg>