<svg xmlns="http://www.w3.org/2000/svg" xmlns:xlink="http://www.w3.org/1999/xlink" width="1080" zoomAndPan="magnify" viewBox="0 0 810 1439.999935" height="1920" preserveAspectRatio="xMidYMid meet" version="1.0"><defs><clipPath id="a2dc87c2df"><path d="M 40.285156 749 L 287 749 L 287 874 L 40.285156 874 Z M 40.285156 749 " clip-rule="nonzero"/></clipPath></defs><path fill="#cbad9f" d="M 552.140625 725.824219 C 557.25 727.914062 562.699219 730.664062 568.585938 733.464844 C 574.597656 736.164062 580.609375 739.523438 586.957031 743.074219 C 599.828125 749.960938 613.652344 759.085938 626.472656 770.132812 C 652.410156 792.078125 671.925781 816.339844 682.972656 835.78125 C 688.644531 845.390625 691.804688 854.003906 693.703125 859.992188 C 695.261719 865.976562 695.699219 869.382812 695.210938 869.527344 C 694.726562 869.699219 693.316406 866.511719 690.953125 860.867188 C 688.277344 855.464844 684.53125 847.582031 678.496094 838.53125 C 666.621094 820.378906 646.960938 797.285156 621.632812 775.851562 C 609.003906 765.046875 596.132812 756.261719 583.550781 749.058594 C 577.296875 745.335938 571.335938 741.785156 565.667969 738.914062 C 560 735.945312 554.792969 733.023438 549.875 730.617188 C 530.3125 720.6875 518.074219 714.605469 518.558594 713.558594 C 518.972656 712.707031 531.871094 717.0625 552.140625 725.824219 Z M 488.144531 667.28125 C 481.257812 679.664062 474.128906 691.683594 466.585938 703.386719 C 524.253906 712.660156 580.046875 750.082031 622.289062 788.671875 C 662.4375 825.316406 698.449219 877.097656 702.828125 932.671875 C 728.207031 923.496094 744.65625 900.746094 741.515625 870.136719 C 738.5 840.574219 726.164062 813.199219 710.90625 787.96875 C 688.644531 758.28125 662.4375 730.8125 633.382812 709.859375 C 611.097656 693.800781 588.46875 677.132812 564.960938 662.898438 C 545.132812 650.878906 522.429688 645.769531 502.378906 634.429688 C 498.777344 645.746094 494.035156 656.644531 488.144531 667.28125 " fill-opacity="1" fill-rule="nonzero"/><path fill="#cbad9f" d="M 82.648438 760.957031 C 83.863281 753.902344 85.761719 743.609375 90.726562 731.808594 C 95.421875 719.933594 102.675781 706.453125 112.1875 692.609375 C 121.726562 678.738281 133.480469 664.457031 146.738281 650.394531 C 173.089844 622.3125 199.175781 598.90625 220.273438 584.621094 C 225.601562 581.167969 230.296875 577.835938 234.601562 575.304688 C 239.082031 572.96875 242.902344 570.972656 246.039062 569.269531 C 252.339844 566.082031 255.941406 564.523438 256.160156 564.988281 C 256.429688 565.472656 253.316406 567.859375 247.5 571.800781 C 244.578125 573.722656 241.027344 576.105469 236.867188 578.808594 C 232.828125 581.703125 228.398438 585.253906 223.386719 588.929688 C 203.605469 603.871094 178.324219 627.691406 152.214844 655.503906 C 139.125 669.371094 127.445312 683.265625 117.882812 696.601562 C 108.222656 709.910156 100.800781 722.683594 95.570312 733.902344 C 90.167969 745.070312 87.589844 754.753906 85.542969 761.347656 C 84.035156 768.183594 83.011719 771.957031 82.476562 771.957031 C 81.96875 771.859375 82.039062 767.964844 82.648438 760.957031 Z M 85.398438 787.164062 C 88.511719 788.503906 91.796875 789.574219 95.15625 790.523438 C 83.960938 754.65625 112.722656 718.523438 132.992188 689.957031 C 157.835938 655.039062 187.542969 626.570312 221.511719 600.78125 C 257.425781 573.503906 296.917969 546.785156 340.691406 534.058594 C 374.074219 524.304688 414.976562 519.605469 446.269531 537.878906 C 446.367188 529.316406 445.464844 520.992188 443.179688 513.183594 C 429.210938 464.933594 370.71875 465.320312 331.054688 474.910156 C 291.054688 484.570312 253.316406 498.460938 218.542969 520.847656 C 181.65625 544.570312 148.222656 573.671875 119.730469 607.058594 C 105.15625 624.234375 91.359375 642.09375 79.191406 661.074219 C 67.683594 679.128906 52.332031 700.589844 51.527344 722.804688 C 50.675781 746.40625 61.867188 777.140625 85.398438 787.164062 " fill-opacity="1" fill-rule="nonzero"/><path fill="#cbad9f" d="M 341.179688 706.089844 C 368.988281 694.433594 397.457031 661.878906 412.667969 637.035156 C 416.4375 630.878906 420.308594 624.039062 423.933594 616.742188 C 423.542969 616.742188 423.128906 616.765625 422.691406 616.765625 C 400.234375 621.703125 373.371094 627.15625 357.457031 644.359375 C 342.199219 660.855469 338.210938 683.921875 341.179688 706.089844 " fill-opacity="1" fill-rule="nonzero"/><path fill="#cbad9f" d="M 447.074219 456.683594 C 447.4375 455.832031 447.730469 455.027344 448.09375 454.273438 C 448.484375 453.570312 448.945312 452.960938 449.335938 452.328125 C 450.941406 449.847656 452.449219 448.484375 453.640625 447.460938 C 454.835938 446.464844 455.6875 446.074219 456.125 446.34375 C 456.539062 446.660156 456.539062 447.582031 456.074219 449.042969 C 455.636719 450.503906 454.664062 452.546875 454.03125 454.761719 C 453.058594 457 452.765625 459.605469 452.984375 461.964844 C 453.472656 464.347656 455.199219 467.21875 457.21875 470.429688 C 457.535156 470.871094 457.851562 471.257812 458.167969 471.746094 C 461.234375 468.65625 463.886719 465.589844 466.101562 463.425781 C 469.117188 460.527344 471.332031 459.070312 471.988281 459.652344 C 472.71875 460.210938 471.867188 462.667969 469.921875 466.246094 C 469.554688 466.976562 469.117188 467.730469 468.679688 468.507812 C 472.183594 468.121094 475.761719 469.191406 478.4375 471.746094 C 485.347656 478.363281 485.007812 486.878906 480.796875 494.058594 C 482.597656 492.769531 484.472656 491.894531 486.148438 490.871094 C 489.773438 488.753906 492.988281 487.414062 495.761719 486.125 C 501.285156 483.667969 504.789062 482.523438 505.273438 483.328125 C 505.738281 484.082031 503.085938 486.710938 498.265625 490.238281 C 494.570312 492.964844 489.605469 496.054688 484.640625 499.921875 C 485.710938 500.945312 486.757812 501.917969 487.925781 502.84375 C 491.113281 503.378906 494.398438 502.792969 497.539062 501.648438 C 501.675781 500.042969 505.347656 497.878906 508.488281 496.054688 C 514.789062 492.332031 519.046875 490.214844 519.679688 491.089844 C 522.113281 494.542969 504.472656 503.984375 503.9375 507.199219 C 510.410156 511.042969 513.160156 505.371094 517.855469 501.429688 C 520.605469 499.121094 526.296875 497.511719 528.097656 494.421875 C 530.628906 490.019531 527.929688 489.53125 524.472656 486.34375 C 515.324219 477.828125 507.34375 468.070312 498.21875 459.554688 C 496.613281 458.144531 495.203125 456.804688 493.960938 455.566406 C 492.671875 454.371094 491.382812 453.472656 490.457031 452.597656 C 488.558594 450.917969 487.609375 449.75 487.878906 449.3125 C 488.144531 448.875 489.605469 449.164062 491.964844 450.113281 C 493.15625 450.601562 494.570312 451.136719 496.175781 452.0625 C 497.78125 452.984375 499.53125 454.152344 501.480469 455.441406 C 509.167969 460.722656 518.050781 469.75 527.808594 478.851562 C 529.605469 480.457031 531.335938 482.136719 533.109375 483.59375 C 533.769531 484.128906 534.402344 484.617188 535.007812 485.105469 C 535.910156 483.15625 536.566406 481.160156 537.148438 479.214844 C 537.078125 475.734375 535.253906 472.109375 533.769531 467.730469 C 533.695312 467.414062 533.644531 467.148438 533.597656 466.878906 C 533.476562 466.613281 533.328125 466.34375 533.207031 466.027344 C 525.179688 441.476562 493.816406 421.960938 470.238281 414.734375 C 469.070312 414.371094 468.191406 413.785156 467.535156 413.128906 C 461.792969 415.027344 456.171875 417.167969 451.234375 420.722656 C 454.566406 423.277344 458.484375 425.269531 462.207031 427.191406 C 466.488281 429.359375 470.554688 431.621094 473.59375 434.054688 C 476.660156 436.488281 478.703125 439.066406 479.800781 441.0625 C 480.75 443.007812 480.917969 444.203125 480.503906 444.519531 C 480.066406 444.835938 479.070312 444.128906 477.464844 442.839844 C 475.90625 441.695312 473.691406 440.039062 470.675781 438.433594 C 467.65625 436.851562 463.789062 435.296875 459.3125 433.445312 C 455.6875 431.890625 451.523438 430.0625 447.484375 427.191406 C 444.808594 434.226562 443.300781 441.695312 440.722656 448.875 C 440.429688 449.628906 440.066406 450.261719 439.625 450.820312 C 439.578125 451.792969 439.503906 452.765625 439.308594 453.738281 C 441.453125 456.320312 443.8125 458.679688 446.195312 460.941406 C 446.269531 459.335938 446.511719 457.828125 447.074219 456.683594 " fill-opacity="1" fill-rule="nonzero"/><path fill="#cbad9f" d="M 463.449219 572.871094 C 464.226562 566.664062 465.222656 560.949219 465.785156 555.617188 C 467.996094 534.28125 469.214844 520.847656 470.308594 520.847656 C 471.308594 520.898438 471.964844 534.253906 471.0625 556.007812 C 470.796875 561.484375 470.140625 567.542969 469.554688 573.988281 C 468.800781 580.414062 467.292969 587.03125 466.050781 594.0625 C 462.816406 608.566406 457.414062 623.601562 449.480469 638.542969 C 433.640625 668.496094 411.472656 690.273438 394.464844 703.777344 C 377.457031 717.550781 365.488281 723.875 365.023438 723.171875 C 364.320312 722.195312 375.242188 714.289062 391.058594 699.789062 C 406.898438 685.429688 427.65625 663.800781 442.8125 635.039062 C 450.453125 620.804688 455.953125 606.082031 459.3125 592.699219 C 460.722656 585.691406 462.5 579.027344 463.449219 572.871094 Z M 457.144531 515.519531 C 465.492188 558.488281 445.878906 613.992188 420.964844 648.617188 C 401.789062 675.234375 375.195312 706.890625 343.78125 719.300781 C 345.605469 726.234375 348.039062 732.878906 350.984375 739.035156 C 358.722656 755.242188 368.625 770.082031 379.941406 783.832031 C 423.179688 747.285156 459.992188 699.617188 483.179688 647.742188 C 496.832031 617.128906 494.277344 589.222656 495.25 556.8125 C 495.6875 542.796875 498 531.53125 502.746094 520.507812 C 498.535156 521.433594 494.570312 521.019531 490.53125 519.460938 C 481.1875 515.882812 473.644531 507.539062 466.734375 500.578125 C 464.371094 498.195312 464.371094 495.347656 465.613281 493.035156 C 465.882812 492.015625 466.417969 490.992188 467.292969 490.066406 C 468.898438 488.390625 470.457031 486.464844 470.796875 484.128906 C 470.894531 483.742188 470.457031 482.453125 469.96875 481.867188 C 469.871094 481.964844 469.703125 482.039062 469.507812 482.183594 C 468.945312 482.574219 468.410156 483.15625 467.925781 483.644531 C 466.199219 485.371094 464.542969 487.195312 462.863281 488.972656 C 459.894531 491.964844 456.074219 491.1875 453.738281 488.925781 C 452.523438 488.4375 451.476562 487.464844 450.722656 485.957031 C 445.464844 475.128906 434.054688 468.777344 426.902344 459.335938 C 425.34375 457.269531 425.296875 455.25 426.148438 453.570312 C 426.148438 453.035156 426.097656 452.5 426.242188 451.964844 C 426.292969 451.695312 426.367188 451.402344 426.414062 451.085938 C 426.414062 450.988281 426.414062 450.867188 426.464844 450.699219 C 426.464844 450.285156 426.414062 449.894531 426.414062 449.480469 C 426.414062 449.433594 426.414062 449.410156 426.367188 449.359375 C 419.722656 455.566406 411.207031 458.484375 402.375 460.140625 C 429.113281 467.902344 451.332031 485.445312 457.144531 515.519531 " fill-opacity="1" fill-rule="nonzero"/><g clip-path="url(#a2dc87c2df)"><path fill="#cbad9f" d="M 210.832031 802.859375 C 196.160156 809.816406 174.917969 818.042969 150.121094 822.152344 C 137.738281 824.148438 125.691406 824.804688 114.695312 823.980469 C 103.71875 823.128906 93.964844 820.695312 86.296875 817.359375 C 78.585938 813.953125 73.085938 809.914062 69.753906 806.53125 C 66.46875 803.296875 65.203125 801.132812 65.445312 800.789062 C 66.394531 799.769531 73.402344 807.335938 88.21875 812.398438 C 95.570312 814.925781 104.742188 816.65625 115.132812 817.09375 C 125.449219 817.554688 136.957031 816.703125 148.878906 814.757812 C 172.773438 810.789062 193.796875 803.613281 208.738281 797.992188 C 223.75 792.324219 232.707031 788.015625 233.265625 788.941406 C 233.75 789.792969 225.550781 795.828125 210.832031 802.859375 Z M 264.800781 768.988281 C 222.144531 792.929688 177.253906 810.886719 127.152344 807.871094 C 107.054688 806.679688 87.148438 804.949219 70.070312 793.417969 C 55.738281 783.710938 46.34375 766.773438 41.453125 749.863281 C 40.140625 762.785156 40.96875 776.117188 45.105469 790.230469 C 55.03125 824.246094 76.273438 849.578125 110.167969 861.402344 C 164.40625 880.382812 237.960938 879.625 286.527344 845.976562 C 279.082031 831.863281 273.265625 816.972656 269.59375 801.445312 C 267.0625 790.667969 265.503906 779.839844 264.800781 768.988281 " fill-opacity="1" fill-rule="nonzero"/></g><path fill="#cbad9f" d="M 682.558594 966.515625 C 671.390625 966.859375 655.113281 967.367188 635.113281 964.472656 C 630.074219 963.671875 624.84375 962.792969 619.613281 961.457031 C 618.273438 961.1875 616.9375 960.871094 615.546875 960.578125 C 614.1875 960.167969 612.800781 959.824219 611.4375 959.410156 C 608.6875 958.65625 605.890625 957.902344 603.042969 957.101562 C 597.371094 955.59375 591.582031 953.839844 585.570312 951.894531 C 579.585938 950.019531 573.429688 948.074219 567.25 945.761719 C 542.261719 936.929688 515.421875 925.566406 488.460938 910.941406 C 461.574219 896.488281 437.21875 879.820312 417.410156 862.035156 C 397.410156 844.464844 382.105469 825.925781 369.746094 810.28125 C 363.660156 802.273438 358.210938 795.097656 353.808594 788.453125 C 349.28125 781.933594 345.386719 776.3125 342.515625 771.566406 C 336.605469 762.101562 333.539062 756.75 333.953125 756.433594 C 335.023438 755.679688 348.792969 776.261719 373.855469 806.945312 C 386.632812 822.03125 402.105469 839.941406 421.984375 856.828125 C 441.621094 874.007812 465.441406 890.066406 492.0625 904.371094 C 518.535156 918.753906 545.035156 930.238281 569.5625 939.289062 C 575.691406 941.625 581.726562 943.667969 587.617188 945.617188 C 593.480469 947.660156 599.199219 949.53125 604.84375 951.164062 C 607.59375 952.015625 610.339844 952.816406 613.042969 953.644531 C 614.355469 954.035156 615.644531 954.449219 616.9375 954.863281 C 618.296875 955.152344 619.636719 955.519531 620.925781 955.859375 C 626.207031 957.34375 631.21875 958.316406 636.011719 959.242188 C 655.332031 962.695312 671.488281 963.0625 682.558594 963.597656 C 693.65625 964.035156 699.835938 964.351562 699.859375 964.863281 C 699.859375 965.347656 693.703125 966.078125 682.558594 966.515625 Z M 688.035156 992.140625 C 686.574219 993.332031 684.359375 995.132812 681.246094 996.882812 C 675.066406 1000.65625 665.503906 1005.132812 652.996094 1008.464844 C 640.390625 1011.96875 625.136719 1013.746094 608.101562 1014.011719 C 591.117188 1014.234375 572.308594 1012.652344 553.113281 1008.367188 C 514.496094 1000 482.742188 982.820312 461.234375 969.21875 C 439.773438 955.300781 427.875 944.910156 428.410156 944.15625 C 429.066406 943.183594 442.109375 952.089844 463.984375 964.691406 C 485.929688 976.980469 517.296875 992.941406 554.71875 1001.117188 C 573.332031 1005.179688 591.507812 1006.957031 608.101562 1007.078125 C 624.648438 1007.273438 639.734375 1006.03125 651.753906 1003.332031 C 676.355469 998.222656 689.347656 988.828125 690.078125 990.023438 C 690.199219 990.191406 689.496094 990.945312 688.035156 992.140625 Z M 305.703125 819.988281 C 304.800781 820.378906 301.226562 814.5625 296.722656 804.464844 C 292.441406 794.316406 287.695312 779.667969 285.164062 762.855469 C 282.953125 746.019531 283.707031 730.566406 285.507812 719.496094 C 287.597656 708.71875 290.007812 702.316406 290.933594 702.464844 C 292.027344 702.632812 291.46875 709.472656 290.761719 720.300781 C 290.347656 730.882812 290.445312 745.652344 292.5625 761.835938 C 295.019531 777.992188 298.765625 792.324219 301.734375 802.6875 C 304.800781 813.03125 306.722656 819.550781 305.703125 819.988281 Z M 751.710938 855.464844 C 759.351562 893.910156 752.683594 931.574219 709.445312 945.347656 C 678.765625 955.152344 643.335938 949.3125 612.675781 941.820312 C 569.828125 931.308594 529.121094 912.765625 491.527344 889.917969 C 428.992188 851.960938 346.191406 796.824219 330.253906 719.398438 C 324.511719 691.417969 325.507812 656.039062 348.015625 634.964844 C 352.445312 630.828125 357.1875 627.324219 362.203125 624.234375 C 355.949219 626.351562 349.816406 629.003906 343.976562 632.484375 C 320.640625 646.304688 301.734375 666.5 291.054688 691.683594 C 269.933594 741.566406 274.117188 797.894531 301.347656 844.734375 C 328.453125 891.378906 370.035156 924.691406 415.148438 953.109375 C 462.28125 982.746094 513.914062 1007.761719 569.097656 1017.738281 C 623.722656 1027.589844 678.667969 1025.9375 721.46875 985.714844 C 760.007812 949.53125 769.71875 901.816406 751.710938 855.464844 " fill-opacity="1" fill-rule="nonzero"/></svg>